<svg width="14" height="14" viewBox="0 0 14 14" fill="none" xmlns="http://www.w3.org/2000/svg">
<path d="M6.5 1C5.30653 1 4.16193 1.4425 3.31802 2.23015C2.47411 3.0178 2 4.08609 2 5.2C2 6.628 2.765 7.882 3.92857 8.644V10C3.92857 10.1591 3.9963 10.3117 4.11686 10.4243C4.23742 10.5368 4.40093 10.6 4.57143 10.6H8.42857C8.59907 10.6 8.76258 10.5368 8.88314 10.4243C9.0037 10.3117 9.07143 10.1591 9.07143 10V8.644C10.235 7.882 11 6.628 11 5.2C11 4.08609 10.5259 3.0178 9.68198 2.23015C8.83807 1.4425 7.69347 1 6.5 1ZM4.57143 12.4C4.57143 12.5591 4.63916 12.7117 4.75972 12.8243C4.88028 12.9368 5.04379 13 5.21429 13H7.78571C7.95621 13 8.11972 12.9368 8.24028 12.8243C8.36084 12.7117 8.42857 12.5591 8.42857 12.4V11.8H4.57143V12.4Z" fill="#F7A500"/>
</svg>
