<svg width="118" height="154" viewBox="0 0 118 154" fill="none" xmlns="http://www.w3.org/2000/svg">
<rect width="118" height="155" fill="#8DCDA9"/>
<path d="M35.4303 49.626C35.2263 49.674 34.8843 49.734 34.4043 49.806C33.9243 49.866 33.3603 49.932 32.7123 50.004C32.4963 50.988 32.2803 51.924 32.0643 52.812C31.8603 53.7 31.6683 54.474 31.4883 55.134C31.4043 55.47 31.2903 55.698 31.1463 55.818C31.0143 55.95 30.8523 56.016 30.6602 56.016C30.3483 56.016 30.1023 55.902 29.9223 55.674C29.7543 55.458 29.6703 55.194 29.6703 54.882C29.6703 54.546 29.7303 53.958 29.8503 53.118C29.9823 52.278 30.1503 51.318 30.3543 50.238C29.5263 50.322 28.6863 50.394 27.8343 50.454C27.6783 51.198 27.5343 51.912 27.4023 52.596C27.2823 53.28 27.1743 53.904 27.0783 54.468C26.9943 54.912 26.8503 55.218 26.6463 55.386C26.4423 55.566 26.2383 55.656 26.0343 55.656C25.7103 55.656 25.4463 55.548 25.2423 55.332C25.0503 55.116 24.9543 54.774 24.9543 54.306C24.9543 54.102 25.0083 53.67 25.1163 53.01C25.2243 52.35 25.3623 51.558 25.5303 50.634C24.8823 50.682 24.3003 50.718 23.7843 50.742C23.2803 50.766 22.8843 50.778 22.5963 50.778C22.0803 50.778 21.7443 50.682 21.5883 50.49C21.4323 50.286 21.3543 50.028 21.3543 49.716C21.3543 49.548 21.4563 49.38 21.6603 49.212C21.8643 49.032 22.1943 48.888 22.6503 48.78C23.0823 48.684 23.5863 48.594 24.1623 48.51C24.7383 48.414 25.3503 48.33 25.9983 48.258C26.1903 47.31 26.3883 46.338 26.5923 45.342C26.0283 45.402 25.5123 45.45 25.0443 45.486C24.5883 45.522 24.2283 45.54 23.9643 45.54C23.4603 45.54 23.1063 45.492 22.9023 45.396C22.6983 45.3 22.5723 45.186 22.5243 45.054C22.4883 44.922 22.4703 44.79 22.4703 44.658C22.4703 44.646 22.4703 44.64 22.4703 44.64C22.4703 44.508 22.6203 44.328 22.9203 44.1C23.2323 43.872 23.8263 43.644 24.7023 43.416C25.0383 43.332 25.4043 43.248 25.8003 43.164C26.2083 43.08 26.6463 42.996 27.1143 42.912C27.2463 42.312 27.3723 41.748 27.4923 41.22C27.6123 40.68 27.7263 40.194 27.8343 39.762C27.9183 39.45 28.0623 39.198 28.2663 39.006C28.4703 38.814 28.6743 38.718 28.8783 38.718C29.1543 38.718 29.4003 38.868 29.6163 39.168C29.8323 39.456 29.9403 39.762 29.9403 40.086C29.9403 40.158 29.8923 40.422 29.7963 40.878C29.7123 41.322 29.5983 41.892 29.4543 42.588C29.8503 42.552 30.2583 42.516 30.6783 42.48C31.0983 42.444 31.5303 42.414 31.9743 42.39C32.1903 41.382 32.3703 40.602 32.5143 40.05C32.5743 39.786 32.6883 39.57 32.8563 39.402C33.0363 39.234 33.2403 39.15 33.4683 39.15C33.6363 39.15 33.8043 39.222 33.9723 39.366C34.1403 39.498 34.2783 39.66 34.3863 39.852C34.5063 40.044 34.5663 40.23 34.5663 40.41C34.5663 40.542 34.5423 40.77 34.4943 41.094C34.4463 41.418 34.3803 41.82 34.2963 42.3C34.6443 42.288 34.9923 42.282 35.3403 42.282C35.8683 42.282 36.2643 42.354 36.5283 42.498C36.8043 42.63 36.9903 42.786 37.0863 42.966C37.1943 43.146 37.2483 43.296 37.2483 43.416C37.2483 43.608 37.1703 43.788 37.0143 43.956C36.8583 44.112 36.5823 44.196 36.1863 44.208C36.0423 44.208 35.7663 44.232 35.3583 44.28C34.9503 44.328 34.4583 44.388 33.8823 44.46C33.6903 45.468 33.4683 46.548 33.2163 47.7C33.3843 47.7 33.5403 47.7 33.6843 47.7C34.3563 47.7 34.8783 47.73 35.2503 47.79C35.6223 47.85 35.8863 47.928 36.0423 48.024C36.2103 48.12 36.3063 48.228 36.3303 48.348C36.3663 48.456 36.3843 48.558 36.3843 48.654C36.3843 48.678 36.3843 48.696 36.3843 48.708C36.3843 48.864 36.3183 49.032 36.1863 49.212C36.0663 49.392 35.8143 49.53 35.4303 49.626ZM30.8223 47.808C30.9303 47.292 31.0323 46.782 31.1283 46.278C31.2363 45.762 31.3443 45.258 31.4523 44.766C31.0443 44.814 30.6243 44.868 30.1923 44.928C29.7723 44.976 29.3523 45.024 28.9323 45.072C28.8363 45.54 28.7343 46.02 28.6263 46.512C28.5303 47.004 28.4283 47.502 28.3203 48.006C29.1843 47.922 30.0183 47.856 30.8223 47.808ZM43.4948 55.386C43.2908 55.386 43.1048 55.356 42.9368 55.296C42.7808 55.248 42.6488 55.146 42.5408 54.99C42.0488 55.074 41.5628 55.14 41.0828 55.188C40.6028 55.236 40.1528 55.26 39.7328 55.26C39.3728 55.26 39.0908 55.17 38.8868 54.99C38.6828 54.822 38.5808 54.582 38.5808 54.27C38.5808 54.09 38.6828 53.886 38.8868 53.658C39.0908 53.43 39.4688 53.214 40.0208 53.01C40.5728 52.794 41.3768 52.626 42.4328 52.506C42.5168 51.942 42.6428 51.276 42.8108 50.508C42.9788 49.728 43.1828 48.9 43.4228 48.024C43.6628 47.136 43.9448 46.26 44.2688 45.396C43.8248 45.864 43.3568 46.26 42.8648 46.584C42.3848 46.908 41.9228 47.154 41.4788 47.322C41.0468 47.49 40.6748 47.574 40.3628 47.574C40.1108 47.574 39.9008 47.532 39.7328 47.448C39.5768 47.364 39.4988 47.208 39.4988 46.98C39.4988 46.692 39.6368 46.428 39.9128 46.188C40.1888 45.936 40.4888 45.69 40.8128 45.45C41.3048 45.078 41.8328 44.634 42.3968 44.118C42.9728 43.602 43.5068 43.05 43.9988 42.462C44.5028 41.874 44.8928 41.298 45.1688 40.734C45.3008 40.482 45.4448 40.284 45.6008 40.14C45.7568 39.984 46.0088 39.906 46.3568 39.906C46.7048 39.906 46.9568 40.062 47.1128 40.374C47.2688 40.674 47.3468 41.034 47.3468 41.454C47.3468 41.622 47.2988 41.97 47.2028 42.498C47.1068 43.014 46.9748 43.65 46.8068 44.406C46.6388 45.15 46.4528 45.972 46.2488 46.872C46.0448 47.76 45.8348 48.672 45.6188 49.608C45.4028 50.544 45.1988 51.45 45.0068 52.326C45.4028 52.314 45.8108 52.308 46.2308 52.308C46.7348 52.308 47.1728 52.35 47.5448 52.434C47.9168 52.518 48.1028 52.698 48.1028 52.974C48.1028 53.262 47.9768 53.478 47.7248 53.622C47.4848 53.754 47.1908 53.874 46.8428 53.982C46.5188 54.078 46.1528 54.18 45.7448 54.288C45.3368 54.408 44.9048 54.516 44.4488 54.612C44.3288 54.888 44.1848 55.086 44.0168 55.206C43.8488 55.326 43.6748 55.386 43.4948 55.386ZM53.1241 54.774C52.5241 54.774 52.0981 54.63 51.8461 54.342C51.6061 54.066 51.4861 53.778 51.4861 53.478C51.4861 53.214 51.5461 52.968 51.6661 52.74C51.7981 52.5 52.0261 52.308 52.3501 52.164C52.6741 52.02 53.1361 51.96 53.7361 51.984C54.3361 51.672 54.9421 51.288 55.5541 50.832C56.1781 50.376 56.7721 49.872 57.3361 49.32C57.9121 48.768 58.4221 48.204 58.8661 47.628C59.3221 47.04 59.6761 46.464 59.9281 45.9C60.1921 45.324 60.3241 44.784 60.3241 44.28C60.3241 43.74 60.1561 43.332 59.8201 43.056C59.4961 42.78 59.0401 42.642 58.4521 42.642C57.9481 42.642 57.4861 42.702 57.0661 42.822C56.6461 42.93 56.2741 43.062 55.9501 43.218C55.6261 43.374 55.3501 43.512 55.1221 43.632C54.9061 43.74 54.7321 43.794 54.6001 43.794C54.3721 43.794 54.1681 43.698 53.9881 43.506C53.8081 43.302 53.7541 43.038 53.8261 42.714C53.8741 42.498 54.0181 42.24 54.2581 41.94C54.4981 41.64 54.8281 41.34 55.2481 41.04C55.6681 40.74 56.1661 40.494 56.7421 40.302C57.3301 40.098 57.9901 39.996 58.7221 39.996C59.8981 39.996 60.8521 40.356 61.5841 41.076C62.3281 41.796 62.7001 42.894 62.7001 44.37C62.7001 45.342 62.4421 46.296 61.9261 47.232C61.4221 48.168 60.7501 49.056 59.9101 49.896C59.0701 50.736 58.1521 51.504 57.1561 52.2C58.0561 52.164 58.7581 52.11 59.2621 52.038C59.7661 51.954 60.1681 51.882 60.4681 51.822C60.7801 51.762 61.0801 51.732 61.3681 51.732C61.7761 51.732 62.0941 51.816 62.3221 51.984C62.5501 52.152 62.6641 52.392 62.6641 52.704C62.6641 52.932 62.6041 53.154 62.4841 53.37C62.3761 53.586 62.1601 53.784 61.8361 53.964C61.5121 54.132 61.0441 54.264 60.4321 54.36C59.8201 54.468 59.0161 54.522 58.0201 54.522C57.4321 54.522 56.8261 54.516 56.2021 54.504C55.5901 54.492 54.9961 54.474 54.4201 54.45C54.0841 54.57 53.8201 54.654 53.6281 54.702C53.4481 54.75 53.2801 54.774 53.1241 54.774ZM72.3997 54.306C71.6077 54.306 70.8697 54.108 70.1857 53.712C69.5017 53.304 68.9497 52.704 68.5297 51.912C68.1097 51.12 67.8997 50.136 67.8997 48.96C67.8997 48.168 68.0377 47.412 68.3137 46.692C68.5897 45.96 68.9017 45.312 69.2497 44.748C69.1897 44.592 69.1597 44.412 69.1597 44.208C69.1597 43.74 69.2917 43.278 69.5557 42.822C69.8317 42.354 70.1917 41.928 70.6357 41.544C71.0917 41.16 71.6017 40.854 72.1657 40.626C72.7297 40.398 73.3057 40.284 73.8937 40.284C74.8057 40.284 75.6097 40.512 76.3057 40.968C77.0017 41.424 77.5477 42.06 77.9437 42.876C78.3397 43.68 78.5377 44.61 78.5377 45.666C78.5377 46.938 78.3697 48.102 78.0337 49.158C77.7097 50.214 77.2597 51.126 76.6837 51.894C76.1197 52.662 75.4657 53.256 74.7217 53.676C73.9897 54.096 73.2157 54.306 72.3997 54.306ZM72.5077 43.11C72.5317 43.182 72.5437 43.266 72.5437 43.362C72.5437 43.542 72.5077 43.692 72.4357 43.812C72.3637 43.932 72.2677 44.064 72.1477 44.208C71.9917 44.388 71.8117 44.664 71.6077 45.036C71.4157 45.396 71.2297 45.816 71.0497 46.296C70.8697 46.776 70.7197 47.274 70.5997 47.79C70.4917 48.294 70.4377 48.774 70.4377 49.23C70.4377 50.034 70.5877 50.664 70.8877 51.12C71.1877 51.576 71.6317 51.804 72.2197 51.804C72.7117 51.804 73.1857 51.642 73.6417 51.318C74.1097 50.994 74.5237 50.556 74.8837 50.004C75.2437 49.44 75.5257 48.798 75.7297 48.078C75.9457 47.358 76.0537 46.596 76.0537 45.792C76.0537 45.216 75.9757 44.694 75.8197 44.226C75.6637 43.758 75.4417 43.386 75.1537 43.11C74.8657 42.834 74.5237 42.696 74.1277 42.696C73.8037 42.696 73.5037 42.738 73.2277 42.822C72.9637 42.894 72.7237 42.99 72.5077 43.11ZM87.4079 54.036C86.6759 54.036 86.0159 53.79 85.4279 53.298C84.8519 52.794 84.3959 52.086 84.0599 51.174C83.7239 50.25 83.5559 49.158 83.5559 47.898C83.5559 47.13 83.6579 46.428 83.8619 45.792C84.0779 45.156 84.3299 44.622 84.6179 44.19C84.9059 43.746 85.1819 43.428 85.4459 43.236C85.4339 43.164 85.4279 43.08 85.4279 42.984C85.4279 42.54 85.5899 42.096 85.9139 41.652C86.2379 41.208 86.6699 40.842 87.2099 40.554C87.7499 40.254 88.3439 40.104 88.9919 40.104C89.7239 40.104 90.3839 40.35 90.9719 40.842C91.5599 41.322 92.0279 42.006 92.3759 42.894C92.7239 43.782 92.8979 44.82 92.8979 46.008C92.8979 47.232 92.7479 48.336 92.4479 49.32C92.1599 50.304 91.7579 51.15 91.2419 51.858C90.7379 52.554 90.1559 53.094 89.4959 53.478C88.8359 53.85 88.1399 54.036 87.4079 54.036ZM86.6339 43.938C86.6339 43.938 86.6339 43.944 86.6339 43.956C86.6339 44.124 86.5859 44.406 86.4899 44.802C86.3939 45.186 86.2979 45.654 86.2019 46.206C86.1059 46.758 86.0579 47.376 86.0579 48.06C86.0579 48.636 86.0999 49.182 86.1839 49.698C86.2679 50.202 86.4119 50.616 86.6159 50.94C86.8199 51.264 87.1019 51.426 87.4619 51.426C88.0859 51.426 88.6139 51.156 89.0459 50.616C89.4899 50.076 89.8319 49.35 90.0719 48.438C90.3119 47.526 90.4319 46.518 90.4319 45.414C90.4319 44.598 90.3359 43.914 90.1439 43.362C89.9519 42.81 89.6519 42.534 89.2439 42.534C88.8239 42.534 88.4519 42.63 88.1279 42.822C87.8159 43.014 87.5399 43.224 87.2999 43.452C87.0599 43.68 86.8379 43.842 86.6339 43.938ZM31.99 80.778C32.362 80.778 32.626 80.88 32.782 81.084C32.938 81.276 33.016 81.48 33.016 81.696C33.016 81.996 32.866 82.314 32.566 82.65C32.266 82.986 31.876 83.298 31.396 83.586C30.928 83.862 30.424 84.09 29.884 84.27C29.344 84.45 28.828 84.54 28.336 84.54C27.604 84.54 26.902 84.342 26.23 83.946C25.57 83.538 25.03 82.968 24.61 82.236C24.202 81.504 23.998 80.634 23.998 79.626C23.998 78.798 24.154 77.976 24.466 77.16C24.79 76.344 25.216 75.558 25.744 74.802C26.284 74.046 26.872 73.344 27.508 72.696C28.156 72.048 28.804 71.484 29.452 71.004C30.112 70.524 30.718 70.152 31.27 69.888C31.822 69.612 32.266 69.474 32.602 69.474C33.022 69.474 33.334 69.582 33.538 69.798C33.754 70.002 33.862 70.29 33.862 70.662C33.862 70.962 33.802 71.196 33.682 71.364C33.574 71.52 33.4 71.658 33.16 71.778C32.392 72.174 31.612 72.654 30.82 73.218C30.04 73.782 29.326 74.406 28.678 75.09C28.03 75.762 27.508 76.47 27.112 77.214C26.716 77.958 26.518 78.714 26.518 79.482C26.518 80.322 26.686 80.958 27.022 81.39C27.358 81.822 27.814 82.038 28.39 82.038C28.678 82.038 28.99 81.978 29.326 81.858C29.662 81.726 29.992 81.576 30.316 81.408C30.652 81.24 30.964 81.096 31.252 80.976C31.552 80.844 31.798 80.778 31.99 80.778ZM37.1851 84.684C36.8011 84.684 36.4531 84.576 36.1411 84.36C35.8291 84.156 35.5831 83.886 35.4031 83.55C35.2231 83.202 35.1331 82.83 35.1331 82.434C35.1331 81.69 35.2951 80.964 35.6191 80.256C35.9551 79.548 36.3931 78.876 36.9331 78.24C37.4731 77.604 38.0611 77.022 38.6971 76.494C39.3451 75.954 39.9871 75.492 40.6231 75.108C41.2711 74.724 41.8591 74.424 42.3871 74.208C42.9271 73.992 43.3471 73.884 43.6471 73.884C43.9951 73.884 44.2771 73.962 44.4931 74.118C44.7211 74.262 44.8351 74.49 44.8351 74.802C44.8351 74.898 44.8111 74.976 44.7631 75.036C44.9191 75.072 45.0451 75.162 45.1411 75.306C45.2371 75.45 45.2851 75.666 45.2851 75.954C45.2851 76.074 45.2551 76.386 45.1951 76.89C45.1351 77.394 45.0691 78.006 44.9971 78.726C44.9371 79.446 44.9071 80.196 44.9071 80.976C44.9071 81.096 44.9251 81.204 44.9611 81.3C44.9971 81.384 45.0751 81.426 45.1951 81.426C45.6751 81.426 46.1611 81.33 46.6531 81.138C47.1571 80.934 47.6431 80.688 48.1111 80.4C48.5911 80.1 49.0231 79.806 49.4071 79.518C49.8031 79.218 50.1331 78.972 50.3971 78.78C50.6731 78.576 50.8531 78.474 50.9371 78.474C51.3451 78.474 51.5491 78.678 51.5491 79.086C51.5491 79.194 51.4171 79.422 51.1531 79.77C50.9011 80.106 50.5531 80.496 50.1091 80.94C49.6651 81.372 49.1671 81.804 48.6151 82.236C48.0751 82.656 47.5111 83.004 46.9231 83.28C46.3471 83.556 45.7891 83.694 45.2491 83.694C44.5891 83.694 44.0851 83.538 43.7371 83.226C43.4011 82.914 43.1611 82.494 43.0171 81.966C42.8851 81.426 42.8131 80.82 42.8011 80.148C42.1891 81.024 41.5531 81.804 40.8931 82.488C40.2451 83.16 39.6031 83.694 38.9671 84.09C38.3311 84.486 37.7371 84.684 37.1851 84.684ZM43.5571 75.666C42.3811 76.23 41.3251 76.878 40.3891 77.61C39.4531 78.33 38.7091 79.086 38.1571 79.878C37.6171 80.67 37.3471 81.432 37.3471 82.164C37.3471 82.368 37.4431 82.47 37.6351 82.47C37.8631 82.47 38.1631 82.338 38.5351 82.074C38.9191 81.81 39.3331 81.462 39.7771 81.03C40.2211 80.586 40.6651 80.094 41.1091 79.554C41.5531 79.002 41.9671 78.438 42.3511 77.862C42.7351 77.286 43.0411 76.734 43.2691 76.206C43.3531 76.014 43.4491 75.834 43.5571 75.666ZM53.7295 84.9C52.6495 84.9 51.7975 84.57 51.1735 83.91C50.5615 83.238 50.2555 82.284 50.2555 81.048C50.2555 80.376 50.3455 79.59 50.5255 78.69C50.7055 77.778 50.9395 76.818 51.2275 75.81C51.5275 74.79 51.8455 73.782 52.1815 72.786C52.5295 71.79 52.8715 70.866 53.2075 70.014C53.5435 69.162 53.8375 68.448 54.0895 67.872C54.3055 67.428 54.6115 67.206 55.0075 67.206C55.2595 67.206 55.4635 67.284 55.6195 67.44C55.7875 67.596 55.8715 67.848 55.8715 68.196C55.8715 68.364 55.7875 68.73 55.6195 69.294C55.4515 69.858 55.2295 70.554 54.9535 71.382C54.6895 72.198 54.4015 73.08 54.0895 74.028C53.7895 74.976 53.5015 75.93 53.2255 76.89C52.9615 77.85 52.7455 78.756 52.5775 79.608C52.4095 80.448 52.3255 81.162 52.3255 81.75C52.3255 81.99 52.3915 82.182 52.5235 82.326C52.6675 82.47 52.8535 82.542 53.0815 82.542C53.5735 82.542 54.0775 82.452 54.5935 82.272C55.1215 82.092 55.6375 81.864 56.1415 81.588C56.6575 81.312 57.1435 81.018 57.5995 80.706C58.0555 80.394 58.4635 80.1 58.8235 79.824C59.1955 79.536 59.4955 79.308 59.7235 79.14C60.0235 78.912 60.2275 78.798 60.3355 78.798C60.7435 78.798 60.9475 78.996 60.9475 79.392C60.9475 79.488 60.8275 79.686 60.5875 79.986C60.3835 80.25 60.0955 80.586 59.7235 80.994C59.3515 81.402 58.9195 81.834 58.4275 82.29C57.9475 82.734 57.4315 83.154 56.8795 83.55C56.3395 83.946 55.7995 84.27 55.2595 84.522C54.7195 84.774 54.2095 84.9 53.7295 84.9ZM62.5225 84.594C61.6705 84.594 60.9865 84.294 60.4705 83.694C59.9545 83.082 59.6965 82.266 59.6965 81.246C59.6965 80.922 59.7385 80.592 59.8225 80.256C59.9185 79.92 60.0325 79.608 60.1645 79.32C60.0925 79.212 60.0325 79.074 59.9845 78.906C59.9485 78.726 59.9305 78.516 59.9305 78.276C59.9305 77.496 60.0685 76.782 60.3445 76.134C60.6205 75.474 60.9925 74.904 61.4605 74.424C61.9285 73.944 62.4445 73.572 63.0085 73.308C63.5725 73.044 64.1425 72.912 64.7185 72.912C65.7025 72.912 66.5065 73.242 67.1305 73.902C67.7665 74.562 68.0845 75.588 68.0845 76.98C68.0845 77.676 67.9765 78.384 67.7605 79.104C67.5445 79.824 67.2505 80.514 66.8785 81.174C66.5185 81.822 66.0985 82.404 65.6185 82.92C65.1505 83.436 64.6465 83.844 64.1065 84.144C63.5785 84.444 63.0505 84.594 62.5225 84.594ZM62.2345 78.51C62.2945 78.642 62.3245 78.798 62.3245 78.978C62.3245 79.158 62.2885 79.344 62.2165 79.536C62.1445 79.728 62.0725 79.986 62.0005 80.31C61.9285 80.622 61.8925 81.072 61.8925 81.66C61.8925 81.816 61.9105 81.948 61.9465 82.056C61.9945 82.152 62.0965 82.2 62.2525 82.2C62.6605 82.2 63.0445 82.068 63.4045 81.804C63.7765 81.54 64.1065 81.192 64.3945 80.76C64.6945 80.328 64.9465 79.848 65.1505 79.32C65.3665 78.78 65.5285 78.234 65.6365 77.682C65.7565 77.118 65.8165 76.596 65.8165 76.116C65.8165 75.804 65.7565 75.588 65.6365 75.468C65.5165 75.348 65.3065 75.288 65.0065 75.288C64.5985 75.288 64.1785 75.42 63.7465 75.684C63.3265 75.936 62.9725 76.284 62.6845 76.728C62.3965 77.16 62.2525 77.652 62.2525 78.204C62.2525 78.312 62.2465 78.414 62.2345 78.51ZM70.8755 84.792C70.5755 84.792 70.3175 84.684 70.1015 84.468C69.8975 84.252 69.7955 83.94 69.7955 83.532C69.7955 83.352 69.8195 83.058 69.8675 82.65C69.9275 82.23 69.9995 81.75 70.0835 81.21C70.1795 80.67 70.2695 80.106 70.3535 79.518C70.4495 78.93 70.5275 78.372 70.5875 77.844C70.6595 77.316 70.7075 76.866 70.7315 76.494C70.7555 76.038 70.8755 75.714 71.0915 75.522C71.3075 75.318 71.5655 75.216 71.8655 75.216C72.1055 75.216 72.3215 75.276 72.5135 75.396C72.7175 75.504 72.8435 75.738 72.8915 76.098C72.9515 76.446 72.9575 76.95 72.9095 77.61C73.4375 76.65 73.9715 75.792 74.5115 75.036C75.0635 74.28 75.6395 73.68 76.2395 73.236C77.2355 72.48 78.1355 72.102 78.9395 72.102C79.3955 72.102 79.6955 72.204 79.8395 72.408C79.9835 72.612 80.0555 72.822 80.0555 73.038C80.0555 73.182 80.0195 73.314 79.9475 73.434C79.8875 73.554 79.7555 73.68 79.5515 73.812C79.3475 73.944 79.0355 74.118 78.6155 74.334C78.0515 74.622 77.4935 75 76.9415 75.468C76.4015 75.936 75.8615 76.536 75.3215 77.268C74.7815 78 74.2355 78.9 73.6835 79.968C73.1315 81.036 72.5615 82.308 71.9735 83.784C71.8655 84.192 71.7095 84.462 71.5055 84.594C71.3135 84.726 71.1035 84.792 70.8755 84.792ZM80.058 84.27C79.722 84.27 79.422 84.156 79.158 83.928C78.906 83.7 78.78 83.328 78.78 82.812C78.78 82.536 78.816 82.146 78.888 81.642C78.972 81.138 79.08 80.592 79.212 80.004C79.344 79.404 79.488 78.81 79.644 78.222C79.812 77.634 79.974 77.112 80.13 76.656C80.286 76.188 80.424 75.84 80.544 75.612C80.7 75.336 80.844 75.168 80.976 75.108C81.12 75.036 81.258 75 81.39 75C81.63 75 81.852 75.072 82.056 75.216C82.272 75.36 82.38 75.678 82.38 76.17C82.38 76.362 82.344 76.674 82.272 77.106C82.2 77.526 82.11 78.018 82.002 78.582C81.894 79.146 81.774 79.728 81.642 80.328C81.522 80.928 81.402 81.498 81.282 82.038C81.174 82.566 81.084 83.01 81.012 83.37C80.952 83.67 80.826 83.892 80.634 84.036C80.454 84.192 80.262 84.27 80.058 84.27ZM82.128 73.218C81.732 73.218 81.366 73.104 81.03 72.876C80.694 72.636 80.526 72.27 80.526 71.778C80.526 71.37 80.628 71.04 80.832 70.788C81.036 70.536 81.276 70.356 81.552 70.248C81.84 70.128 82.092 70.068 82.308 70.068C82.524 70.068 82.764 70.116 83.028 70.212C83.292 70.296 83.52 70.458 83.712 70.698C83.916 70.926 84.018 71.256 84.018 71.688C84.018 71.976 83.916 72.24 83.712 72.48C83.508 72.708 83.256 72.888 82.956 73.02C82.668 73.152 82.392 73.218 82.128 73.218ZM87.4375 84.612C86.6935 84.612 86.0935 84.354 85.6375 83.838C85.1815 83.31 84.9535 82.464 84.9535 81.3C84.9535 80.556 85.0375 79.812 85.2055 79.068C85.3855 78.312 85.6315 77.598 85.9435 76.926C86.2675 76.242 86.6395 75.636 87.0595 75.108C87.4915 74.58 87.9655 74.166 88.4815 73.866C88.9975 73.554 89.5315 73.398 90.0835 73.398C91.0195 73.398 91.7515 73.65 92.2795 74.154C92.8075 74.658 93.0715 75.3 93.0715 76.08C93.0715 76.68 92.9035 77.226 92.5675 77.718C92.2435 78.198 91.7995 78.63 91.2355 79.014C90.6715 79.398 90.0415 79.746 89.3455 80.058C88.6495 80.37 87.9355 80.652 87.2035 80.904C87.1435 81.336 87.1135 81.72 87.1135 82.056C87.1135 82.26 87.2275 82.362 87.4555 82.362C87.9955 82.362 88.5715 82.278 89.1835 82.11C89.8075 81.93 90.4375 81.702 91.0735 81.426C91.7095 81.138 92.3215 80.844 92.9095 80.544C93.4975 80.232 94.0315 79.938 94.5115 79.662C95.0035 79.374 95.4055 79.146 95.7175 78.978C96.0415 78.798 96.2515 78.708 96.3475 78.708C96.6115 78.708 96.8035 78.786 96.9235 78.942C97.0435 79.098 97.1035 79.266 97.1035 79.446C97.1035 79.53 96.9415 79.716 96.6175 80.004C96.3055 80.292 95.8735 80.634 95.3215 81.03C94.7815 81.414 94.1695 81.816 93.4855 82.236C92.8135 82.644 92.1115 83.034 91.3795 83.406C90.6595 83.766 89.9575 84.054 89.2735 84.27C88.6015 84.498 87.9895 84.612 87.4375 84.612ZM87.5095 79.302C88.0015 79.014 88.4875 78.714 88.9675 78.402C89.4595 78.078 89.8675 77.718 90.1915 77.322C90.5155 76.914 90.6775 76.44 90.6775 75.9C90.6775 75.744 90.6355 75.642 90.5515 75.594C90.4675 75.534 90.3475 75.504 90.1915 75.504C89.7715 75.504 89.3875 75.69 89.0395 76.062C88.7035 76.434 88.4035 76.914 88.1395 77.502C87.8875 78.078 87.6775 78.678 87.5095 79.302ZM37.1052 114.648C36.6132 114.648 36.2412 114.57 35.9892 114.414C35.7492 114.27 35.5872 114.102 35.5032 113.91C35.4312 113.718 35.3952 113.568 35.3952 113.46C35.3952 113.112 35.5512 112.824 35.8632 112.596C36.1872 112.356 36.5472 112.236 36.9432 112.236C37.3272 112.236 37.8012 112.182 38.3652 112.074C38.9412 111.954 39.5472 111.786 40.1832 111.57C40.8312 111.354 41.4492 111.084 42.0372 110.76C42.6372 110.436 43.1592 110.064 43.6032 109.644C44.0472 109.224 44.3532 108.762 44.5212 108.258C44.2572 108.21 43.9932 108.174 43.7292 108.15C43.4652 108.114 43.2012 108.096 42.9372 108.096C42.0492 108.096 41.1312 108.192 40.1832 108.384C39.2352 108.576 38.2932 108.762 37.3572 108.942C37.1292 108.99 36.9252 108.948 36.7452 108.816C36.7212 109.068 36.6972 109.302 36.6732 109.518C36.6612 109.722 36.6492 109.944 36.6372 110.184C36.6132 110.772 36.5592 111.228 36.4752 111.552C36.4032 111.864 36.3192 112.086 36.2232 112.218C36.1272 112.35 36.0252 112.428 35.9172 112.452C35.8092 112.476 35.7072 112.488 35.6112 112.488C35.5752 112.488 35.5512 112.488 35.5392 112.488C35.3232 112.488 35.1192 112.434 34.9272 112.326C34.7352 112.218 34.5792 111.996 34.4592 111.66C34.3392 111.312 34.2792 110.79 34.2792 110.094C34.2792 107.886 34.5192 106.014 34.9992 104.478C35.4912 102.93 36.1932 101.754 37.1052 100.95C38.0292 100.134 39.1332 99.726 40.4172 99.726C41.4252 99.726 42.2112 100.002 42.7752 100.554C43.3392 101.094 43.6212 101.874 43.6212 102.894C43.6212 103.41 43.5192 103.926 43.3152 104.442C43.1112 104.958 42.8232 105.468 42.4512 105.972C42.6792 105.924 42.9012 105.888 43.1172 105.864C43.3332 105.828 43.5372 105.81 43.7292 105.81C44.8572 105.81 45.6912 106.014 46.2312 106.422C46.7712 106.818 47.0412 107.352 47.0412 108.024C47.0412 108.696 46.8492 109.326 46.4652 109.914C46.0932 110.502 45.5952 111.042 44.9712 111.534C44.3592 112.014 43.6812 112.452 42.9372 112.848C42.1932 113.232 41.4492 113.562 40.7052 113.838C39.9612 114.102 39.2712 114.3 38.6352 114.432C37.9992 114.576 37.4892 114.648 37.1052 114.648ZM36.9612 106.962C37.0332 106.926 37.1112 106.902 37.1952 106.89C38.2752 106.71 39.1032 106.464 39.6792 106.152C40.2552 105.84 40.6512 105.45 40.8672 104.982C41.0832 104.514 41.1912 103.956 41.1912 103.308C41.1912 103.14 41.1672 102.96 41.1192 102.768C41.0712 102.576 40.9752 102.414 40.8312 102.282C40.6992 102.138 40.4952 102.066 40.2192 102.066C39.3072 102.066 38.5932 102.48 38.0772 103.308C37.5732 104.124 37.2012 105.342 36.9612 106.962ZM56.4313 114.81C56.1553 114.81 55.9033 114.696 55.6753 114.468C55.4593 114.252 55.3513 113.886 55.3513 113.37C55.3513 112.986 55.3813 112.452 55.4413 111.768C55.5133 111.072 55.6453 110.178 55.8373 109.086C55.4173 109.95 54.9793 110.718 54.5233 111.39C54.0673 112.062 53.6173 112.59 53.1733 112.974C52.7413 113.346 52.3273 113.532 51.9313 113.532C51.2953 113.532 50.7913 113.34 50.4193 112.956C50.0473 112.56 49.8613 111.822 49.8613 110.742C49.8613 110.226 49.9033 109.644 49.9873 108.996C50.0833 108.348 50.2033 107.7 50.3473 107.052C50.4913 106.404 50.6353 105.828 50.7793 105.324C50.9353 104.808 51.0733 104.424 51.1933 104.172C51.2893 103.956 51.4093 103.788 51.5533 103.668C51.7093 103.548 51.9073 103.488 52.1473 103.488C52.5313 103.488 52.8253 103.614 53.0293 103.866C53.2333 104.118 53.3353 104.376 53.3353 104.64C53.3353 104.844 53.2873 105.138 53.1913 105.522C53.1073 105.906 52.9993 106.332 52.8673 106.8C52.7473 107.268 52.6213 107.748 52.4893 108.24C52.3573 108.732 52.2433 109.194 52.1473 109.626C52.0633 110.058 52.0213 110.424 52.0213 110.724C52.0213 111.096 52.1653 111.282 52.4533 111.282C52.6213 111.282 52.8373 111.12 53.1013 110.796C53.3773 110.472 53.6653 110.04 53.9653 109.5C54.2773 108.948 54.5893 108.348 54.9013 107.7C55.2253 107.04 55.5193 106.374 55.7833 105.702C56.0593 105.018 56.2933 104.388 56.4853 103.812C56.6053 103.452 56.7673 103.2 56.9713 103.056C57.1753 102.912 57.4093 102.84 57.6733 102.84C58.0813 102.84 58.3933 102.954 58.6093 103.182C58.8373 103.41 58.9513 103.734 58.9513 104.154C58.9513 104.346 58.9213 104.67 58.8613 105.126C58.8013 105.582 58.7233 106.116 58.6273 106.728C58.5433 107.34 58.4413 107.988 58.3213 108.672C58.2013 109.356 58.0813 110.028 57.9613 110.688C57.8533 111.348 57.7453 111.954 57.6373 112.506C57.5293 113.046 57.4393 113.478 57.3673 113.802C57.2473 114.282 57.1033 114.57 56.9353 114.666C56.7673 114.762 56.5993 114.81 56.4313 114.81ZM61.9897 114.792C61.6897 114.792 61.4317 114.684 61.2157 114.468C61.0117 114.252 60.9097 113.94 60.9097 113.532C60.9097 113.352 60.9337 113.058 60.9817 112.65C61.0417 112.23 61.1137 111.75 61.1977 111.21C61.2937 110.67 61.3837 110.106 61.4677 109.518C61.5637 108.93 61.6417 108.372 61.7017 107.844C61.7737 107.316 61.8217 106.866 61.8457 106.494C61.8697 106.038 61.9897 105.714 62.2057 105.522C62.4217 105.318 62.6797 105.216 62.9797 105.216C63.2197 105.216 63.4357 105.276 63.6277 105.396C63.8317 105.504 63.9577 105.738 64.0057 106.098C64.0657 106.446 64.0717 106.95 64.0237 107.61C64.5517 106.65 65.0857 105.792 65.6257 105.036C66.1777 104.28 66.7537 103.68 67.3537 103.236C68.3497 102.48 69.2497 102.102 70.0537 102.102C70.5097 102.102 70.8097 102.204 70.9537 102.408C71.0977 102.612 71.1697 102.822 71.1697 103.038C71.1697 103.182 71.1337 103.314 71.0617 103.434C71.0017 103.554 70.8697 103.68 70.6657 103.812C70.4617 103.944 70.1497 104.118 69.7297 104.334C69.1657 104.622 68.6077 105 68.0557 105.468C67.5157 105.936 66.9757 106.536 66.4357 107.268C65.8957 108 65.3497 108.9 64.7977 109.968C64.2457 111.036 63.6757 112.308 63.0877 113.784C62.9797 114.192 62.8237 114.462 62.6197 114.594C62.4277 114.726 62.2177 114.792 61.9897 114.792ZM71.9823 114C71.6943 114 71.4063 113.904 71.1183 113.712C70.8423 113.508 70.6143 113.22 70.4343 112.848C70.2543 112.464 70.1643 112.002 70.1643 111.462C70.1643 110.742 70.2603 109.974 70.4523 109.158C70.6563 108.342 70.9023 107.526 71.1903 106.71C71.4783 105.894 71.7603 105.126 72.0363 104.406C72.1683 104.058 72.3303 103.824 72.5223 103.704C72.7143 103.572 72.9663 103.506 73.2783 103.506C73.9863 103.506 74.3403 103.86 74.3403 104.568C74.3403 104.688 74.2863 104.922 74.1783 105.27C74.0703 105.606 73.9263 106.02 73.7463 106.512C73.5783 107.004 73.3983 107.538 73.2063 108.114C73.0263 108.678 72.8583 109.254 72.7023 109.842C72.5583 110.418 72.4443 110.964 72.3603 111.48C72.6363 111.06 72.9423 110.538 73.2783 109.914C73.6263 109.278 73.9923 108.612 74.3763 107.916C74.7723 107.22 75.1683 106.572 75.5643 105.972C75.9603 105.36 76.3503 104.862 76.7343 104.478C77.1183 104.094 77.4843 103.902 77.8323 103.902C78.1323 103.902 78.4143 103.962 78.6783 104.082C78.9543 104.19 79.1943 104.406 79.3983 104.73C79.6023 105.042 79.7583 105.492 79.8663 106.08C79.9863 106.668 80.0463 107.442 80.0463 108.402C80.0463 108.882 80.0883 109.35 80.1723 109.806C80.2683 110.25 80.4243 110.622 80.6403 110.922C80.8563 111.21 81.1623 111.354 81.5583 111.354C82.2423 111.354 82.8543 111.228 83.3943 110.976C83.9343 110.724 84.4083 110.43 84.8163 110.094C85.2243 109.758 85.5663 109.464 85.8423 109.212C86.0103 109.044 86.1543 108.912 86.2743 108.816C86.4063 108.72 86.5143 108.672 86.5983 108.672C86.8503 108.672 87.0303 108.738 87.1383 108.87C87.2583 109.002 87.3183 109.182 87.3183 109.41C87.3183 109.53 87.2163 109.752 87.0123 110.076C86.8083 110.4 86.5203 110.772 86.1483 111.192C85.7883 111.6 85.3743 111.996 84.9063 112.38C84.4383 112.764 83.9343 113.082 83.3943 113.334C82.8543 113.586 82.3023 113.712 81.7383 113.712C80.7903 113.712 80.0043 113.544 79.3803 113.208C78.7683 112.86 78.3123 112.284 78.0123 111.48C77.7123 110.664 77.5623 109.554 77.5623 108.15C77.5623 108.114 77.5623 108.054 77.5623 107.97C77.5623 107.598 77.5563 107.268 77.5443 106.98C77.5443 106.692 77.5263 106.458 77.4903 106.278C77.2863 106.65 77.0403 107.094 76.7523 107.61C76.4763 108.126 76.1763 108.678 75.8523 109.266C75.5283 109.842 75.1923 110.412 74.8443 110.976C74.4963 111.528 74.1483 112.032 73.8003 112.488C73.4643 112.944 73.1403 113.31 72.8283 113.586C72.5163 113.862 72.2343 114 71.9823 114Z" fill="white"/>
</svg>
