<svg width="38" height="38" viewBox="0 0 38 38" fill="none" xmlns="http://www.w3.org/2000/svg">
<rect width="38" height="38" rx="19" fill="#4374D0"/>
<path d="M25 9.25H13C12.5367 9.25263 12.0931 9.43784 11.7655 9.76546C11.4378 10.0931 11.2526 10.5367 11.25 11V27C11.2526 27.4633 11.4378 27.9069 11.7655 28.2345C12.0931 28.5622 12.5367 28.7474 13 28.75H25C25.4633 28.7474 25.9069 28.5622 26.2345 28.2345C26.5622 27.9069 26.7474 27.4633 26.75 27V11C26.7474 10.5367 26.5622 10.0931 26.2345 9.76546C25.9069 9.43784 25.4633 9.25263 25 9.25ZM15 13.75H15.75V13C15.75 12.8011 15.829 12.6103 15.9697 12.4697C16.1103 12.329 16.3011 12.25 16.5 12.25C16.6989 12.25 16.8897 12.329 17.0303 12.4697C17.171 12.6103 17.25 12.8011 17.25 13V13.75H18C18.1989 13.75 18.3897 13.829 18.5303 13.9697C18.671 14.1103 18.75 14.3011 18.75 14.5C18.75 14.6989 18.671 14.8897 18.5303 15.0303C18.3897 15.171 18.1989 15.25 18 15.25H17.25V16C17.25 16.1989 17.171 16.3897 17.0303 16.5303C16.8897 16.671 16.6989 16.75 16.5 16.75C16.3011 16.75 16.1103 16.671 15.9697 16.5303C15.829 16.3897 15.75 16.1989 15.75 16V15.25H15C14.8011 15.25 14.6103 15.171 14.4697 15.0303C14.329 14.8897 14.25 14.6989 14.25 14.5C14.25 14.3011 14.329 14.1103 14.4697 13.9697C14.6103 13.829 14.8011 13.75 15 13.75ZM19 25.75H15C14.8011 25.75 14.6103 25.671 14.4697 25.5303C14.329 25.3897 14.25 25.1989 14.25 25C14.25 24.8011 14.329 24.6103 14.4697 24.4697C14.6103 24.329 14.8011 24.25 15 24.25H19C19.1989 24.25 19.3897 24.329 19.5303 24.4697C19.671 24.6103 19.75 24.8011 19.75 25C19.75 25.1989 19.671 25.3897 19.5303 25.5303C19.3897 25.671 19.1989 25.75 19 25.75ZM23 22.75H15C14.8011 22.75 14.6103 22.671 14.4697 22.5303C14.329 22.3897 14.25 22.1989 14.25 22C14.25 21.8011 14.329 21.6103 14.4697 21.4697C14.6103 21.329 14.8011 21.25 15 21.25H23C23.1989 21.25 23.3897 21.329 23.5303 21.4697C23.671 21.6103 23.75 21.8011 23.75 22C23.75 22.1989 23.671 22.3897 23.5303 22.5303C23.3897 22.671 23.1989 22.75 23 22.75ZM23 19.75H15C14.8011 19.75 14.6103 19.671 14.4697 19.5303C14.329 19.3897 14.25 19.1989 14.25 19C14.25 18.8011 14.329 18.6103 14.4697 18.4697C14.6103 18.329 14.8011 18.25 15 18.25H23C23.1989 18.25 23.3897 18.329 23.5303 18.4697C23.671 18.6103 23.75 18.8011 23.75 19C23.75 19.1989 23.671 19.3897 23.5303 19.5303C23.3897 19.671 23.1989 19.75 23 19.75Z" fill="white"/>
</svg>
