<svg width="38" height="38" viewBox="0 0 38 38" fill="none" xmlns="http://www.w3.org/2000/svg">
<rect width="38" height="38" rx="19" fill="#4374D0"/>
<g clip-path="url(#clip0_3739_72016)">
<path d="M10.9511 21.6055H8.96338C8.6739 21.6055 8.4375 21.8419 8.4375 22.1313V29.4743C8.4375 29.7638 8.6739 30.0002 8.96338 30.0002H10.9511C11.2406 30.0002 11.477 29.7638 11.477 29.4743V22.1313C11.477 21.8419 11.2406 21.6055 10.9511 21.6055Z" fill="white"/>
<path d="M29.3804 22.204C29.366 22.1847 29.3515 22.1654 29.3418 22.1461C29.0475 21.818 28.5506 21.7746 28.2032 22.0447C27.2383 22.8312 25.8296 23.9649 24.9177 24.7031C24.112 25.3447 23.1182 25.7162 22.0857 25.7548L19.6155 25.8369C19.162 25.8513 18.7375 25.6197 18.5059 25.229L18.2309 24.761C18.1585 24.6404 18.1103 24.5053 18.0813 24.3654C17.9559 23.6947 18.3949 23.0434 19.0655 22.918L21.6177 22.4355C22.0278 22.3535 22.3076 21.9676 22.2594 21.5526C22.2111 21.157 21.8734 20.8627 21.4778 20.8579C21.4633 20.8579 21.444 20.8579 21.4392 20.8579C21.4199 20.8579 21.3958 20.8579 21.3765 20.8579L17.9414 20.718C16.7497 20.6746 15.7221 20.9062 14.5063 21.4947L12.4414 22.4934V27.9934L14.1734 27.675C14.1782 27.6702 14.1831 27.6702 14.1879 27.6702C14.8585 27.5737 15.3024 27.5303 16.0309 27.564L21.2173 27.8053C22.8432 27.8728 24.4401 27.3373 25.6897 26.2952L29.2791 23.3184C29.612 23.0386 29.6554 22.5369 29.3804 22.204Z" fill="white"/>
<path d="M22.83 8C19.8774 8.00482 17.4892 10.3978 17.4844 13.3456C17.4844 13.3504 17.4844 13.3504 17.4844 13.3504C17.4844 16.3031 19.8822 18.6961 22.8348 18.6961C25.7874 18.6961 28.1804 16.2982 28.1804 13.3456C28.1804 10.393 25.7826 8 22.83 8ZM24.0699 11.8596H24.7164C24.9817 11.8596 25.1988 12.0768 25.1988 12.3421C25.1988 12.6075 24.9817 12.8246 24.7164 12.8246H24.0699C23.9734 13.2009 23.7804 13.5434 23.5054 13.8184C23.1436 14.1803 22.6611 14.3925 22.1497 14.4215L23.9686 16.1439C24.1616 16.3272 24.1712 16.6311 23.9879 16.8241C23.8046 17.0171 23.5006 17.0268 23.3076 16.8434L20.6107 14.2912C20.519 14.1996 20.4611 14.0741 20.4611 13.9439C20.4563 13.6737 20.6734 13.4566 20.9436 13.4518H22.0243C22.3234 13.4566 22.6129 13.3408 22.83 13.1285C22.9168 13.0368 22.9892 12.9355 23.0519 12.8246H20.9436C20.6782 12.8246 20.4611 12.6075 20.4611 12.3421C20.4611 12.0768 20.6782 11.8596 20.9436 11.8596H23.0519C22.8734 11.4737 22.4778 11.1842 22.0243 11.1842H20.9436C20.6782 11.1842 20.4611 10.9671 20.4611 10.7018C20.4611 10.4364 20.6782 10.2193 20.9436 10.2193H24.7164C24.9817 10.2193 25.1988 10.4364 25.1988 10.7018C25.1988 10.9671 24.9817 11.1842 24.7164 11.1842H23.7901C23.9252 11.3917 24.0168 11.6184 24.0699 11.8596Z" fill="white"/>
</g>
<defs>
<clipPath id="clip0_3739_72016">
<rect width="22" height="22" fill="white" transform="translate(8 8)"/>
</clipPath>
</defs>
</svg>
