<svg width="18" height="18" viewBox="0 0 18 18" fill="none" xmlns="http://www.w3.org/2000/svg">
<g clip-path="url(#clip0_3739_72031)">
<path d="M9 18C13.757 18 17.6133 13.9706 17.6133 9C17.6133 4.02944 13.757 0 9 0C4.24302 0 0.386719 4.02944 0.386719 9C0.386719 13.9706 4.24302 18 9 18Z" fill="#E88102"/>
<path d="M9 17.0508C13.7084 17.0508 17.5254 13.2338 17.5254 8.52539C17.5254 3.81695 13.7084 0 9 0C4.29156 0 0.474609 3.81695 0.474609 8.52539C0.474609 13.2338 4.29156 17.0508 9 17.0508Z" fill="#FDD835"/>
<path opacity="0.5" d="M12.4039 0.707031L1.18203 11.9254C0.805859 11.0641 0.570312 10.1289 0.5 9.14805L9.62305 0.0214844C10.6039 0.0953125 11.5391 0.330859 12.4039 0.707031Z" fill="white"/>
<path opacity="0.5" d="M16.4285 4.3418L4.81641 15.9539C4.09219 15.5461 3.43828 15.0363 2.86523 14.4422L14.9203 2.39062C15.5109 2.96016 16.0207 3.61758 16.4285 4.3418Z" fill="white"/>
<path opacity="0.5" d="M14.5719 2.0709L2.54844 14.0943C2.36211 13.8764 2.18281 13.6479 2.01758 13.4123L13.8898 1.54004C14.1254 1.70527 14.3539 1.88457 14.5719 2.0709Z" fill="white"/>
<path opacity="0.5" d="M17.2578 6.39805L6.87266 16.7832C6.55977 16.7023 6.25391 16.6039 5.95508 16.4914L16.966 5.48047C17.0785 5.7793 17.177 6.08516 17.2578 6.39805Z" fill="white"/>
<path opacity="0.5" d="M17.5254 8.52539C17.5254 8.58516 17.5254 8.64141 17.5219 8.70117C17.4305 4.07461 13.6512 0.351562 9 0.351562C4.34883 0.351562 0.569531 4.07461 0.478125 8.70117C0.478125 8.64141 0.474609 8.58516 0.474609 8.52539C0.474609 3.81797 4.29258 0 9 0C13.7074 0 17.5254 3.81797 17.5254 8.52539Z" fill="white"/>
<path opacity="0.5" d="M15.9258 8.89453C15.9258 12.5824 12.934 15.5742 9.24609 15.5742C7.17539 15.5742 5.32266 14.6285 4.0957 13.1484C5.31563 14.4668 7.05938 15.293 9 15.293C12.6879 15.293 15.6797 12.3012 15.6797 8.61328C15.6797 6.99609 15.1066 5.51602 14.1504 4.35938C15.2508 5.55117 15.9258 7.14375 15.9258 8.89453Z" fill="white"/>
<path d="M9 15.293C12.6891 15.293 15.6797 12.3024 15.6797 8.61328C15.6797 4.92419 12.6891 1.93359 9 1.93359C5.31091 1.93359 2.32031 4.92419 2.32031 8.61328C2.32031 12.3024 5.31091 15.293 9 15.293Z" fill="#F39E09"/>
<path d="M14.0625 4.25391C12.8918 3.24492 11.3695 2.63672 9.70312 2.63672C6.01523 2.63672 3.02344 5.62852 3.02344 9.31641C3.02344 10.9828 3.63164 12.5051 4.64062 13.6758C3.22031 12.4488 2.32031 10.6383 2.32031 8.61328C2.32031 4.92539 5.31211 1.93359 9 1.93359C11.0215 1.93359 12.8355 2.83359 14.0625 4.25391Z" fill="#E88102"/>
<path d="M12.2809 4.64062V4.11328L11.6691 4.64062H6.14609L5.72773 5.87812V6.40547H7.48203C8.0375 6.42305 8.41016 6.6375 8.60352 7.05234H6.0793L5.7207 7.89961V8.42695H8.65273C8.46992 8.99648 8.06914 9.28828 7.44688 9.29883H5.90703L5.91406 10.5574L8.90937 14.1328H11.3598V13.6055L10.9238 13.5L8.7125 10.7895C9.38047 10.5855 9.89727 10.2937 10.2594 9.91055C10.6215 9.52734 10.8535 9.03516 10.9555 8.43047H11.9152L12.2738 7.05586V6.52852L11.7676 7.05586H10.9695C10.9133 6.67266 10.7902 6.32461 10.5969 6.01875H11.9188L12.2809 4.64062Z" fill="#DB6704"/>
<path d="M11.9211 5.48789H10.5992C10.7891 5.79375 10.9156 6.1418 10.9719 6.525H12.2762L11.9176 7.89961H10.9578C10.8559 8.5043 10.6273 8.99648 10.2617 9.37969C9.89961 9.76289 9.38281 10.0547 8.71484 10.2586L11.3621 13.507V13.6055H8.91172L5.91992 10.0336L5.91289 8.775H7.45273C8.075 8.76094 8.47578 8.47266 8.65859 7.89961H5.72656L6.08516 6.525H8.60938C8.41953 6.11367 8.04336 5.8957 7.48789 5.87812H5.73359L6.15195 4.11328H12.2867L11.9211 5.48789Z" fill="#FDD835"/>
<path opacity="0.5" d="M6.07812 6.52539H6.58086L5.90234 7.20391L6.07812 6.52539Z" fill="white"/>
<path opacity="0.5" d="M8.99258 4.11328L7.22773 5.87812H5.72656L6.14492 4.11328H8.99258Z" fill="white"/>
<path opacity="0.5" d="M11.9223 5.48809H11.8203L11.9574 5.35449L11.9223 5.48809Z" fill="white"/>
<path opacity="0.5" d="M12.2727 6.525L11.9141 7.89961H10.9543C10.8559 8.5043 10.6238 8.99648 10.2582 9.37969C9.89609 9.76289 9.3793 10.0547 8.71133 10.2586L9.51992 11.2465L8.11367 12.6527L6.53516 10.7684L10.9402 6.36328C10.9508 6.41602 10.9613 6.46875 10.9684 6.52148L12.2727 6.525Z" fill="white"/>
<path opacity="0.5" d="M7.45039 8.775C7.64023 8.77148 7.8125 8.73984 7.96016 8.68359L6.23398 10.4098L5.91758 10.0336L5.91406 9.5168L6.65586 8.775H7.45039Z" fill="white"/>
<path opacity="0.5" d="M12.2809 4.11328L12.193 4.45078L11.1559 5.48789H10.6004C10.6742 5.60391 10.7375 5.72695 10.7902 5.85703L8.60703 8.04023C8.62461 7.99805 8.64219 7.94883 8.65625 7.90313H7.53125L11.3176 4.11328H12.2809Z" fill="white"/>
<path opacity="0.5" d="M10.8141 12.8389L10.0512 13.6053H8.90859L8.87695 13.5666L10.2727 12.1709L10.8141 12.8389Z" fill="white"/>
<path opacity="0.25" d="M14.5723 4.92539C10.248 6.44414 6.77461 9.78047 5.07305 14.0168C4.92539 13.9078 4.78125 13.7953 4.64062 13.6723C3.63164 12.5016 3.02344 10.9793 3.02344 9.31641C3.02344 5.62852 6.01523 2.63672 9.70312 2.63672C11.3695 2.63672 12.8918 3.24492 14.059 4.25391C14.2453 4.46836 14.4141 4.69336 14.5723 4.92539Z" fill="white"/>
</g>
<defs>
<clipPath id="clip0_3739_72031">
<rect width="18" height="18" fill="white"/>
</clipPath>
</defs>
</svg>
