<svg width="118" height="154" viewBox="0 0 118 154" fill="none" xmlns="http://www.w3.org/2000/svg">
<rect width="118" height="155" fill="#8CACE7"/>
<path d="M42.3902 49.626C42.1862 49.674 41.8442 49.734 41.3642 49.806C40.8842 49.866 40.3202 49.932 39.6722 50.004C39.4562 50.988 39.2402 51.924 39.0242 52.812C38.8202 53.7 38.6282 54.474 38.4482 55.134C38.3642 55.47 38.2502 55.698 38.1062 55.818C37.9742 55.95 37.8122 56.016 37.6202 56.016C37.3082 56.016 37.0622 55.902 36.8822 55.674C36.7142 55.458 36.6302 55.194 36.6302 54.882C36.6302 54.546 36.6902 53.958 36.8102 53.118C36.9422 52.278 37.1102 51.318 37.3142 50.238C36.4862 50.322 35.6462 50.394 34.7942 50.454C34.6382 51.198 34.4942 51.912 34.3622 52.596C34.2422 53.28 34.1342 53.904 34.0382 54.468C33.9542 54.912 33.8102 55.218 33.6062 55.386C33.4022 55.566 33.1982 55.656 32.9942 55.656C32.6702 55.656 32.4062 55.548 32.2022 55.332C32.0102 55.116 31.9142 54.774 31.9142 54.306C31.9142 54.102 31.9682 53.67 32.0762 53.01C32.1842 52.35 32.3222 51.558 32.4902 50.634C31.8422 50.682 31.2602 50.718 30.7442 50.742C30.2402 50.766 29.8442 50.778 29.5562 50.778C29.0402 50.778 28.7042 50.682 28.5482 50.49C28.3922 50.286 28.3142 50.028 28.3142 49.716C28.3142 49.548 28.4162 49.38 28.6202 49.212C28.8242 49.032 29.1542 48.888 29.6102 48.78C30.0422 48.684 30.5462 48.594 31.1222 48.51C31.6982 48.414 32.3102 48.33 32.9582 48.258C33.1502 47.31 33.3482 46.338 33.5522 45.342C32.9882 45.402 32.4722 45.45 32.0042 45.486C31.5482 45.522 31.1882 45.54 30.9242 45.54C30.4202 45.54 30.0662 45.492 29.8622 45.396C29.6582 45.3 29.5322 45.186 29.4842 45.054C29.4482 44.922 29.4302 44.79 29.4302 44.658C29.4302 44.646 29.4302 44.64 29.4302 44.64C29.4302 44.508 29.5802 44.328 29.8802 44.1C30.1922 43.872 30.7862 43.644 31.6622 43.416C31.9982 43.332 32.3642 43.248 32.7602 43.164C33.1682 43.08 33.6062 42.996 34.0742 42.912C34.2062 42.312 34.3322 41.748 34.4522 41.22C34.5722 40.68 34.6862 40.194 34.7942 39.762C34.8782 39.45 35.0222 39.198 35.2262 39.006C35.4302 38.814 35.6342 38.718 35.8382 38.718C36.1142 38.718 36.3602 38.868 36.5762 39.168C36.7922 39.456 36.9002 39.762 36.9002 40.086C36.9002 40.158 36.8522 40.422 36.7562 40.878C36.6722 41.322 36.5582 41.892 36.4142 42.588C36.8102 42.552 37.2182 42.516 37.6382 42.48C38.0582 42.444 38.4902 42.414 38.9342 42.39C39.1502 41.382 39.3302 40.602 39.4742 40.05C39.5342 39.786 39.6482 39.57 39.8162 39.402C39.9962 39.234 40.2002 39.15 40.4282 39.15C40.5962 39.15 40.7642 39.222 40.9322 39.366C41.1002 39.498 41.2382 39.66 41.3462 39.852C41.4662 40.044 41.5262 40.23 41.5262 40.41C41.5262 40.542 41.5022 40.77 41.4542 41.094C41.4062 41.418 41.3402 41.82 41.2562 42.3C41.6042 42.288 41.9522 42.282 42.3002 42.282C42.8282 42.282 43.2242 42.354 43.4882 42.498C43.7642 42.63 43.9502 42.786 44.0462 42.966C44.1542 43.146 44.2082 43.296 44.2082 43.416C44.2082 43.608 44.1302 43.788 43.9742 43.956C43.8182 44.112 43.5422 44.196 43.1462 44.208C43.0022 44.208 42.7262 44.232 42.3182 44.28C41.9102 44.328 41.4182 44.388 40.8422 44.46C40.6502 45.468 40.4282 46.548 40.1762 47.7C40.3442 47.7 40.5002 47.7 40.6442 47.7C41.3162 47.7 41.8382 47.73 42.2102 47.79C42.5822 47.85 42.8462 47.928 43.0022 48.024C43.1702 48.12 43.2662 48.228 43.2902 48.348C43.3262 48.456 43.3442 48.558 43.3442 48.654C43.3442 48.678 43.3442 48.696 43.3442 48.708C43.3442 48.864 43.2782 49.032 43.1462 49.212C43.0262 49.392 42.7742 49.53 42.3902 49.626ZM37.7822 47.808C37.8902 47.292 37.9922 46.782 38.0882 46.278C38.1962 45.762 38.3042 45.258 38.4122 44.766C38.0042 44.814 37.5842 44.868 37.1522 44.928C36.7322 44.976 36.3122 45.024 35.8922 45.072C35.7962 45.54 35.6942 46.02 35.5862 46.512C35.4902 47.004 35.3882 47.502 35.2802 48.006C36.1442 47.922 36.9782 47.856 37.7822 47.808ZM48.6975 54.936C48.2175 54.936 47.7255 54.876 47.2215 54.756C46.7295 54.648 46.2795 54.498 45.8715 54.306C45.4635 54.126 45.1335 53.934 44.8815 53.73C44.6295 53.514 44.5035 53.31 44.5035 53.118C44.5035 52.902 44.5755 52.71 44.7195 52.542C44.8635 52.374 45.1335 52.29 45.5295 52.29C45.6735 52.29 45.8835 52.314 46.1595 52.362C46.4475 52.398 46.7475 52.44 47.0595 52.488C47.3835 52.536 47.6535 52.56 47.8695 52.56C49.0695 52.56 50.1255 52.374 51.0375 52.002C51.9615 51.618 52.7295 51.114 53.3415 50.49C53.9655 49.854 54.4395 49.17 54.7635 48.438C54.2715 48.822 53.7195 49.146 53.1075 49.41C52.5075 49.674 51.9135 49.806 51.3255 49.806C50.4375 49.806 49.7355 49.554 49.2195 49.05C48.7155 48.534 48.4635 47.802 48.4635 46.854C48.4635 46.242 48.5655 45.63 48.7695 45.018C48.9735 44.394 49.2495 43.8 49.5975 43.236C49.9575 42.672 50.3595 42.174 50.8035 41.742C51.2595 41.298 51.7335 40.95 52.2255 40.698C52.7295 40.446 53.2215 40.32 53.7015 40.32C54.3615 40.32 54.9855 40.554 55.5735 41.022C56.1615 41.478 56.6355 42.186 56.9955 43.146C57.3675 44.094 57.5535 45.306 57.5535 46.782C57.5535 47.478 57.4215 48.21 57.1575 48.978C56.8935 49.734 56.5095 50.466 56.0055 51.174C55.5015 51.882 54.8895 52.518 54.1695 53.082C53.4495 53.646 52.6275 54.096 51.7035 54.432C50.7915 54.768 49.7895 54.936 48.6975 54.936ZM55.2855 45.918C55.2735 44.97 55.1475 44.202 54.9075 43.614C54.6795 43.026 54.2655 42.732 53.6655 42.732C53.3535 42.732 53.0235 42.876 52.6755 43.164C52.3395 43.452 52.0215 43.83 51.7215 44.298C51.4335 44.754 51.1935 45.24 51.0015 45.756C50.8215 46.272 50.7315 46.758 50.7315 47.214C50.7315 47.406 50.8035 47.502 50.9475 47.502C51.5235 47.502 52.0815 47.406 52.6215 47.214C53.1735 47.01 53.6775 46.782 54.1335 46.53C54.6015 46.278 54.9855 46.074 55.2855 45.918ZM63.2315 55.404C62.7755 55.404 62.3675 55.278 62.0075 55.026C61.6595 54.786 61.4855 54.426 61.4855 53.946C61.4855 53.502 61.6175 53.184 61.8815 52.992C62.1455 52.788 62.4995 52.686 62.9435 52.686C63.1235 52.686 63.3035 52.71 63.4835 52.758C63.6635 52.794 63.9995 52.842 64.4915 52.902C65.3195 52.482 66.0515 52.074 66.6875 51.678C67.3235 51.27 67.8215 50.868 68.1815 50.472C68.5415 50.064 68.7215 49.65 68.7215 49.23C68.7215 48.834 68.5655 48.6 68.2535 48.528C67.9535 48.444 67.5875 48.396 67.1555 48.384C67.1075 48.384 67.0535 48.384 66.9935 48.384C66.9455 48.372 66.8915 48.366 66.8315 48.366C66.2195 48.33 65.6435 48.258 65.1035 48.15C64.5755 48.03 64.1435 47.82 63.8075 47.52C63.4715 47.208 63.3035 46.746 63.3035 46.134C63.3035 45.45 63.3935 44.778 63.5735 44.118C63.7535 43.446 63.9815 42.828 64.2575 42.264C64.1495 42.168 64.0835 42.054 64.0595 41.922C64.0475 41.778 64.0415 41.634 64.0415 41.49C64.0415 41.346 64.1495 41.202 64.3655 41.058C64.5815 40.914 64.8755 40.77 65.2475 40.626C65.5595 40.206 65.8595 39.876 66.1475 39.636C66.4355 39.384 66.6635 39.258 66.8315 39.258C67.0355 39.258 67.2155 39.324 67.3715 39.456C67.5395 39.588 67.6655 39.756 67.7495 39.96C68.4695 39.816 69.2195 39.702 69.9995 39.618C70.7915 39.534 71.5595 39.492 72.3035 39.492C72.7355 39.492 73.1255 39.528 73.4735 39.6C73.8335 39.66 74.1155 39.786 74.3195 39.978C74.5355 40.158 74.6435 40.44 74.6435 40.824C74.6435 41.148 74.5355 41.388 74.3195 41.544C74.1155 41.688 73.8395 41.766 73.4915 41.778C72.7955 41.79 72.0515 41.844 71.2595 41.94C70.4675 42.036 69.6875 42.144 68.9195 42.264C68.1635 42.372 67.4855 42.456 66.8855 42.516C66.6935 42.864 66.5075 43.224 66.3275 43.596C66.1595 43.956 66.0155 44.292 65.8955 44.604C65.7875 44.916 65.7335 45.168 65.7335 45.36C65.7335 45.696 65.8775 45.9 66.1655 45.972C66.4535 46.044 66.7955 46.092 67.1915 46.116C67.6595 46.152 68.1275 46.212 68.5955 46.296C69.0635 46.368 69.4895 46.5 69.8735 46.692C70.2695 46.884 70.5875 47.172 70.8275 47.556C71.0675 47.928 71.1875 48.426 71.1875 49.05C71.1875 49.638 71.0195 50.232 70.6835 50.832C70.3595 51.432 69.9155 52.008 69.3515 52.56C68.7995 53.1 68.1755 53.58 67.4795 54C66.7955 54.432 66.0815 54.774 65.3375 55.026C64.6055 55.278 63.9035 55.404 63.2315 55.404ZM84.5801 55.314C83.7641 55.314 83.0081 55.14 82.3121 54.792C81.6161 54.456 80.9801 54.012 80.4041 53.46C79.8281 52.896 79.3121 52.284 78.8561 51.624C78.4121 50.952 78.0341 50.292 77.7221 49.644C77.5781 50.304 77.4461 50.868 77.3261 51.336C77.2181 51.804 77.1281 52.194 77.0561 52.506C76.9961 52.746 76.9301 52.98 76.8581 53.208C76.7981 53.436 76.7021 53.622 76.5701 53.766C76.4381 53.91 76.2521 53.982 76.0121 53.982C75.4961 53.982 75.1661 53.808 75.0221 53.46C74.8781 53.1 74.8061 52.644 74.8061 52.092C74.8061 51.6 74.8841 50.952 75.0401 50.148C75.2081 49.344 75.4301 48.444 75.7061 47.448C75.9821 46.452 76.3001 45.426 76.6601 44.37C77.0321 43.302 77.4281 42.264 77.8481 41.256C78.2681 40.236 78.6881 39.312 79.1081 38.484C79.3721 37.98 79.6061 37.662 79.8101 37.53C80.0141 37.386 80.2541 37.314 80.5301 37.314C80.8061 37.314 81.0161 37.386 81.1601 37.53C81.3041 37.674 81.3761 37.866 81.3761 38.106C81.3761 38.262 81.3401 38.418 81.2681 38.574C81.1961 38.73 81.1181 38.922 81.0341 39.15C80.7581 39.762 80.4701 40.476 80.1701 41.292C79.8701 42.096 79.5821 42.93 79.3061 43.794C79.0301 44.646 78.7841 45.456 78.5681 46.224C79.1561 45.876 79.8101 45.54 80.5301 45.216C81.2501 44.88 81.9761 44.58 82.7081 44.316C83.4521 44.04 84.1481 43.824 84.7961 43.668C85.4441 43.512 85.9901 43.434 86.4341 43.434C86.7821 43.434 87.0461 43.536 87.2261 43.74C87.4061 43.944 87.4961 44.166 87.4961 44.406C87.4961 44.586 87.4421 44.766 87.3341 44.946C87.2261 45.126 86.9981 45.282 86.6501 45.414C85.4981 45.798 84.3521 46.188 83.2121 46.584C82.0841 46.98 80.8301 47.448 79.4501 47.988C79.7381 48.552 80.0741 49.134 80.4581 49.734C80.8421 50.322 81.2561 50.874 81.7001 51.39C82.1441 51.894 82.6001 52.308 83.0681 52.632C83.5361 52.944 83.9981 53.1 84.4541 53.1C85.1261 53.1 85.7741 52.968 86.3981 52.704C87.0221 52.428 87.5981 52.098 88.1261 51.714C88.6541 51.318 89.1161 50.934 89.5121 50.562C89.9201 50.19 90.2381 49.902 90.4661 49.698C90.5981 49.566 90.7241 49.47 90.8441 49.41C90.9761 49.35 91.1381 49.32 91.3301 49.32C91.5581 49.32 91.7321 49.392 91.8521 49.536C91.9841 49.668 92.0441 49.842 92.0321 50.058C92.0201 50.262 91.9181 50.466 91.7261 50.67C91.5701 50.838 91.3241 51.108 90.9881 51.48C90.6641 51.84 90.2681 52.242 89.8001 52.686C89.3441 53.118 88.8341 53.538 88.2701 53.946C87.7181 54.342 87.1301 54.666 86.5061 54.918C85.8821 55.182 85.2401 55.314 84.5801 55.314ZM18.6489 84.702C18.1689 84.702 17.8089 84.57 17.5689 84.306C17.3289 84.042 17.2089 83.772 17.2089 83.496C17.2089 83.172 17.2689 82.926 17.3889 82.758C17.5089 82.59 17.7429 82.464 18.0909 82.38C18.5469 82.284 19.0209 82.164 19.5129 82.02C20.0169 81.876 20.4969 81.726 20.9529 81.57C21.4209 81.402 21.8289 81.234 22.1769 81.066C22.5249 80.886 22.7769 80.718 22.9329 80.562C22.7409 80.454 22.4349 80.328 22.0149 80.184C21.5949 80.028 21.1269 79.848 20.6109 79.644C20.1069 79.428 19.6209 79.176 19.1529 78.888C18.6849 78.6 18.3009 78.264 18.0009 77.88C17.7009 77.496 17.5509 77.058 17.5509 76.566C17.5509 75.882 17.7249 75.24 18.0729 74.64C18.4209 74.04 18.8829 73.482 19.4589 72.966C20.0349 72.45 20.6589 71.976 21.3309 71.544C22.0149 71.112 22.6929 70.722 23.3649 70.374C24.0489 70.014 24.6609 69.696 25.2009 69.42C25.4049 69.3 25.5969 69.222 25.7769 69.186C25.9689 69.138 26.1429 69.114 26.2989 69.114C26.8389 69.114 27.2109 69.246 27.4149 69.51C27.6189 69.774 27.7209 70.044 27.7209 70.32C27.7209 70.512 27.6309 70.74 27.4509 71.004C27.2709 71.256 26.9829 71.49 26.5869 71.706C26.2029 71.922 25.6929 72.078 25.0569 72.174C24.9489 72.186 24.8529 72.198 24.7689 72.21C24.2889 72.45 23.7729 72.738 23.2209 73.074C22.6689 73.41 22.1469 73.764 21.6549 74.136C21.1749 74.496 20.7789 74.856 20.4669 75.216C20.1549 75.576 19.9989 75.9 19.9989 76.188C19.9989 76.512 20.1309 76.806 20.3949 77.07C20.6589 77.322 20.9949 77.556 21.4029 77.772C21.8229 77.976 22.2609 78.174 22.7169 78.366C23.1849 78.558 23.6229 78.756 24.0309 78.96C24.4509 79.152 24.7929 79.368 25.0569 79.608C25.3209 79.848 25.4529 80.118 25.4529 80.418C25.4529 80.826 25.3149 81.216 25.0389 81.588C24.7629 81.96 24.4029 82.308 23.9589 82.632C23.5149 82.944 23.0289 83.226 22.5009 83.478C21.9729 83.73 21.4509 83.946 20.9349 84.126C20.4309 84.318 19.9749 84.462 19.5669 84.558C19.1589 84.654 18.8529 84.702 18.6489 84.702ZM40.9872 74.928C40.9872 75.072 40.9392 75.198 40.8432 75.306C40.7472 75.414 40.6272 75.498 40.4832 75.558C40.2792 75.642 39.9252 75.75 39.4212 75.882C38.9172 76.014 38.3052 76.164 37.5852 76.332C36.8772 76.5 36.1152 76.674 35.2992 76.854C34.4832 77.022 33.6672 77.184 32.8512 77.34C32.5392 78.492 32.2212 79.68 31.8972 80.904C31.5732 82.116 31.2492 83.31 30.9252 84.486C30.8052 84.906 30.6612 85.224 30.4932 85.44C30.3252 85.668 30.0372 85.782 29.6292 85.782C29.1852 85.782 28.8852 85.638 28.7292 85.35C28.5852 85.074 28.5672 84.696 28.6752 84.216C28.9872 82.908 29.2752 81.69 29.5392 80.562C29.8152 79.434 30.0372 78.522 30.2052 77.826C29.4852 77.946 28.8552 78.042 28.3152 78.114C27.7752 78.174 27.3912 78.198 27.1632 78.186C26.9112 78.162 26.7012 78.06 26.5332 77.88C26.3652 77.7 26.2872 77.478 26.2992 77.214C26.3232 76.974 26.4312 76.77 26.6232 76.602C26.8152 76.422 27.0432 76.314 27.3072 76.278C27.6792 76.242 28.1592 76.188 28.7472 76.116C29.3352 76.044 29.9832 75.96 30.6912 75.864C30.8472 75.252 31.0272 74.622 31.2312 73.974C31.4352 73.314 31.6452 72.684 31.8612 72.084C32.0892 71.472 32.3052 70.938 32.5092 70.482C32.7132 70.026 32.8992 69.696 33.0672 69.492C33.1992 69.336 33.3612 69.216 33.5532 69.132C33.7572 69.048 33.9552 69.006 34.1472 69.006C34.3992 69.006 34.6032 69.096 34.7592 69.276C34.9152 69.456 34.9932 69.666 34.9932 69.906C34.9932 70.002 34.9872 70.104 34.9752 70.212C34.9632 70.308 34.9392 70.404 34.9032 70.5C34.6752 71.1 34.4292 71.826 34.1652 72.678C33.9132 73.53 33.6492 74.466 33.3732 75.486C34.2732 75.354 35.1552 75.222 36.0192 75.09C36.8952 74.946 37.6872 74.814 38.3952 74.694C39.1152 74.562 39.6912 74.448 40.1232 74.352C40.3632 74.268 40.5672 74.286 40.7352 74.406C40.9032 74.514 40.9872 74.688 40.9872 74.928ZM41.3818 84.612C40.6378 84.612 40.0378 84.354 39.5818 83.838C39.1258 83.31 38.8978 82.464 38.8978 81.3C38.8978 80.556 38.9818 79.812 39.1498 79.068C39.3298 78.312 39.5758 77.598 39.8878 76.926C40.2118 76.242 40.5838 75.636 41.0038 75.108C41.4358 74.58 41.9098 74.166 42.4258 73.866C42.9418 73.554 43.4758 73.398 44.0278 73.398C44.9638 73.398 45.6958 73.65 46.2238 74.154C46.7518 74.658 47.0158 75.3 47.0158 76.08C47.0158 76.68 46.8478 77.226 46.5118 77.718C46.1878 78.198 45.7438 78.63 45.1798 79.014C44.6158 79.398 43.9858 79.746 43.2898 80.058C42.5938 80.37 41.8798 80.652 41.1478 80.904C41.0878 81.336 41.0578 81.72 41.0578 82.056C41.0578 82.26 41.1718 82.362 41.3998 82.362C41.9398 82.362 42.5158 82.278 43.1278 82.11C43.7518 81.93 44.3818 81.702 45.0178 81.426C45.6538 81.138 46.2658 80.844 46.8538 80.544C47.4418 80.232 47.9758 79.938 48.4558 79.662C48.9478 79.374 49.3498 79.146 49.6618 78.978C49.9858 78.798 50.1958 78.708 50.2918 78.708C50.5558 78.708 50.7478 78.786 50.8678 78.942C50.9878 79.098 51.0478 79.266 51.0478 79.446C51.0478 79.53 50.8858 79.716 50.5618 80.004C50.2498 80.292 49.8178 80.634 49.2658 81.03C48.7258 81.414 48.1138 81.816 47.4298 82.236C46.7578 82.644 46.0558 83.034 45.3238 83.406C44.6038 83.766 43.9018 84.054 43.2178 84.27C42.5458 84.498 41.9338 84.612 41.3818 84.612ZM41.4538 79.302C41.9458 79.014 42.4318 78.714 42.9118 78.402C43.4038 78.078 43.8118 77.718 44.1358 77.322C44.4598 76.914 44.6218 76.44 44.6218 75.9C44.6218 75.744 44.5798 75.642 44.4958 75.594C44.4118 75.534 44.2918 75.504 44.1358 75.504C43.7158 75.504 43.3318 75.69 42.9838 76.062C42.6478 76.434 42.3478 76.914 42.0838 77.502C41.8318 78.078 41.6218 78.678 41.4538 79.302ZM50.4809 89.778C50.1449 89.778 49.8809 89.658 49.6889 89.418C49.5089 89.19 49.4189 88.836 49.4189 88.356C49.4189 87.696 49.4789 86.91 49.5989 85.998C49.7189 85.086 49.8809 84.12 50.0849 83.1C50.2889 82.08 50.5109 81.078 50.7509 80.094C51.0389 78.966 51.3209 77.94 51.5969 77.016C51.8849 76.092 52.1729 75.354 52.4609 74.802C52.7609 74.238 53.0609 73.956 53.3609 73.956C53.6369 73.956 53.8769 74.058 54.0809 74.262C54.2969 74.454 54.4049 74.742 54.4049 75.126C54.4049 75.402 54.3329 75.798 54.1889 76.314C54.0449 76.818 53.8649 77.448 53.6489 78.204C54.0569 77.532 54.4769 76.872 54.9089 76.224C55.3529 75.576 55.8029 74.988 56.2589 74.46C56.7149 73.932 57.1589 73.512 57.5909 73.2C58.0229 72.888 58.4309 72.732 58.8149 72.732C59.2709 72.732 59.6729 72.864 60.0209 73.128C60.3809 73.392 60.6629 73.752 60.8669 74.208C61.0709 74.664 61.1729 75.18 61.1729 75.756C61.1729 76.824 60.9809 77.862 60.5969 78.87C60.2129 79.866 59.6789 80.76 58.9949 81.552C58.3229 82.344 57.5369 82.974 56.6369 83.442C55.7369 83.898 54.7649 84.126 53.7209 84.126C53.4209 84.126 53.1449 84.096 52.8929 84.036C52.6529 83.988 52.4309 83.928 52.2269 83.856C52.0829 84.624 51.9449 85.41 51.8129 86.214C51.6929 87.03 51.5669 87.888 51.4349 88.788C51.2909 89.448 50.9729 89.778 50.4809 89.778ZM58.9949 74.856C58.7309 74.856 58.3949 75.036 57.9869 75.396C57.5909 75.756 57.1589 76.23 56.6909 76.818C56.2229 77.394 55.7489 78.024 55.2689 78.708C54.8009 79.38 54.3509 80.04 53.9189 80.688C53.4989 81.336 53.1389 81.9 52.8389 82.38C53.7509 82.284 54.5549 82.044 55.2509 81.66C55.9469 81.264 56.5409 80.784 57.0329 80.22C57.5249 79.656 57.9209 79.062 58.2209 78.438C58.5329 77.802 58.7609 77.184 58.9049 76.584C59.0489 75.984 59.1209 75.462 59.1209 75.018C59.1209 74.91 59.0789 74.856 58.9949 74.856ZM65.2004 84.918C64.6844 84.918 64.3184 84.846 64.1024 84.702C63.8984 84.558 63.7964 84.348 63.7964 84.072C63.7964 83.832 63.8804 83.628 64.0484 83.46C64.2164 83.28 64.5884 83.1 65.1644 82.92C65.8364 82.716 66.4724 82.482 67.0724 82.218C67.6844 81.942 68.1824 81.642 68.5664 81.318C68.9624 80.994 69.1604 80.652 69.1604 80.292C69.1604 80.052 69.0764 79.878 68.9084 79.77C68.7524 79.662 68.5664 79.608 68.3504 79.608C68.1704 79.608 67.9064 79.638 67.5584 79.698C67.2224 79.746 66.8504 79.812 66.4424 79.896C66.0344 79.968 65.6384 80.034 65.2544 80.094C64.8824 80.142 64.5644 80.166 64.3004 80.166C63.6764 80.166 63.2144 80.028 62.9144 79.752C62.6144 79.464 62.4644 79.098 62.4644 78.654C62.4644 78.414 62.5904 78.084 62.8424 77.664C63.0944 77.244 63.4304 76.782 63.8504 76.278C64.2704 75.774 64.7384 75.27 65.2544 74.766C65.7704 74.262 66.2924 73.8 66.8204 73.38C67.3604 72.948 67.8704 72.606 68.3504 72.354C68.8304 72.09 69.2384 71.958 69.5744 71.958C69.9584 71.958 70.2644 72.078 70.4924 72.318C70.7324 72.558 70.8524 72.882 70.8524 73.29C70.8524 73.482 70.8344 73.692 70.7984 73.92C70.7624 74.136 70.6724 74.334 70.5284 74.514C70.3844 74.682 70.1624 74.802 69.8624 74.874C69.5624 74.946 69.1544 74.934 68.6384 74.838C68.2304 75.138 67.8044 75.468 67.3604 75.828C66.9284 76.176 66.5204 76.542 66.1364 76.926C65.7524 77.298 65.4344 77.664 65.1824 78.024C65.6264 77.88 66.1304 77.766 66.6944 77.682C67.2584 77.586 67.8284 77.538 68.4044 77.538C69.1004 77.538 69.6644 77.664 70.0964 77.916C70.5404 78.156 70.8644 78.48 71.0684 78.888C71.2844 79.296 71.3924 79.746 71.3924 80.238C71.3924 80.79 71.2124 81.342 70.8524 81.894C70.4924 82.446 70.0124 82.95 69.4124 83.406C68.8124 83.862 68.1464 84.228 67.4144 84.504C66.6824 84.78 65.9444 84.918 65.2004 84.918ZM83.0981 84.27C82.7621 84.27 82.4621 84.156 82.1981 83.928C81.9461 83.7 81.8201 83.328 81.8201 82.812C81.8201 82.536 81.8561 82.146 81.9281 81.642C82.0121 81.138 82.1201 80.592 82.2521 80.004C82.3841 79.404 82.5281 78.81 82.6841 78.222C82.8521 77.634 83.0141 77.112 83.1701 76.656C83.3261 76.188 83.4641 75.84 83.5841 75.612C83.7401 75.336 83.8841 75.168 84.0161 75.108C84.1601 75.036 84.2981 75 84.4301 75C84.6701 75 84.8921 75.072 85.0961 75.216C85.3121 75.36 85.4201 75.678 85.4201 76.17C85.4201 76.362 85.3841 76.674 85.3121 77.106C85.2401 77.526 85.1501 78.018 85.0421 78.582C84.9341 79.146 84.8141 79.728 84.6821 80.328C84.5621 80.928 84.4421 81.498 84.3221 82.038C84.2141 82.566 84.1241 83.01 84.0521 83.37C83.9921 83.67 83.8661 83.892 83.6741 84.036C83.4941 84.192 83.3021 84.27 83.0981 84.27ZM85.1681 73.218C84.7721 73.218 84.4061 73.104 84.0701 72.876C83.7341 72.636 83.5661 72.27 83.5661 71.778C83.5661 71.37 83.6681 71.04 83.8721 70.788C84.0761 70.536 84.3161 70.356 84.5921 70.248C84.8801 70.128 85.1321 70.068 85.3481 70.068C85.5641 70.068 85.8041 70.116 86.0681 70.212C86.3321 70.296 86.5601 70.458 86.7521 70.698C86.9561 70.926 87.0581 71.256 87.0581 71.688C87.0581 71.976 86.9561 72.24 86.7521 72.48C86.5481 72.708 86.2961 72.888 85.9961 73.02C85.7081 73.152 85.4321 73.218 85.1681 73.218ZM89.6385 84C89.3505 84 89.0625 83.904 88.7745 83.712C88.4985 83.508 88.2705 83.22 88.0905 82.848C87.9105 82.464 87.8205 82.002 87.8205 81.462C87.8205 80.742 87.9165 79.974 88.1085 79.158C88.3125 78.342 88.5585 77.526 88.8465 76.71C89.1345 75.894 89.4165 75.126 89.6925 74.406C89.8245 74.058 89.9865 73.824 90.1785 73.704C90.3705 73.572 90.6225 73.506 90.9345 73.506C91.6425 73.506 91.9965 73.86 91.9965 74.568C91.9965 74.688 91.9425 74.922 91.8345 75.27C91.7265 75.606 91.5825 76.02 91.4025 76.512C91.2345 77.004 91.0545 77.538 90.8625 78.114C90.6825 78.678 90.5145 79.254 90.3585 79.842C90.2145 80.418 90.1005 80.964 90.0165 81.48C90.2925 81.06 90.5985 80.538 90.9345 79.914C91.2825 79.278 91.6485 78.612 92.0325 77.916C92.4285 77.22 92.8245 76.572 93.2205 75.972C93.6165 75.36 94.0065 74.862 94.3905 74.478C94.7745 74.094 95.1405 73.902 95.4885 73.902C95.7885 73.902 96.0705 73.962 96.3345 74.082C96.6105 74.19 96.8505 74.406 97.0545 74.73C97.2585 75.042 97.4145 75.492 97.5225 76.08C97.6425 76.668 97.7025 77.442 97.7025 78.402C97.7025 78.882 97.7445 79.35 97.8285 79.806C97.9245 80.25 98.0805 80.622 98.2965 80.922C98.5125 81.21 98.8185 81.354 99.2145 81.354C99.8985 81.354 100.511 81.228 101.051 80.976C101.591 80.724 102.065 80.43 102.473 80.094C102.881 79.758 103.223 79.464 103.499 79.212C103.667 79.044 103.811 78.912 103.931 78.816C104.063 78.72 104.171 78.672 104.255 78.672C104.507 78.672 104.687 78.738 104.795 78.87C104.915 79.002 104.975 79.182 104.975 79.41C104.975 79.53 104.873 79.752 104.669 80.076C104.465 80.4 104.177 80.772 103.805 81.192C103.445 81.6 103.031 81.996 102.563 82.38C102.095 82.764 101.591 83.082 101.051 83.334C100.511 83.586 99.9585 83.712 99.3945 83.712C98.4465 83.712 97.6605 83.544 97.0365 83.208C96.4245 82.86 95.9685 82.284 95.6685 81.48C95.3685 80.664 95.2185 79.554 95.2185 78.15C95.2185 78.114 95.2185 78.054 95.2185 77.97C95.2185 77.598 95.2125 77.268 95.2005 76.98C95.2005 76.692 95.1825 76.458 95.1465 76.278C94.9425 76.65 94.6965 77.094 94.4085 77.61C94.1325 78.126 93.8325 78.678 93.5085 79.266C93.1845 79.842 92.8485 80.412 92.5005 80.976C92.1525 81.528 91.8045 82.032 91.4565 82.488C91.1205 82.944 90.7965 83.31 90.4845 83.586C90.1725 83.862 89.8905 84 89.6385 84ZM20.3522 115.386C20.1482 115.386 19.9622 115.356 19.7942 115.296C19.6382 115.248 19.5062 115.146 19.3982 114.99C18.9062 115.074 18.4202 115.14 17.9402 115.188C17.4602 115.236 17.0102 115.26 16.5902 115.26C16.2302 115.26 15.9482 115.17 15.7442 114.99C15.5402 114.822 15.4382 114.582 15.4382 114.27C15.4382 114.09 15.5402 113.886 15.7442 113.658C15.9482 113.43 16.3262 113.214 16.8782 113.01C17.4302 112.794 18.2342 112.626 19.2902 112.506C19.3742 111.942 19.5002 111.276 19.6682 110.508C19.8362 109.728 20.0402 108.9 20.2802 108.024C20.5202 107.136 20.8022 106.26 21.1262 105.396C20.6822 105.864 20.2142 106.26 19.7222 106.584C19.2422 106.908 18.7802 107.154 18.3362 107.322C17.9042 107.49 17.5322 107.574 17.2202 107.574C16.9682 107.574 16.7582 107.532 16.5902 107.448C16.4342 107.364 16.3562 107.208 16.3562 106.98C16.3562 106.692 16.4942 106.428 16.7702 106.188C17.0462 105.936 17.3462 105.69 17.6702 105.45C18.1622 105.078 18.6902 104.634 19.2542 104.118C19.8302 103.602 20.3642 103.05 20.8562 102.462C21.3602 101.874 21.7502 101.298 22.0262 100.734C22.1582 100.482 22.3022 100.284 22.4582 100.14C22.6142 99.984 22.8662 99.906 23.2142 99.906C23.5622 99.906 23.8142 100.062 23.9702 100.374C24.1262 100.674 24.2042 101.034 24.2042 101.454C24.2042 101.622 24.1562 101.97 24.0602 102.498C23.9642 103.014 23.8322 103.65 23.6642 104.406C23.4962 105.15 23.3102 105.972 23.1062 106.872C22.9022 107.76 22.6922 108.672 22.4762 109.608C22.2602 110.544 22.0562 111.45 21.8642 112.326C22.2602 112.314 22.6682 112.308 23.0882 112.308C23.5922 112.308 24.0302 112.35 24.4022 112.434C24.7742 112.518 24.9602 112.698 24.9602 112.974C24.9602 113.262 24.8342 113.478 24.5822 113.622C24.3422 113.754 24.0482 113.874 23.7002 113.982C23.3762 114.078 23.0102 114.18 22.6022 114.288C22.1942 114.408 21.7622 114.516 21.3062 114.612C21.1862 114.888 21.0422 115.086 20.8742 115.206C20.7062 115.326 20.5322 115.386 20.3522 115.386ZM30.5099 115.404C30.0539 115.404 29.6459 115.278 29.2859 115.026C28.9379 114.786 28.7639 114.426 28.7639 113.946C28.7639 113.502 28.8959 113.184 29.1599 112.992C29.4239 112.788 29.7779 112.686 30.2219 112.686C30.4019 112.686 30.5819 112.71 30.7619 112.758C30.9419 112.794 31.2779 112.842 31.7699 112.902C32.5979 112.482 33.3299 112.074 33.9659 111.678C34.6019 111.27 35.0999 110.868 35.4599 110.472C35.8199 110.064 35.9999 109.65 35.9999 109.23C35.9999 108.834 35.8439 108.6 35.5319 108.528C35.2319 108.444 34.8659 108.396 34.4339 108.384C34.3859 108.384 34.3319 108.384 34.2719 108.384C34.2239 108.372 34.1699 108.366 34.1099 108.366C33.4979 108.33 32.9219 108.258 32.3819 108.15C31.8539 108.03 31.4219 107.82 31.0859 107.52C30.7499 107.208 30.5819 106.746 30.5819 106.134C30.5819 105.45 30.6719 104.778 30.8519 104.118C31.0319 103.446 31.2599 102.828 31.5359 102.264C31.4279 102.168 31.3619 102.054 31.3379 101.922C31.3259 101.778 31.3199 101.634 31.3199 101.49C31.3199 101.346 31.4279 101.202 31.6439 101.058C31.8599 100.914 32.1539 100.77 32.5259 100.626C32.8379 100.206 33.1379 99.876 33.4259 99.636C33.7139 99.384 33.9419 99.258 34.1099 99.258C34.3139 99.258 34.4939 99.324 34.6499 99.456C34.8179 99.588 34.9439 99.756 35.0279 99.96C35.7479 99.816 36.4979 99.702 37.2779 99.618C38.0699 99.534 38.8379 99.492 39.5819 99.492C40.0139 99.492 40.4039 99.528 40.7519 99.6C41.1119 99.66 41.3939 99.786 41.5979 99.978C41.8139 100.158 41.9219 100.44 41.9219 100.824C41.9219 101.148 41.8139 101.388 41.5979 101.544C41.3939 101.688 41.1179 101.766 40.7699 101.778C40.0739 101.79 39.3299 101.844 38.5379 101.94C37.7459 102.036 36.9659 102.144 36.1979 102.264C35.4419 102.372 34.7639 102.456 34.1639 102.516C33.9719 102.864 33.7859 103.224 33.6059 103.596C33.4379 103.956 33.2939 104.292 33.1739 104.604C33.0659 104.916 33.0119 105.168 33.0119 105.36C33.0119 105.696 33.1559 105.9 33.4439 105.972C33.7319 106.044 34.0739 106.092 34.4699 106.116C34.9379 106.152 35.4059 106.212 35.8739 106.296C36.3419 106.368 36.7679 106.5 37.1519 106.692C37.5479 106.884 37.8659 107.172 38.1059 107.556C38.3459 107.928 38.4659 108.426 38.4659 109.05C38.4659 109.638 38.2979 110.232 37.9619 110.832C37.6379 111.432 37.1939 112.008 36.6299 112.56C36.0779 113.1 35.4539 113.58 34.7579 114C34.0739 114.432 33.3599 114.774 32.6159 115.026C31.8839 115.278 31.1819 115.404 30.5099 115.404ZM52.9698 115.098C52.6218 115.098 52.3458 115.002 52.1418 114.81C51.9498 114.63 51.8538 114.372 51.8538 114.036C51.8538 113.724 51.9378 113.46 52.1058 113.244C52.2738 113.016 52.5978 112.8 53.0778 112.596C53.1138 112.584 53.1498 112.572 53.1858 112.56C52.8858 112.5 52.6758 112.332 52.5558 112.056C52.4478 111.78 52.3938 111.462 52.3938 111.102C52.3938 110.898 52.4298 110.568 52.5018 110.112C52.5738 109.656 52.6638 109.134 52.7718 108.546C52.8798 107.958 52.9938 107.376 53.1138 106.8C53.2338 106.212 53.3358 105.696 53.4198 105.252C53.6478 104.232 53.9418 103.332 54.3018 102.552C54.6618 101.772 55.1478 101.166 55.7598 100.734C56.3718 100.29 57.1578 100.068 58.1178 100.068C58.8498 100.068 59.5698 100.224 60.2778 100.536C60.9978 100.836 61.6518 101.262 62.2398 101.814C62.8278 102.366 63.2958 103.014 63.6438 103.758C64.0038 104.502 64.1838 105.318 64.1838 106.206C64.1838 107.214 63.7878 108.228 62.9958 109.248C62.2038 110.268 61.0938 111.246 59.6658 112.182C58.2498 113.106 56.5938 113.94 54.6978 114.684C54.3858 114.804 54.1038 114.9 53.8518 114.972C53.6118 115.056 53.3178 115.098 52.9698 115.098ZM54.5178 112.038C56.2578 111.342 57.6618 110.676 58.7298 110.04C59.7978 109.404 60.5718 108.732 61.0518 108.024C61.5438 107.316 61.7898 106.512 61.7898 105.612C61.7898 105.108 61.6218 104.628 61.2858 104.172C60.9498 103.716 60.5178 103.35 59.9898 103.074C59.4618 102.786 58.9038 102.642 58.3158 102.642C57.6798 102.642 57.1698 102.9 56.7858 103.416C56.4018 103.92 56.0958 104.784 55.8678 106.008C55.7598 106.5 55.6458 107.034 55.5258 107.61C55.4178 108.174 55.3098 108.72 55.2018 109.248C55.1058 109.764 55.0218 110.196 54.9498 110.544C54.8898 110.892 54.8538 111.096 54.8418 111.156C54.7818 111.516 54.6738 111.81 54.5178 112.038ZM67.7085 114.684C67.3245 114.684 66.9765 114.576 66.6645 114.36C66.3525 114.156 66.1065 113.886 65.9265 113.55C65.7465 113.202 65.6565 112.83 65.6565 112.434C65.6565 111.69 65.8185 110.964 66.1425 110.256C66.4785 109.548 66.9165 108.876 67.4565 108.24C67.9965 107.604 68.5845 107.022 69.2205 106.494C69.8685 105.954 70.5105 105.492 71.1465 105.108C71.7945 104.724 72.3825 104.424 72.9105 104.208C73.4505 103.992 73.8705 103.884 74.1705 103.884C74.5185 103.884 74.8005 103.962 75.0165 104.118C75.2445 104.262 75.3585 104.49 75.3585 104.802C75.3585 104.898 75.3345 104.976 75.2865 105.036C75.4425 105.072 75.5685 105.162 75.6645 105.306C75.7605 105.45 75.8085 105.666 75.8085 105.954C75.8085 106.074 75.7785 106.386 75.7185 106.89C75.6585 107.394 75.5925 108.006 75.5205 108.726C75.4605 109.446 75.4305 110.196 75.4305 110.976C75.4305 111.096 75.4485 111.204 75.4845 111.3C75.5205 111.384 75.5985 111.426 75.7185 111.426C76.1985 111.426 76.6845 111.33 77.1765 111.138C77.6805 110.934 78.1665 110.688 78.6345 110.4C79.1145 110.1 79.5465 109.806 79.9305 109.518C80.3265 109.218 80.6565 108.972 80.9205 108.78C81.1965 108.576 81.3765 108.474 81.4605 108.474C81.8685 108.474 82.0725 108.678 82.0725 109.086C82.0725 109.194 81.9405 109.422 81.6765 109.77C81.4245 110.106 81.0765 110.496 80.6325 110.94C80.1885 111.372 79.6905 111.804 79.1385 112.236C78.5985 112.656 78.0345 113.004 77.4465 113.28C76.8705 113.556 76.3125 113.694 75.7725 113.694C75.1125 113.694 74.6085 113.538 74.2605 113.226C73.9245 112.914 73.6845 112.494 73.5405 111.966C73.4085 111.426 73.3365 110.82 73.3245 110.148C72.7125 111.024 72.0765 111.804 71.4165 112.488C70.7685 113.16 70.1265 113.694 69.4905 114.09C68.8545 114.486 68.2605 114.684 67.7085 114.684ZM74.0805 105.666C72.9045 106.23 71.8485 106.878 70.9125 107.61C69.9765 108.33 69.2325 109.086 68.6805 109.878C68.1405 110.67 67.8705 111.432 67.8705 112.164C67.8705 112.368 67.9665 112.47 68.1585 112.47C68.3865 112.47 68.6865 112.338 69.0585 112.074C69.4425 111.81 69.8565 111.462 70.3005 111.03C70.7445 110.586 71.1885 110.094 71.6325 109.554C72.0765 109.002 72.4905 108.438 72.8745 107.862C73.2585 107.286 73.5645 106.734 73.7925 106.206C73.8765 106.014 73.9725 105.834 74.0805 105.666ZM83.2968 118.95C82.6248 118.95 82.0128 118.908 81.4608 118.824C80.9088 118.752 80.3688 118.632 79.8408 118.464C79.3128 118.296 78.7428 118.074 78.1308 117.798C77.8788 117.678 77.6688 117.552 77.5008 117.42C77.3328 117.288 77.2488 117.09 77.2488 116.826C77.2488 116.442 77.3688 116.148 77.6088 115.944C77.8368 115.752 78.1548 115.656 78.5628 115.656C78.7788 115.656 79.0548 115.728 79.3908 115.872C79.7268 116.028 80.1108 116.202 80.5428 116.394C80.9868 116.598 81.4788 116.772 82.0188 116.916C82.5588 117.072 83.1408 117.15 83.7648 117.15C84.4008 117.15 84.9948 116.886 85.5468 116.358C86.0988 115.83 86.5428 115.086 86.8788 114.126C87.2268 113.178 87.4008 112.056 87.4008 110.76C87.4008 110.46 87.3948 110.136 87.3828 109.788C87.3708 109.428 87.3588 109.05 87.3468 108.654C86.9148 109.47 86.4468 110.232 85.9428 110.94C85.4388 111.648 84.9168 112.224 84.3768 112.668C83.8488 113.1 83.3148 113.316 82.7748 113.316C82.1148 113.316 81.6348 113.16 81.3348 112.848C81.0468 112.524 80.9028 112.014 80.9028 111.318C80.9028 110.73 80.9448 110.088 81.0288 109.392C81.1248 108.684 81.2508 107.97 81.4068 107.25C81.5628 106.53 81.7428 105.846 81.9468 105.198C82.1628 104.538 82.3908 103.968 82.6308 103.488C82.8108 103.14 83.0868 102.966 83.4588 102.966C83.6988 102.966 83.9388 103.08 84.1788 103.308C84.4308 103.536 84.5568 103.842 84.5568 104.226C84.5568 104.442 84.5028 104.754 84.3948 105.162C84.2868 105.57 84.1548 106.032 83.9988 106.548C83.8548 107.052 83.7048 107.586 83.5488 108.15C83.3928 108.702 83.2608 109.248 83.1528 109.788C83.0448 110.316 82.9908 110.796 82.9908 111.228C82.9908 111.276 83.0268 111.3 83.0988 111.3C83.2428 111.3 83.4348 111.18 83.6748 110.94C83.9268 110.688 84.2028 110.364 84.5028 109.968C84.8148 109.56 85.1268 109.116 85.4388 108.636C85.7628 108.144 86.0748 107.658 86.3748 107.178C86.6748 106.698 86.9448 106.26 87.1848 105.864C87.1488 105.672 87.1248 105.504 87.1128 105.36C87.1128 105.204 87.1128 105.072 87.1128 104.964C87.1128 104.472 87.1968 104.064 87.3648 103.74C87.5448 103.416 87.8928 103.254 88.4088 103.254C88.7448 103.254 89.0028 103.38 89.1828 103.632C89.3628 103.872 89.4528 104.214 89.4528 104.658C89.4528 104.85 89.4228 105.072 89.3628 105.324C89.3028 105.564 89.1828 105.948 89.0028 106.476L89.2008 105.918C89.3088 106.998 89.3988 107.958 89.4708 108.798C89.5548 109.638 89.5968 110.472 89.5968 111.3C89.5968 112.86 89.3328 114.21 88.8048 115.35C88.2888 116.502 87.5568 117.39 86.6088 118.014C85.6728 118.638 84.5688 118.95 83.2968 118.95ZM94.6526 114.918C94.1366 114.918 93.7706 114.846 93.5546 114.702C93.3506 114.558 93.2486 114.348 93.2486 114.072C93.2486 113.832 93.3326 113.628 93.5006 113.46C93.6686 113.28 94.0406 113.1 94.6166 112.92C95.2886 112.716 95.9246 112.482 96.5246 112.218C97.1366 111.942 97.6346 111.642 98.0186 111.318C98.4146 110.994 98.6126 110.652 98.6126 110.292C98.6126 110.052 98.5286 109.878 98.3606 109.77C98.2046 109.662 98.0186 109.608 97.8026 109.608C97.6226 109.608 97.3586 109.638 97.0106 109.698C96.6746 109.746 96.3026 109.812 95.8946 109.896C95.4866 109.968 95.0906 110.034 94.7066 110.094C94.3346 110.142 94.0166 110.166 93.7526 110.166C93.1286 110.166 92.6666 110.028 92.3666 109.752C92.0666 109.464 91.9166 109.098 91.9166 108.654C91.9166 108.414 92.0426 108.084 92.2946 107.664C92.5466 107.244 92.8826 106.782 93.3026 106.278C93.7226 105.774 94.1906 105.27 94.7066 104.766C95.2226 104.262 95.7446 103.8 96.2726 103.38C96.8126 102.948 97.3226 102.606 97.8026 102.354C98.2826 102.09 98.6906 101.958 99.0266 101.958C99.4106 101.958 99.7166 102.078 99.9446 102.318C100.185 102.558 100.305 102.882 100.305 103.29C100.305 103.482 100.287 103.692 100.251 103.92C100.215 104.136 100.125 104.334 99.9806 104.514C99.8366 104.682 99.6146 104.802 99.3146 104.874C99.0146 104.946 98.6066 104.934 98.0906 104.838C97.6826 105.138 97.2566 105.468 96.8126 105.828C96.3806 106.176 95.9726 106.542 95.5886 106.926C95.2046 107.298 94.8866 107.664 94.6346 108.024C95.0786 107.88 95.5826 107.766 96.1466 107.682C96.7106 107.586 97.2806 107.538 97.8566 107.538C98.5526 107.538 99.1166 107.664 99.5486 107.916C99.9926 108.156 100.317 108.48 100.521 108.888C100.737 109.296 100.845 109.746 100.845 110.238C100.845 110.79 100.665 111.342 100.305 111.894C99.9446 112.446 99.4646 112.95 98.8646 113.406C98.2646 113.862 97.5986 114.228 96.8666 114.504C96.1346 114.78 95.3966 114.918 94.6526 114.918Z" fill="white"/>
</svg>
