<svg width="9" height="12" viewBox="0 0 9 12" fill="none" xmlns="http://www.w3.org/2000/svg">
<path d="M4.5 0C3.30653 0 2.16193 0.442499 1.31802 1.23015C0.474106 2.0178 0 3.08609 0 4.2C0 5.628 0.765 6.882 1.92857 7.644V9C1.92857 9.15913 1.9963 9.31174 2.11686 9.42426C2.23742 9.53679 2.40093 9.6 2.57143 9.6H6.42857C6.59907 9.6 6.76258 9.53679 6.88314 9.42426C7.0037 9.31174 7.07143 9.15913 7.07143 9V7.644C8.235 6.882 9 5.628 9 4.2C9 3.08609 8.52589 2.0178 7.68198 1.23015C6.83807 0.442499 5.69347 0 4.5 0ZM2.57143 11.4C2.57143 11.5591 2.63916 11.7117 2.75972 11.8243C2.88028 11.9368 3.04379 12 3.21429 12H5.78571C5.95621 12 6.11972 11.9368 6.24028 11.8243C6.36084 11.7117 6.42857 11.5591 6.42857 11.4V10.8H2.57143V11.4Z" fill="#F7A500"/>
</svg>
