<svg width="174" height="138" viewBox="0 0 174 138" fill="none" xmlns="http://www.w3.org/2000/svg">
<g clip-path="url(#clip0_1502_67718)">
<path d="M106.672 137.785H122.21" stroke="#E9EAF0" stroke-width="1.5" stroke-linecap="round" stroke-linejoin="round"/>
<path d="M88.582 137.785H103.7" stroke="#E9EAF0" stroke-width="1.5" stroke-linecap="round" stroke-linejoin="round"/>
<path d="M83.4922 137.785H86.0181" stroke="#E9EAF0" stroke-width="1.5" stroke-linecap="round" stroke-linejoin="round"/>
<path d="M49.9081 104.177C66.5628 109.849 75.982 131.393 93.5792 132.093C120.297 133.158 124.65 117.712 138.21 102.699C146.049 94.0184 156.727 87.0345 164.255 80.3835C176.612 69.4669 178.242 53.9805 163.156 44.68C148.563 35.6838 130.151 41.023 114.085 37.676C80.3436 30.6461 70.1646 8.46274 44.7287 1.5448C21.5229 -4.77034 1.04887 8.81581 0.0744686 32.6727C-0.647631 41.4421 4.11707 49.9905 4.21857 58.9436C4.31717 67.5465 -0.978231 77.6364 1.04307 85.8777C7.29257 111.402 29.6545 97.2765 49.9081 104.174V104.177Z" fill="#FAFAFB"/>
<path d="M44.9565 111.278L44.8144 111.772C37.8776 107.965 34.1395 100.189 32.965 95.3352C31.7934 90.4783 28.6875 86.2988 28.6875 86.2988C28.6875 86.2988 31.9471 89.6028 33.6755 95.9323C35.401 102.259 40.3803 108.792 44.9594 111.278H44.9565Z" fill="#E4E5EC"/>
<path d="M59.4913 101.387H59.4884C55.962 102.957 44.9594 111.281 44.9594 111.281C40.3803 108.795 35.401 102.262 33.6755 95.9355C31.95 89.606 28.6875 86.302 28.6875 86.302C28.6875 86.302 32.385 86.2159 35.2009 84.8065C38.0168 83.3971 43.6457 81.1982 43.6457 81.1982C44.913 81.3992 46.1397 82.7742 47.1431 86.3967C48.1436 90.0165 49.553 93.2745 52.3457 96.745C55.1384 100.215 59.4942 101.387 59.4942 101.387H59.4913Z" fill="white"/>
<path d="M32.416 88.6069C32.416 88.6069 36.6529 87.4816 38.9584 86.5832C41.2639 85.6847 44.2625 84.2695 44.2625 84.2695C44.2625 84.2695 45.7647 88.0299 46.3302 89.2039C46.8957 90.378 47.4844 92.5079 47.4844 92.5079C47.4844 92.5079 45.5037 94.1527 43.0387 94.3508C40.5737 94.5488 36.7341 96.7993 36.7341 96.7993C36.7341 96.7993 34.3416 89.867 32.416 88.6069Z" fill="#E4E5EC"/>
<path d="M38.3767 100.244C38.3216 100.229 38.2723 100.192 38.2433 100.138C38.1824 100.031 38.223 99.8964 38.3303 99.8361C38.4376 99.7758 41.0041 98.3693 42.6716 97.8296C44.3333 97.29 45.5281 97.1034 45.5774 97.0948C45.6992 97.0747 45.8152 97.1579 45.8326 97.2814C45.8529 97.4019 45.7688 97.5168 45.6441 97.534C45.6325 97.534 44.4319 97.7234 42.8079 98.2516C41.1839 98.7798 38.571 100.209 38.5449 100.224C38.4898 100.252 38.4289 100.258 38.3738 100.244H38.3767Z" fill="#E4E5EC"/>
<path d="M40.9021 104.717C40.847 104.702 40.7977 104.665 40.7687 104.61C40.7078 104.504 40.7484 104.369 40.8557 104.309C40.963 104.249 43.5295 102.842 45.197 102.303C46.8587 101.763 48.0535 101.576 48.1028 101.568C48.2246 101.551 48.3406 101.631 48.358 101.754C48.3783 101.875 48.2942 101.99 48.1695 102.007C48.1579 102.007 46.9573 102.196 45.3333 102.725C43.7093 103.253 41.0964 104.682 41.0703 104.697C41.0152 104.725 40.9543 104.731 40.8992 104.717H40.9021Z" fill="#E4E5EC"/>
<path d="M39.6907 102.311C39.6414 102.297 39.595 102.265 39.5631 102.219C39.4964 102.116 39.5254 101.978 39.6298 101.912C39.7226 101.852 41.9179 100.459 44.2756 99.8451C46.5724 99.2451 48.295 98.3208 48.3124 98.3122C48.4226 98.2519 48.556 98.2921 48.6169 98.4012C48.6749 98.5074 48.6372 98.6452 48.527 98.7026C48.4545 98.7428 46.7406 99.6614 44.3887 100.276C42.1006 100.873 39.8937 102.271 39.8705 102.285C39.8125 102.322 39.7458 102.328 39.6878 102.311H39.6907Z" fill="#E4E5EC"/>
<path d="M42.2565 106.637C42.2014 106.62 42.1521 106.585 42.1202 106.531C42.0622 106.421 42.1028 106.287 42.2101 106.229C42.3145 106.172 44.8143 104.834 45.9946 104.461C46.1135 104.424 46.2382 104.487 46.2759 104.604C46.3136 104.722 46.2498 104.846 46.1309 104.883C44.9912 105.245 42.4508 106.605 42.4247 106.62C42.3696 106.648 42.3116 106.654 42.2565 106.637Z" fill="#E4E5EC"/>
<path d="M59.4885 101.387C59.358 101.476 55.1124 104.303 53.5783 105.687C52.021 107.09 44.8145 111.775 44.8145 111.775L44.9566 111.281C44.9566 111.281 55.9621 102.96 59.4856 101.39L59.4885 101.387Z" fill="#E4E5EC"/>
<path d="M98.7075 112.364C96.5412 114.103 95.764 117.508 95.5987 118.357C95.4595 119.086 94.9288 122.674 93.1801 124.345C92.8901 124.624 92.5682 124.847 92.2057 124.997C89.6682 126.05 87.6237 123.582 85.9446 122.364C84.2655 121.147 79.6052 120.702 77.8449 118.435C76.0846 116.167 77.8449 114.103 77.8449 114.103C78.6221 114.953 80.0547 116.006 80.0547 116.006C81.4844 115.602 83.4912 112.765 84.0625 109.493C84.6367 106.218 87.8847 104.467 87.8847 104.467C87.8847 104.467 90.1989 105.925 93.2265 107.504C96.2541 109.083 98.7075 112.364 98.7075 112.364Z" fill="white"/>
<path d="M93.1761 124.346C92.8861 124.624 92.5642 124.848 92.2017 124.997C89.6642 126.051 87.6197 123.582 85.9406 122.365C84.2615 121.148 79.6012 120.703 77.8409 118.435C76.0806 116.167 77.8409 114.104 77.8409 114.104C78.6181 114.953 80.0507 116.007 80.0507 116.007C80.0507 116.007 83.9367 119.368 89.0523 120.338C89.0523 120.338 88.6724 125.913 93.1761 124.343V124.346Z" fill="#E4E5EC"/>
<path d="M5.39062 19.5312L5.39933 19.5369C5.77343 19.8642 18.2898 30.7808 25.2672 28.6078C25.2672 28.6078 29.768 26.2367 31.6501 25.1689C33.5351 24.1039 35.5593 22.2065 35.5593 22.2065C35.5593 22.2065 32.3432 18.6471 29.8086 17.0568C27.274 15.4666 21.5204 10.8594 21.5204 10.8594C21.5204 10.8594 14.398 15.9488 11.2283 17.2578C8.06153 18.5667 5.39062 19.5283 5.39062 19.5283V19.5312Z" fill="white"/>
<path d="M5.39844 19.5371C5.77254 19.8643 18.2889 30.7809 25.2663 28.6079C20.9511 29.0098 20.6988 22.2813 20.6988 22.2813C20.6988 22.2813 9.71944 22.554 5.39844 19.5371Z" fill="#E4E5EC"/>
<path d="M2.83984 83.2965C2.83984 83.2965 10.4262 89.1782 11.6065 92.5511C11.6065 92.5511 22.2263 85.148 28.3308 82.7109L14.6022 84.3615L2.83984 83.2965Z" fill="#E4E5EC"/>
<path d="M2.83984 83.2966C2.83984 83.2966 9.78534 81.7121 14.347 77.6934C14.347 77.6934 22.3916 82.0623 28.3308 82.711C28.3308 82.711 19.0769 86.2532 11.9922 91.0298C11.9922 91.0298 8.03084 85.992 2.83984 83.2966Z" fill="white"/>
<path d="M55.7652 27.6666C55.7652 27.6666 57.5806 22.913 54.1499 16.0984C50.7192 9.2838 39.3889 2.85098 34.5981 1.68555C34.5981 1.68555 33.3221 5.80187 36.9268 13.4231C40.2241 20.3956 40.546 29.2396 57.3167 32.2135L55.7623 27.6666H55.7652Z" fill="#E9EAF0"/>
<path d="M39.0957 12.304L38.7738 12.571L39.116 12.3327L39.2871 12.215C39.3451 12.1777 39.4089 12.1519 39.4669 12.1174L39.8323 11.9222L40.2151 11.7644C40.7284 11.5663 41.262 11.4314 41.8072 11.3826C42.3495 11.3252 42.8976 11.328 43.437 11.3854C43.7067 11.4199 43.9793 11.4572 44.2432 11.5146C44.5042 11.5663 44.7739 11.6409 45.0088 11.7213L45.0204 11.727C45.0436 11.7357 45.1393 11.773 45.235 11.8074C46.221 12.8178 47.1896 13.8426 48.1321 14.8875C48.3989 15.1831 48.6628 15.4874 48.9238 15.7917C49.005 15.8864 49.0833 15.9783 49.1645 16.073C49.8808 16.9169 50.571 17.7838 51.2003 18.6823C51.6179 19.2851 51.992 19.9137 52.3342 20.5625C52.2385 20.5223 52.1428 20.4792 52.0442 20.4391C51.6208 20.2697 51.1858 20.1376 50.7421 20.0487C50.2955 19.9654 49.846 19.9195 49.3936 19.9166C49.2805 19.9166 49.1674 19.9252 49.0543 19.931C48.9412 19.9367 48.831 19.9367 48.7179 19.9568C48.4946 19.9855 48.2713 20.0142 48.0567 20.0487C47.1954 20.1836 46.3196 20.2553 45.4438 20.2927C44.5651 20.3271 43.6864 20.33 42.8077 20.2783C43.6835 20.3759 44.5622 20.4218 45.4438 20.4333C46.3254 20.4419 47.2099 20.4161 48.0915 20.3242C48.3119 20.2984 48.5265 20.284 48.7411 20.2697C48.8484 20.2582 48.9557 20.2611 49.063 20.2639C49.1674 20.2639 49.2747 20.2611 49.382 20.2697C49.8083 20.2927 50.2317 20.3587 50.6464 20.4591C51.0582 20.5654 51.4584 20.7118 51.8441 20.8897C52.0355 20.9787 52.224 21.0792 52.4038 21.1854C52.5285 21.26 52.6561 21.3404 52.7692 21.4236C53.0157 21.9288 53.2477 22.4427 53.4739 22.9565C54.1293 24.4405 54.6977 25.9677 55.2429 27.5005C55.7881 29.0305 56.2898 30.5806 56.7683 32.1364C57.1337 33.3334 57.9834 36.1322 58.5431 38.0726C59.1434 38.1874 59.7553 38.2908 60.3817 38.3769C59.6277 36.4049 58.1487 33.1325 57.7108 31.8379C57.1859 30.2849 56.632 28.7406 56.0404 27.2106C55.4459 25.6806 54.8282 24.1592 54.1235 22.6694C53.9553 22.2934 53.7639 21.926 53.5783 21.5586L53.2999 21.0074C53.2042 20.8237 53.0998 20.6457 52.9983 20.462C52.7924 20.1032 52.5981 19.7386 52.3632 19.3913C52.137 19.0411 51.9195 18.688 51.6614 18.3608C50.9886 17.4566 50.2636 16.5954 49.5125 15.763C49.5966 15.4759 49.6575 15.186 49.6865 14.8961C49.7184 14.566 49.73 14.2387 49.7126 13.9115C49.6952 13.5871 49.6604 13.2628 49.6024 12.947C49.5473 12.6313 49.4777 12.3184 49.3849 12.0112C49.4342 12.327 49.4545 12.6427 49.4632 12.9614C49.4719 13.2771 49.4632 13.5929 49.4313 13.9029C49.4023 14.2158 49.3443 14.5229 49.2718 14.8186C49.2283 14.9908 49.1732 15.1544 49.1094 15.3152C48.889 15.0769 48.6686 14.8387 48.4453 14.6033C47.4477 13.5556 46.424 12.5337 45.3858 11.5318C45.2495 11.3998 45.1161 11.2706 44.9798 11.1386C44.9711 11.1328 44.9682 11.1271 44.9595 11.1214C43.9271 10.131 42.8744 9.15793 41.8159 8.19918C41.8188 8.19056 41.8217 8.17908 41.8246 8.17047C41.8971 7.90351 41.9058 7.6423 41.8768 7.3983C41.8478 7.15144 41.7782 6.92467 41.6999 6.70364C41.6187 6.48261 41.5172 6.27306 41.4041 6.075C41.291 5.87693 41.1692 5.68173 41.0358 5.50089C41.1286 5.7047 41.2098 5.91712 41.2765 6.12954C41.3403 6.34195 41.3925 6.55724 41.4273 6.7754C41.4563 6.99356 41.4737 7.20598 41.4534 7.40978C41.4389 7.5447 41.4128 7.67674 41.3722 7.79443C40.1426 6.68641 38.9043 5.59275 37.6602 4.50195C38.884 5.63581 40.1049 6.77827 41.3113 7.93222C41.4447 8.06139 41.581 8.19344 41.7144 8.32261C42.6511 9.22108 43.5762 10.131 44.4926 11.0525C44.4375 11.0467 44.3795 11.0381 44.3215 11.0324C44.0373 10.9951 43.7502 10.9778 43.466 10.9664C42.8918 10.9491 42.3205 10.9951 41.7637 11.1013C41.204 11.2017 40.6617 11.3883 40.1571 11.6323C40.0295 11.6983 39.9048 11.7615 39.783 11.8246L39.4321 12.0543C39.3741 12.0916 39.3161 12.1289 39.2581 12.172L39.0957 12.304Z" fill="#D3D6E0"/>
<path d="M119.056 113.952C119.056 113.952 122.695 112.166 127.416 111.138C132.138 110.111 139.576 109.172 142.198 103.368C144.608 98.0374 136.459 87.3849 136.459 87.3849C136.459 87.3849 132.265 81.3568 132.52 75.9832V75.9746C131.969 77.5419 131.961 80.111 131.995 82.2237C132.045 85.1717 131.592 90.7692 131.592 90.7692C131.592 90.7692 121.689 104.551 119.053 113.952H119.056Z" fill="#E9EAF0"/>
<path d="M132.523 75.9771V75.9857C132.265 81.3564 136.458 87.3874 136.458 87.3874C136.458 87.3874 143.279 78.2189 143.43 74.0624C143.578 69.9088 134.939 73.9218 133.463 74.6825C133.042 74.8978 132.741 75.3599 132.523 75.9799V75.9771Z" fill="#D3D6E0"/>
<path d="M116.594 122.043C117.055 121.963 117.507 121.88 117.957 121.791C117.994 121.782 118.035 121.777 118.073 121.768C118.461 119.661 118.94 117.098 119.201 115.875C119.363 115.131 119.517 114.376 119.703 113.653C119.749 113.481 119.795 113.314 119.845 113.145L120.022 112.476C120.094 112.255 120.175 112.034 120.248 111.816C120.404 111.377 120.541 110.932 120.715 110.498C121.066 109.631 121.402 108.756 121.805 107.909C122.005 107.481 122.182 107.045 122.394 106.626L122.655 106.095C122.733 106.04 122.811 105.989 122.893 105.937L123.22 105.719L123.551 105.512C123.774 105.372 124.006 105.245 124.229 105.113C125.152 104.596 126.106 104.146 127.092 103.738C127.588 103.552 128.081 103.348 128.588 103.184C128.84 103.098 129.093 103.006 129.348 102.932L130.116 102.702C130.372 102.622 130.633 102.556 130.894 102.49L131.674 102.297C132.196 102.174 132.724 102.076 133.248 101.958C132.715 102.027 132.175 102.079 131.645 102.154L130.844 102.28C130.578 102.323 130.311 102.363 130.047 102.424L129.255 102.581C128.988 102.633 128.73 102.708 128.463 102.768C127.936 102.889 127.417 103.046 126.895 103.196C125.856 103.517 124.83 103.893 123.832 104.341C123.705 104.401 123.574 104.456 123.446 104.519C123.516 104.381 123.591 104.241 123.664 104.103C123.887 103.684 124.099 103.262 124.325 102.848C124.783 102.025 125.227 101.189 125.706 100.374C125.9 100.03 126.097 99.6908 126.297 99.3492C126.816 99.0708 127.353 98.8009 127.881 98.5426C128.962 98.0173 130.07 97.535 131.189 97.093C131.746 96.8633 132.32 96.6653 132.883 96.4529C133.457 96.2663 134.026 96.0596 134.609 95.8931C135.763 95.5257 136.94 95.2444 138.123 94.9803C136.926 95.1496 135.719 95.3391 134.533 95.6118C133.933 95.7352 133.347 95.8988 132.753 96.0424C132.167 96.2088 131.578 96.361 130.995 96.5476C129.826 96.9035 128.669 97.3054 127.53 97.7503C127.405 97.7991 127.28 97.845 127.158 97.8967C127.64 97.0958 128.133 96.3007 128.626 95.5084C129.629 93.8981 130.662 92.3222 131.726 90.7405C132.207 89.9167 132.605 89.0498 132.927 88.1571C133.257 87.2672 133.489 86.3429 133.591 85.4014C133.454 86.34 133.19 87.25 132.837 88.1226C132.497 88.9694 132.086 89.7904 131.607 90.5597C131.593 90.5884 131.578 90.6142 131.561 90.6429C130.453 92.1672 129.357 93.7259 128.298 95.2989C127.649 96.2663 127.005 97.2365 126.375 98.2182C126.019 98.7722 125.668 99.3291 125.323 99.886C125.282 99.952 125.244 100.018 125.204 100.081C124.696 100.882 124.218 101.703 123.731 102.518C123.487 102.929 123.258 103.345 123.023 103.758C122.788 104.172 122.545 104.582 122.33 105.004L122.263 105.125L121.654 106.261C121.593 106.376 121.53 106.494 121.472 106.609C121.315 106.919 121.167 107.232 121.01 107.539C120.573 108.388 120.198 109.267 119.81 110.142C119.618 110.579 119.459 111.035 119.285 111.48C119.198 111.707 119.111 111.928 119.03 112.157L118.815 112.849C118.511 113.782 118.296 114.695 118.061 115.616C117.6 117.454 117.162 119.302 116.75 121.151C116.742 121.197 116.678 121.564 116.594 122.043Z" fill="#D3D6E0"/>
<path d="M23.1901 94.3569L24.1007 93.4556C24.1877 93.3695 24.1877 93.2288 24.1007 93.1427C24.0137 93.0566 23.8716 93.0566 23.7846 93.1427L22.874 94.044L21.9634 93.1427C21.8764 93.0566 21.7343 93.0566 21.6473 93.1427C21.5603 93.2288 21.5603 93.3695 21.6473 93.4556L22.5579 94.3569L21.6473 95.2583C21.5603 95.3444 21.5603 95.485 21.6473 95.5712C21.6908 95.6142 21.7488 95.6372 21.8068 95.6372C21.8648 95.6372 21.9228 95.6142 21.9663 95.5712L22.8769 94.6698L23.7875 95.5712C23.831 95.6142 23.889 95.6372 23.947 95.6372C24.005 95.6372 24.063 95.6142 24.1065 95.5712C24.1935 95.485 24.1935 95.3444 24.1065 95.2583L23.1959 94.3569H23.1901Z" fill="#E4E5EC"/>
<path d="M153.65 74.3265H152.119V72.8109C152.119 72.6874 152.018 72.5898 151.896 72.5898C151.774 72.5898 151.672 72.6903 151.672 72.8109V74.3265H150.141C150.017 74.3265 149.918 74.427 149.918 74.5475C149.918 74.6681 150.019 74.7686 150.141 74.7686H151.672V76.2842C151.672 76.4076 151.774 76.5052 151.896 76.5052C152.018 76.5052 152.119 76.4048 152.119 76.2842V74.7686H153.65C153.775 74.7686 153.874 74.6681 153.874 74.5475C153.874 74.427 153.772 74.3265 153.65 74.3265Z" fill="#E4E5EC"/>
<path d="M9.94946 34.3635C9.06786 34.3635 8.35156 33.6545 8.35156 32.7818C8.35156 31.9092 9.06786 31.2002 9.94946 31.2002C10.8311 31.2002 11.5474 31.9092 11.5474 32.7818C11.5474 33.6545 10.8311 34.3635 9.94946 34.3635ZM9.94946 31.6423C9.31436 31.6423 8.79816 32.1532 8.79816 32.7818C8.79816 33.4105 9.31436 33.9214 9.94946 33.9214C10.5846 33.9214 11.1008 33.4105 11.1008 32.7818C11.1008 32.1532 10.5846 31.6423 9.94946 31.6423Z" fill="#E4E5EC"/>
<path d="M125.285 90.7317L122.193 89.8791C122.115 89.8591 122.057 89.7988 122.037 89.7213C122.016 89.6438 122.039 89.5634 122.097 89.5089L124.388 87.2871C124.502 87.1751 124.722 87.2354 124.763 87.3904L125.563 90.4647C125.583 90.5422 125.56 90.6226 125.502 90.6772C125.444 90.7317 125.363 90.7547 125.285 90.7317ZM122.689 89.5548L125.032 90.2007L124.426 87.8698L122.689 89.5548Z" fill="#E4E5EC"/>
<path d="M26.423 8.14358L25.1818 8.56555C24.6627 8.74065 24.0943 8.46795 23.9174 7.95413L23.4911 6.72555C23.3142 6.21172 23.5897 5.6491 24.1088 5.474L25.35 5.05204C25.8691 4.87693 26.4375 5.14963 26.6144 5.66345L27.0407 6.89204C27.2176 7.40586 26.9421 7.96848 26.423 8.14358ZM24.2393 5.8443C23.929 5.95051 23.7608 6.28636 23.8681 6.59637L24.2944 7.82495C24.4017 8.1321 24.741 8.29859 25.0542 8.19238L26.2954 7.77041C26.6057 7.6642 26.7739 7.32835 26.6666 7.01834L26.2403 5.78976C26.133 5.48261 25.7937 5.31612 25.4805 5.42233L24.2393 5.8443Z" fill="#E4E5EC"/>
<path d="M164.009 25.881L155.153 67.426C155.048 67.9111 154.75 68.3359 154.323 68.6L154.312 68.6058L154.155 68.7005C153.65 69.0105 153.021 69.0622 152.473 68.8354L151.551 68.4536L99.7742 47.1199C98.9912 46.7984 98.5301 45.989 98.6606 45.1565L105.429 1.55052C105.597 0.468337 106.682 -0.226328 107.746 0.0693351C110.858 0.93336 116.748 2.56381 119.161 3.23551C122.516 4.16556 123.844 5.8362 124.874 8.09242C125.9 10.3486 126.921 11.9734 129.725 13.0297C132.153 13.9454 156.318 21.7015 162.771 23.7712C163.667 24.0582 164.201 24.9711 164.003 25.8839L164.009 25.881Z" fill="#CED0DC"/>
<path d="M162.356 28.5935L154.312 68.6056L153.349 69.197L151.551 68.4564L103.965 25.4388L106.476 9.25488L162.356 28.5935Z" fill="white"/>
<path d="M161.587 29.1016L153.348 69.1969L151.55 68.4563L98.4395 46.5744L103.271 15.458L105.405 16.1383L119.331 20.579C121.361 19.1036 124.278 16.7124 127.41 17.7142C130.542 18.716 161.584 29.1044 161.584 29.1044L161.587 29.1016Z" fill="#DEE0E8"/>
<path d="M131.166 29.9001L126.656 79.3418C126.621 79.715 126.456 80.0652 126.189 80.3321L125.482 81.0326C125.064 81.4459 124.452 81.6038 123.884 81.443L59.1267 63.0115C58.4104 62.8076 57.9261 62.1474 57.9522 61.4097L59.8256 10.4495C59.8981 8.46594 61.757 7.02494 63.7203 7.43255C68.0065 8.31954 74.6678 9.69165 76.5093 10.0218C79.2382 10.5097 80.0763 10.0361 86.291 18.3491C86.523 18.662 86.8652 18.8773 87.248 18.9605L129.895 28.1864C130.696 28.3586 131.238 29.0935 131.166 29.9001Z" fill="#CED0DC"/>
<path d="M128.684 34.1997L124.803 81.7038L57.9062 62.6637L59.2635 25.7632L63.0799 26.5469L78.7167 29.7619C78.7167 29.7619 81.4485 27.5056 82.8927 26.3431C84.3369 25.1805 86.3321 24.9624 89.1712 25.6427C91.7435 26.2598 122.022 32.7702 127.753 33.9987C128.356 34.1308 128.687 34.2026 128.687 34.2026L128.684 34.1997Z" fill="#DEE0E8"/>
<path d="M127.956 32.4747L127.753 33.9961C122.023 32.7675 91.7407 26.2572 89.1713 25.64C86.3351 24.9568 84.337 25.1779 82.8928 26.3404C81.4486 27.503 78.7168 29.7592 78.7168 29.7592L63.08 26.5442H63.0742L63.3642 18.6934L127.956 32.4747Z" fill="white"/>
<path d="M126.028 23.1053L125.903 26.1366L125.604 33.5367L120.996 32.5464L121.573 24.3396L121.715 22.3389L123.635 25.1577L126.028 23.1053Z" fill="#B8BCCD"/>
<path d="M126.027 23.1053L125.902 26.1366C125.783 25.5223 125.621 24.997 125.423 24.9137C124.901 24.6984 124.324 25.8495 123.654 25.8495C123.176 25.8495 122.123 24.8821 121.572 24.3396L121.714 22.3389L123.634 25.1577L126.027 23.1053Z" fill="#ADB1C5"/>
<path d="M89.5822 41.2471L90.3536 95.6376L88.5469 97.3283L85.0263 47.1718L19.5269 38.4196L19.6255 40.9313L18.0711 40.6988L17.6216 36.2495L16.6414 26.4955C16.5341 25.4305 17.4534 24.5435 18.5264 24.6727L34.7084 26.6591C35.4131 26.7452 36.054 27.104 36.4948 27.6552L41.5002 33.9445C41.9236 34.4755 42.5355 34.8228 43.2112 34.9147L89.5793 41.2471H89.5822Z" fill="#9197B2"/>
<path d="M90.3512 95.6409L88.5445 97.3288L85.0239 47.1723L19.5245 38.4201L19.626 40.9318L18.0716 40.6992L17.625 36.2471L86.8306 45.493L90.3512 95.6409Z" fill="#868DAA"/>
<path d="M88.5444 97.3286L87.8832 97.9458L82.9474 50.4158L19.6259 40.9316L19.5273 38.4199L85.0238 47.1721L88.5444 97.3286Z" fill="#D9DBE4"/>
<path d="M87.8835 97.9459L77.3275 57.5176L14.2235 48.3865L13.2578 44.0176L16.3376 44.3879L80.1811 54.0586L87.8835 97.9459Z" fill="#EFEFF3"/>
<path d="M87.8819 97.9452L75.5366 67.0039C75.5366 67.0039 75.148 66.9379 74.4346 66.8116L73.2137 63.0512L11.1508 53.2024L9.94727 47.7686L14.2219 48.3857L77.3288 57.5197L87.8848 97.948L87.8819 97.9452Z" fill="#E4E5EC"/>
<path d="M17.9081 45.2109L18.6186 48.3197L20.4746 56.383L15.5475 56.8136L13.7292 47.6738L13.3203 45.6042L16.0492 47.9408L17.9081 45.2109Z" fill="#B8BCCD"/>
<path d="M17.9081 45.2109L18.6186 48.3197C18.3286 47.7284 18.0183 47.2375 17.795 47.2088C17.2063 47.1313 16.9395 48.4546 16.258 48.6383C15.7737 48.7675 14.4368 48.0728 13.7292 47.671L13.3203 45.6013L16.0492 47.9408L17.911 45.2109H17.9081Z" fill="#868DAA"/>
<path d="M74.4379 66.8116C67.8201 65.6692 33.429 59.733 30.1085 59.3627C26.4313 58.9464 24.7841 61.8658 24.7841 61.8658L8.24827 58.7541L6.17188 52.416L11.1483 53.2025L73.2141 63.0541L74.435 66.8145L74.4379 66.8116Z" fill="#EFEFF3"/>
<path d="M87.8816 97.9451L87.4814 98.3182L17.5276 82.9581C16.6779 82.7715 15.9761 82.1831 15.6513 81.3822L7.0673 60.192C6.7541 59.4227 7.4182 58.6104 8.2447 58.7539L23.5625 61.6388C24.2469 61.768 24.9487 61.5412 25.4243 61.0388C26.2102 60.2093 27.7356 59.0955 30.102 59.3653C33.4225 59.7356 67.8107 65.6719 74.4314 66.8143C75.1419 66.9378 75.5334 67.0066 75.5334 67.0066L87.8787 97.9479L87.8816 97.9451Z" fill="#B8BCCD"/>
<path d="M74.4375 66.8151V66.8115" stroke="#F1E88D" stroke-miterlimit="10"/>
<path d="M76.7329 100C81.1929 102.571 82.9954 106.266 81.4009 109.595C80.8925 110.658 79.9912 111.727 78.3043 112.406C76.6116 113.086 73.9829 113.25 72.3364 112.541C70.5455 111.771 70.6379 110.242 72.1169 109.317C73.5959 108.392 76.0685 108.002 78.4141 107.991C80.7654 107.979 83.0647 108.286 85.3698 108.521C93.4406 109.343 102.089 109.223 109.576 107.484C112.292 106.855 114.822 105.988 117 104.943" stroke="#A2A7BE" stroke-width="1.5" stroke-linecap="round" stroke-linejoin="round"/>
<path d="M68.9316 96.7598C70.1003 97.0612 71.2197 97.5549 72.226 98.2151" stroke="#A2A7BE" stroke-width="1.5" stroke-linecap="round" stroke-linejoin="round"/>
<path d="M158.651 57.5941C161.145 58.9604 164.405 59.2188 166.618 57.485C167.937 56.4516 168.738 54.6633 168.259 53.0644C167.781 51.4655 165.806 50.3719 164.286 51.0924C163.097 51.655 162.532 53.0673 162.54 54.3734C162.549 55.6794 163.013 56.931 163.367 58.1883C164.808 63.3179 164.338 69.1048 161.389 73.557C158.44 78.0092 152.831 80.8165 147.547 79.809C143.032 78.9478 139.416 75.6267 136.501 72.1074C133.584 68.5881 131.04 64.6814 127.418 61.8769C126.334 61.0387 125.116 60.3153 123.828 59.7671" stroke="#A2A7BE" stroke-width="1.5" stroke-linecap="round" stroke-linejoin="round"/>
<path d="M66.0169 95.4221C65.9183 95.6518 65.8052 95.8785 65.6834 96.0967C64.9439 97.377 63.7317 98.4017 62.2005 98.8926C58.9206 99.9461 55.4058 98.175 54.3415 94.9313C53.8456 93.4128 53.9703 91.8455 54.5822 90.4992C54.7098 90.2121 54.8635 89.9337 55.0375 89.6696C55.0375 89.6668 55.0404 89.6668 55.0404 89.6668C55.7886 88.5214 56.9283 87.6086 58.3406 87.1522C61.6205 86.0987 65.1382 87.8756 66.2025 91.1164C66.6839 92.5861 66.5824 94.1046 66.014 95.425L66.0169 95.4221Z" fill="#7B83A3"/>
<path d="M66.0159 95.4222C65.5374 95.7121 65.0154 95.9532 64.4586 96.1341C60.6509 97.3598 56.5561 95.2959 55.3178 91.524C55.1293 90.9499 55.0162 90.3672 54.9785 89.7902C54.9959 89.7501 55.0162 89.707 55.0336 89.6726C55.0336 89.6697 55.0365 89.6697 55.0365 89.6697C55.7847 88.5243 56.9244 87.6115 58.3367 87.1551C61.6166 86.1016 65.1343 87.8785 66.1986 91.1193C66.68 92.589 66.5785 94.1075 66.0101 95.4279L66.0159 95.4222Z" fill="#9197B2"/>
<path d="M57.3548 91.2627C57.3548 91.1307 57.4012 91.0216 57.494 90.9298C57.9638 90.4676 58.4307 90.0026 58.9005 89.5376C58.9817 89.4572 59.0716 89.417 59.1876 89.417C60.1591 89.417 61.1335 89.4227 62.105 89.417C62.6009 89.417 63.0678 89.7758 63.1693 90.2982C63.1838 90.3757 63.1896 93.8433 63.1896 95.4967C63.1896 96.068 62.8184 96.51 62.25 96.6076C62.2065 96.6162 59.6574 96.6134 58.4278 96.6105C58.0566 96.6105 57.7724 96.4469 57.5549 96.1541C57.4128 95.9589 57.3548 95.7379 57.3548 95.5054C57.3519 94.7992 57.3548 91.9689 57.3548 91.2599V91.2627ZM59.1789 94.0988C58.9817 94.0988 58.8251 94.2538 58.8222 94.4519C58.8222 94.6729 58.9759 94.8222 59.2137 94.8222C59.7995 94.8222 61.2292 94.8279 61.3597 94.8222C61.5946 94.8107 61.728 94.6528 61.7367 94.4634C61.7425 94.2969 61.583 94.0931 61.351 94.0959C60.9972 94.1045 59.5472 94.0959 59.1789 94.0959V94.0988ZM59.1934 92.6607C59.0774 92.6607 58.9817 92.7009 58.9121 92.787C58.8164 92.9018 58.7961 93.031 58.8599 93.1688C58.9266 93.3123 59.0455 93.3754 59.1992 93.3754C59.7879 93.3754 61.2611 93.3783 61.409 93.3754C61.5946 93.3697 61.7744 93.1601 61.7454 92.9937C61.7135 92.8128 61.5743 92.6549 61.3568 92.6607C61.003 92.6693 59.5646 92.6635 59.1992 92.6607H59.1934ZM59.9242 91.2168C59.7705 91.2168 59.6429 91.2857 59.5849 91.4264C59.5269 91.567 59.5356 91.7105 59.6516 91.8311C59.7328 91.9143 59.8372 91.9373 59.9445 91.9373C60.4056 91.9373 60.8638 91.9373 61.3249 91.9373C61.3742 91.9373 61.4264 91.9316 61.4757 91.9201C61.6236 91.8856 61.7686 91.6818 61.7396 91.5498C61.6961 91.3488 61.5598 91.2111 61.3307 91.2139C61.1016 91.2168 60.1649 91.2139 59.9242 91.2139V91.2168Z" fill="white"/>
<path d="M87.8829 97.9457L80.1805 54.0584L16.337 44.3876L15.5859 40.4033L18.0712 40.699L19.6256 40.9315L82.9471 50.4157L87.8829 97.9457Z" fill="#E4E5EC"/>
</g>
<defs>
<clipPath id="clip0_1502_67718">
<rect width="174" height="138" fill="white"/>
</clipPath>
</defs>
</svg>
