<svg width="22" height="22" viewBox="0 0 22 22" fill="none" xmlns="http://www.w3.org/2000/svg">
<rect width="22" height="22" rx="5" fill="#C7222A"/>
<path fill-rule="evenodd" clip-rule="evenodd" d="M11.9193 6.11621C12.1504 6.11621 12.338 6.30375 12.338 6.53482C12.338 6.76589 12.1504 6.95343 11.9193 6.95343H7.09305C6.39926 6.95343 5.83722 7.51547 5.83722 8.20926V14.907C5.83722 15.6008 6.39926 16.1628 7.09305 16.1628H13.7908C14.4846 16.1628 15.0466 15.6008 15.0466 14.907V10.0807C15.0466 9.84964 15.2342 9.6621 15.4652 9.6621C15.6963 9.6621 15.8838 9.84964 15.8838 10.0807V14.907C15.8838 16.0629 14.9467 17.0001 13.7908 17.0001H7.09305C5.93712 17.0001 5 16.0629 5 14.907V8.20926C5 7.05333 5.93712 6.11621 7.09305 6.11621H11.9193Z" fill="white"/>
<path fill-rule="evenodd" clip-rule="evenodd" d="M15.3481 8.42688L11.6973 12.0777C11.6515 12.1235 11.5957 12.1581 11.5338 12.1787L9.75773 12.7704C9.6076 12.8206 9.44182 12.7815 9.32963 12.6694C9.21743 12.5572 9.17836 12.3914 9.22861 12.2413L9.82025 10.4652C9.84089 10.4033 9.87549 10.3475 9.92126 10.3017L13.5721 6.65086L15.3481 8.42688ZM14.1643 6.05866L14.8558 5.36713C15.3459 4.87762 16.1401 4.87762 16.6302 5.36713L16.6319 5.36879C17.1214 5.85884 17.1214 6.65307 16.6319 7.14313L15.9403 7.83466L14.1643 6.05866Z" fill="white"/>
</svg>
