<svg width="22" height="22" viewBox="0 0 22 22" fill="none" xmlns="http://www.w3.org/2000/svg">
<rect width="22" height="22" rx="5" fill="#FFE2DF"/>
<path d="M11 11.5C11.2761 11.5 11.5 11.2761 11.5 11C11.5 10.7239 11.2761 10.5 11 10.5C10.7239 10.5 10.5 10.7239 10.5 11C10.5 11.2761 10.7239 11.5 11 11.5Z" fill="#C7222A"/>
<path d="M11 8C11.2761 8 11.5 7.77614 11.5 7.5C11.5 7.22386 11.2761 7 11 7C10.7239 7 10.5 7.22386 10.5 7.5C10.5 7.77614 10.7239 8 11 8Z" fill="#C7222A"/>
<path d="M11 15C11.2761 15 11.5 14.7761 11.5 14.5C11.5 14.2239 11.2761 14 11 14C10.7239 14 10.5 14.2239 10.5 14.5C10.5 14.7761 10.7239 15 11 15Z" fill="#C7222A"/>
<path d="M11 11.5C11.2761 11.5 11.5 11.2761 11.5 11C11.5 10.7239 11.2761 10.5 11 10.5C10.7239 10.5 10.5 10.7239 10.5 11C10.5 11.2761 10.7239 11.5 11 11.5Z" stroke="#C7222A" stroke-linecap="round" stroke-linejoin="round"/>
<path d="M11 8C11.2761 8 11.5 7.77614 11.5 7.5C11.5 7.22386 11.2761 7 11 7C10.7239 7 10.5 7.22386 10.5 7.5C10.5 7.77614 10.7239 8 11 8Z" stroke="#C7222A" stroke-linecap="round" stroke-linejoin="round"/>
<path d="M11 15C11.2761 15 11.5 14.7761 11.5 14.5C11.5 14.2239 11.2761 14 11 14C10.7239 14 10.5 14.2239 10.5 14.5C10.5 14.7761 10.7239 15 11 15Z" stroke="#C7222A" stroke-linecap="round" stroke-linejoin="round"/>
</svg>
