<svg width="22" height="22" viewBox="0 0 22 22" fill="none" xmlns="http://www.w3.org/2000/svg">
<rect width="22" height="22" rx="5" fill="#FFE2DF"/>
<path d="M11 5C9.2157 5 7.53034 5.82983 6.40625 7.16865V6.78125C6.40625 6.58693 6.24901 6.42969 6.05469 6.42969C5.86037 6.42969 5.70312 6.58693 5.70312 6.78125V8.27471C5.70312 8.61022 6.13648 8.65824 6.05469 8.62627C6.06191 8.62627 6.0691 8.62592 6.07632 8.62559L7.48257 8.53838C7.67654 8.52636 7.82384 8.35951 7.81182 8.16587C7.7998 7.97223 7.63055 7.82633 7.4393 7.83662L6.72695 7.88091C7.71366 6.5387 9.31016 5.70312 11 5.70312C13.9079 5.70312 16.2969 8.09206 16.2969 11C16.2969 11.1943 16.4541 11.3516 16.6484 11.3516C16.8428 11.3516 17 11.1943 17 11C17 7.70445 14.2955 5 11 5Z" fill="#C7222A"/>
<path d="M15.9237 13.3744L14.5174 13.4616C14.3235 13.4736 14.1762 13.6405 14.1882 13.8341C14.2002 14.0278 14.3732 14.1754 14.5607 14.1634L15.2731 14.1191C14.2863 15.4613 12.6898 16.2969 11 16.2969C8.09206 16.2969 5.70312 13.9079 5.70312 11C5.70312 10.8057 5.54588 10.6484 5.35156 10.6484C5.15724 10.6484 5 10.8057 5 11C5 14.2955 7.70445 17 11 17C12.7843 17 14.4697 16.1702 15.5938 14.8314V15.2188C15.5938 15.4131 15.751 15.5703 15.9453 15.5703C16.1396 15.5703 16.2969 15.4131 16.2969 15.2188V13.7253C16.2969 13.5322 16.1117 13.3638 15.9237 13.3744Z" fill="#C7222A"/>
<path d="M13.6629 9.16816C13.6525 9.05404 13.5783 8.9557 13.4718 8.91543L11.1358 8.03284C11.1092 8.01941 11.0808 8.01039 11.0512 8.00542C10.9869 7.9923 10.9195 8.00339 10.8604 8.0343L8.5282 8.91543C8.42162 8.9557 8.34746 9.05404 8.33707 9.16816C8.33389 9.2029 8.05789 12.6407 10.8329 13.9275C10.8358 13.9295 10.839 13.9316 10.8422 13.9333C10.8891 13.9622 10.9423 13.9766 10.9957 13.9766C11.0038 13.9766 11.0119 13.9763 11.02 13.9757C11.0681 13.9725 11.1159 13.9576 11.1584 13.9316C13.9427 12.648 13.6661 9.2032 13.6629 9.16816ZM12.4021 10.2974L11.1316 11.6349C11.0764 11.693 11.0003 11.7263 10.9204 11.7271C10.9193 11.7271 10.9183 11.7271 10.9171 11.7271C10.8384 11.7271 10.7629 11.6956 10.7072 11.6395L10.1135 11.0417C9.9975 10.925 9.9975 10.7358 10.1135 10.619C10.2294 10.5022 10.4173 10.5023 10.5333 10.619L10.9124 11.0008L11.973 9.884C12.0862 9.76462 12.2747 9.76052 12.3927 9.87467C12.5112 9.98883 12.5154 10.178 12.4021 10.2974Z" fill="#C7222A"/>
</svg>
