<svg width="22" height="22" viewBox="0 0 22 22" fill="none" xmlns="http://www.w3.org/2000/svg">
<rect width="22" height="22" rx="5" fill="#F9FAFB"/>
<path d="M6.83867 11.666C6.83867 10.811 7.53367 10.116 8.38867 10.116H10.3887V9.16602H8.38867C7.72563 9.16602 7.08975 9.42941 6.6209 9.89825C6.15206 10.3671 5.88867 11.003 5.88867 11.666C5.88867 12.3291 6.15206 12.9649 6.6209 13.4338C7.08975 13.9026 7.72563 14.166 8.38867 14.166H10.3887V13.216H8.38867C7.53367 13.216 6.83867 12.521 6.83867 11.666ZM8.88867 12.166H12.8887V11.166H8.88867V12.166ZM13.3887 9.16602H11.3887V10.116H13.3887C14.2437 10.116 14.9387 10.811 14.9387 11.666C14.9387 12.521 14.2437 13.216 13.3887 13.216H11.3887V14.166H13.3887C14.0517 14.166 14.6876 13.9026 15.1564 13.4338C15.6253 12.9649 15.8887 12.3291 15.8887 11.666C15.8887 11.003 15.6253 10.3671 15.1564 9.89825C14.6876 9.42941 14.0517 9.16602 13.3887 9.16602Z" fill="#767D93"/>
</svg>
