<svg width="22" height="22" viewBox="0 0 22 22" fill="none" xmlns="http://www.w3.org/2000/svg">
<rect width="22" height="22" rx="5" fill="#F9FAFB"/>
<path fill-rule="evenodd" clip-rule="evenodd" d="M6.67613 13.7207C6.93196 13.7207 7.13936 13.9281 7.13936 14.1839V15.4192C7.13936 15.5045 7.20849 15.5736 7.29377 15.5736H14.7055C14.7908 15.5736 14.8599 15.5045 14.8599 15.4192V14.1839C14.8599 13.9281 15.0673 13.7207 15.3232 13.7207C15.579 13.7207 15.7864 13.9281 15.7864 14.1839V15.4192C15.7864 16.0162 15.3025 16.5001 14.7055 16.5001H7.29377C6.69682 16.5001 6.21289 16.0162 6.21289 15.4192V14.1839C6.21289 13.9281 6.42029 13.7207 6.67613 13.7207Z" fill="#979CAE"/>
<path d="M10.2201 6C9.90245 6 9.6374 6.24281 9.60965 6.55931C9.51476 7.64186 9.49802 8.72974 9.55952 9.81449C9.40697 9.82292 9.25447 9.83269 9.10206 9.8438L8.18207 9.91088C7.82735 9.93669 7.62906 10.3322 7.82056 10.6319C8.47653 11.6585 9.32175 12.5509 10.3112 13.2617L10.6798 13.5265C10.8709 13.6638 11.1284 13.6638 11.3196 13.5265L11.6881 13.2617C12.6776 12.5509 13.5228 11.6585 14.1788 10.6319C14.3703 10.3322 14.172 9.93669 13.8173 9.91088L12.8973 9.8438C12.7449 9.83269 12.5924 9.82292 12.4398 9.81449C12.5013 8.72974 12.4846 7.64186 12.3897 6.5593C12.3619 6.24281 12.0969 6 11.7792 6H10.2201Z" fill="#979CAE"/>
</svg>
