<svg width="18" height="17" viewBox="0 0 18 17" fill="none" xmlns="http://www.w3.org/2000/svg">
<path d="M17.3335 0.222656H0.666884C0.519541 0.222656 0.378233 0.281188 0.274047 0.385375C0.16986 0.489562 0.111328 0.630869 0.111328 0.778212V1.70599C0.11215 1.97089 0.218047 2.22464 0.405773 2.41155L6.77799 8.87821V14.5449L7.88911 14.9671V8.55599C7.88953 8.48287 7.87551 8.41039 7.84787 8.34271C7.82022 8.27502 7.77948 8.21346 7.72799 8.16155L1.22244 1.66155V1.33377H16.778V1.67266L10.2947 8.16155C10.2391 8.21158 10.1943 8.2723 10.1628 8.34008C10.1313 8.40785 10.1138 8.48129 10.1113 8.55599V15.8949L11.2224 16.3338V8.83377L17.5947 2.44488C17.6896 2.35036 17.7646 2.23772 17.8152 2.11366C17.8658 1.98959 17.8909 1.85662 17.8891 1.72266V0.778212C17.8891 0.630869 17.8306 0.489562 17.7264 0.385375C17.6222 0.281188 17.4809 0.222656 17.3335 0.222656Z" fill="#797979"/>
</svg>
