<svg width="16" height="16" viewBox="0 0 16 16" fill="none" xmlns="http://www.w3.org/2000/svg">
<g clip-path="url(#clip0_1498_65965)">
<path d="M5.33268 0.666992H2.66602C1.56145 0.666992 0.666016 1.56242 0.666016 2.66699V5.33366C0.666016 6.43823 1.56145 7.33366 2.66602 7.33366H5.33268C6.43725 7.33366 7.33268 6.43823 7.33268 5.33366V2.66699C7.33268 1.56242 6.43725 0.666992 5.33268 0.666992Z" fill="white"/>
<path d="M13.3327 0.666992H10.666C9.56145 0.666992 8.66602 1.56242 8.66602 2.66699V5.33366C8.66602 6.43823 9.56145 7.33366 10.666 7.33366H13.3327C14.4373 7.33366 15.3327 6.43823 15.3327 5.33366V2.66699C15.3327 1.56242 14.4373 0.666992 13.3327 0.666992Z" fill="white"/>
<path d="M5.33268 8.66699H2.66602C1.56145 8.66699 0.666016 9.56242 0.666016 10.667V13.3337C0.666016 14.4382 1.56145 15.3337 2.66602 15.3337H5.33268C6.43725 15.3337 7.33268 14.4382 7.33268 13.3337V10.667C7.33268 9.56242 6.43725 8.66699 5.33268 8.66699Z" fill="white"/>
<path d="M13.3327 8.66699H10.666C9.56145 8.66699 8.66602 9.56242 8.66602 10.667V13.3337C8.66602 14.4382 9.56145 15.3337 10.666 15.3337H13.3327C14.4373 15.3337 15.3327 14.4382 15.3327 13.3337V10.667C15.3327 9.56242 14.4373 8.66699 13.3327 8.66699Z" fill="white"/>
</g>
<defs>
<clipPath id="clip0_1498_65965">
<rect width="16" height="16" fill="white"/>
</clipPath>
</defs>
</svg>
