<svg width="16" height="16" viewBox="0 0 16 16" fill="none" xmlns="http://www.w3.org/2000/svg">
<path d="M0.666016 2.00033C0.666016 1.26395 1.26297 0.666992 1.99935 0.666992H3.33268C4.06906 0.666992 4.66602 1.26395 4.66602 2.00033V3.33366C4.66602 4.07004 4.06906 4.66699 3.33268 4.66699H1.99935C1.26297 4.66699 0.666016 4.07004 0.666016 3.33366V2.00033Z" fill="#4C4C4C"/>
<path d="M0.666016 7.33382C0.666016 6.59744 1.26297 6.00049 1.99935 6.00049H3.33268C4.06906 6.00049 4.66602 6.59744 4.66602 7.33382V8.66716C4.66602 9.40355 4.06906 10.0005 3.33268 10.0005H1.99935C1.26297 10.0005 0.666016 9.40355 0.666016 8.66716V7.33382Z" fill="#4C4C4C"/>
<path d="M0.666016 12.6668C0.666016 11.9304 1.26297 11.3335 1.99935 11.3335H3.33268C4.06906 11.3335 4.66602 11.9304 4.66602 12.6668V14.0002C4.66602 14.7366 4.06906 15.3335 3.33268 15.3335H1.99935C1.26297 15.3335 0.666016 14.7366 0.666016 14.0002V12.6668Z" fill="#4C4C4C"/>
<path d="M6.66667 2C6.29847 2 6 2.29848 6 2.66667C6 3.03485 6.29847 3.33333 6.66667 3.33333H14C14.3682 3.33333 14.6667 3.03485 14.6667 2.66667C14.6667 2.29848 14.3682 2 14 2H6.66667Z" fill="#4C4C4C"/>
<path d="M6 8.00065C6 7.63245 6.29847 7.33398 6.66667 7.33398H14C14.3682 7.33398 14.6667 7.63245 14.6667 8.00065C14.6667 8.36885 14.3682 8.66732 14 8.66732H6.66667C6.29847 8.66732 6 8.36885 6 8.00065Z" fill="#4C4C4C"/>
<path d="M6.66667 12.667C6.29847 12.667 6 12.9655 6 13.3337C6 13.7019 6.29847 14.0003 6.66667 14.0003H14C14.3682 14.0003 14.6667 13.7019 14.6667 13.3337C14.6667 12.9655 14.3682 12.667 14 12.667H6.66667Z" fill="#4C4C4C"/>
</svg>
