<svg width="22" height="22" viewBox="0 0 22 22" fill="none" xmlns="http://www.w3.org/2000/svg">
<rect width="22" height="22" rx="5" fill="#F9FAFB"/>
<path d="M6.38867 16.666L7.13867 15.916L7.88867 16.666L8.63867 15.916L9.38867 16.666L10.1387 15.916L10.8887 16.666L11.6387 15.916L12.3887 16.666L13.1387 15.916L13.8887 16.666L14.6387 15.916L15.3887 16.666V6.66602L14.6387 7.41602L13.8887 6.66602L13.1387 7.41602L12.3887 6.66602L11.6387 7.41602L10.8887 6.66602L10.1387 7.41602L9.38867 6.66602L8.63867 7.41602L7.88867 6.66602L7.13867 7.41602L6.38867 6.66602V16.666ZM13.8887 10.166H7.88867V9.16602H13.8887V10.166ZM13.8887 12.166H7.88867V11.166H13.8887V12.166ZM13.8887 14.166H7.88867V13.166H13.8887V14.166Z" fill="#767D93"/>
</svg>
