<svg width="22" height="22" viewBox="0 0 22 22" fill="none" xmlns="http://www.w3.org/2000/svg">
<rect width="22" height="22" rx="5" fill="#F9FAFB"/>
<path d="M10.8887 12.166L5.88867 9.04602V8.66602C5.88867 8.11102 6.33367 7.66602 6.88867 7.66602H14.8887C15.1539 7.66602 15.4082 7.77137 15.5958 7.95891C15.7833 8.14645 15.8887 8.4008 15.8887 8.66602V9.04102L10.8887 12.166ZM15.8887 14.666C15.8887 14.9312 15.7833 15.1856 15.5958 15.3731C15.4082 15.5607 15.1539 15.666 14.8887 15.666H6.88867C6.33367 15.666 5.88867 15.216 5.88867 14.666V10.221L6.88867 10.846V14.666H14.8887V10.846L15.8887 10.221V14.666Z" fill="#767D93"/>
</svg>
