<svg width="18" height="17" viewBox="0 0 18 17" fill="none" xmlns="http://www.w3.org/2000/svg">
<g clip-path="url(#clip0_7836_34704)">
<path d="M1.30408 0.701842C1.69675 0.312419 2.22572 0.0982361 2.7774 0.101481C3.64387 0.0982361 4.49086 0.0982361 5.29567 0.0982361H6.57427C7.67439 0.101481 8.58629 1.01338 8.60576 2.13622C8.62848 3.47648 8.62848 4.72263 8.60576 5.93958C8.58305 7.1046 7.68413 7.99379 6.51262 8.00677C5.8798 8.0165 5.24375 8.01975 4.62391 8.01975C2.82608 8.03597 0.853 8.26314 0.700476 5.87792C0.706966 5.18021 0.700476 4.49223 0.700476 3.79775C0.742664 2.75929 0.460332 1.49042 1.30408 0.701842Z" fill="#C7222A"/>
<path d="M8.60821 12.4112C8.60821 13.0992 8.60497 13.8131 8.61146 14.5141C8.64391 15.6888 7.68009 16.7208 6.50533 16.7013C5.53177 16.6786 4.48033 16.7046 3.49379 16.6981C2.71819 16.7338 1.85497 16.6916 1.30328 16.0912C0.767828 15.5947 0.651001 14.8126 0.696433 14.0987C0.693188 13.031 0.693188 11.9277 0.702924 10.8405C0.706169 9.91239 1.33249 9.10434 2.22816 8.86744C3.06542 8.69869 3.84752 8.81552 4.78862 8.77982C5.33057 8.77982 5.86927 8.77982 6.41122 8.78307C8.65365 8.89989 8.67961 10.6231 8.60821 12.4112Z" fill="#C7222A"/>
<path d="M16.1426 9.94812C18.6186 12.395 16.8338 16.7241 13.3452 16.7014C9.87933 16.7208 8.04904 12.3982 10.5478 9.95461C12.0244 8.41314 14.666 8.39691 16.1426 9.94812Z" fill="#C7222A"/>
<path d="M9.38717 5.89786C9.37094 4.57707 9.37094 3.36012 9.38717 2.18212C9.38392 1.03656 10.312 0.101947 11.4576 0.0987018H11.4836C12.7265 0.0889663 13.9661 0.0889663 15.2642 0.0987018C16.3384 0.0824759 17.3054 1.05928 17.2925 2.13344C17.299 2.85711 17.2925 3.56781 17.2925 4.285C17.2568 5.32346 17.5164 6.6118 16.6856 7.39714C15.8386 8.28308 14.4334 7.94882 13.3366 8.01697C12.7135 8.01697 12.0904 8.01372 11.4868 8.00399C10.3315 8.00723 9.39041 7.07586 9.38717 5.91733C9.38717 5.91408 9.38717 5.90759 9.38717 5.89786Z" fill="#C7222A"/>
</g>
<defs>
<clipPath id="clip0_7836_34704">
<rect width="16.6154" height="16.6154" fill="white" transform="translate(0.6875 0.0923767)"/>
</clipPath>
</defs>
</svg>
