<svg width="24" height="24" viewBox="0 0 18 18" fill="none" xmlns="http://www.w3.org/2000/svg">
<g clip-path="url(#clip0_1422_19762)">
<path d="M1.05994 1.50155C1.45261 1.11213 1.98158 0.897949 2.53326 0.901194C3.39972 0.897949 4.24672 0.897949 5.05153 0.897949H6.33013C7.43025 0.901194 8.34215 1.81309 8.36162 2.93593C8.38434 4.27619 8.38434 5.52235 8.36162 6.73929C8.33891 7.90432 7.43999 8.7935 6.26847 8.80648C5.63566 8.81622 4.9996 8.81946 4.37977 8.81946C2.58194 8.83569 0.608859 9.06285 0.456335 6.67764C0.462826 5.97992 0.456335 5.29194 0.456335 4.59747C0.498523 3.55901 0.216191 2.29014 1.05994 1.50155Z" fill="#797979"/>
<path d="M8.36407 13.2108C8.36407 13.8987 8.36083 14.6127 8.36732 15.3136C8.39977 16.4884 7.43595 17.5204 6.26119 17.5009C5.28763 17.4782 4.23619 17.5041 3.24965 17.4977C2.47405 17.5333 1.61083 17.4912 1.05914 16.8908C0.523687 16.3943 0.40686 15.6122 0.452293 14.8983C0.449048 13.8306 0.449048 12.7272 0.458783 11.6401C0.462028 10.712 1.08835 9.9039 1.98402 9.667C2.82128 9.49825 3.60337 9.61508 4.54448 9.57938C5.08643 9.57938 5.62513 9.57938 6.16708 9.58263C8.4095 9.69945 8.43547 11.4227 8.36407 13.2108Z" fill="#797979"/>
<path d="M15.8945 10.7478C18.3706 13.1947 16.5857 17.5238 13.0971 17.5011C9.63128 17.5205 7.801 13.1979 10.2998 10.7543C11.7764 9.21285 14.4179 9.19663 15.8945 10.7478Z" fill="#797979"/>
<path d="M9.13912 6.69757C9.1229 5.37678 9.1229 4.15983 9.13912 2.98183C9.13588 1.83628 10.064 0.90166 11.2096 0.898415H11.2355C12.4784 0.888679 13.7181 0.888679 15.0162 0.898415C16.0903 0.882189 17.0574 1.85899 17.0444 2.93315C17.0509 3.65683 17.0444 4.36752 17.0444 5.08471C17.0087 6.12317 17.2683 7.41151 16.4376 8.19685C15.5906 9.08279 14.1854 8.74853 13.0885 8.81668C12.4654 8.81668 11.8424 8.81344 11.2388 8.8037C10.0835 8.80695 9.14237 7.87558 9.13912 6.71704C9.13912 6.7138 9.13912 6.70731 9.13912 6.69757Z" fill="#797979"/>
</g>
<defs>
<clipPath id="clip0_1422_19762">
<rect width="16.6154" height="16.6154" fill="white" transform="translate(0.441406 0.89209)"/>
</clipPath>
</defs>
</svg>
