<svg width="24" height="24" viewBox="0 0 18 17" fill="none" xmlns="http://www.w3.org/2000/svg">
<g clip-path="url(#clip0_1422_16235)">
<path d="M1.05994 0.70175C1.45261 0.312327 1.98158 0.0981445 2.53326 0.10139C3.39972 0.0981445 4.24672 0.0981445 5.05153 0.0981445H6.33013C7.43025 0.10139 8.34215 1.01329 8.36162 2.13612C8.38434 3.47639 8.38434 4.72254 8.36162 5.93949C8.33891 7.10451 7.43999 7.9937 6.26847 8.00668C5.63566 8.01641 4.9996 8.01966 4.37977 8.01966C2.58194 8.03588 0.608859 8.26305 0.456335 5.87783C0.462826 5.18011 0.456335 4.49213 0.456335 3.79766C0.498523 2.7592 0.216191 1.49033 1.05994 0.70175Z" fill="#C7222A"/>
<path d="M8.36407 12.4109C8.36407 13.0989 8.36083 13.8129 8.36732 14.5138C8.39977 15.6886 7.43595 16.7206 6.26119 16.7011C5.28763 16.6784 4.23619 16.7043 3.24965 16.6978C2.47405 16.7335 1.61083 16.6914 1.05914 16.091C0.523687 15.5945 0.40686 14.8124 0.452293 14.0984C0.449048 13.0308 0.449048 11.9274 0.458783 10.8403C0.462028 9.91215 1.08835 9.1041 1.98402 8.8672C2.82128 8.69845 3.60337 8.81527 4.54448 8.77958C5.08643 8.77958 5.62513 8.77958 6.16708 8.78282C8.4095 8.89965 8.43547 10.6228 8.36407 12.4109Z" fill="#C7222A"/>
<path d="M15.8945 9.94803C18.3706 12.3949 16.5857 16.724 13.0971 16.7013C9.63128 16.7207 7.801 12.3981 10.2998 9.95451C11.7764 8.41305 14.4179 8.39682 15.8945 9.94803Z" fill="#C7222A"/>
<path d="M9.13912 5.89777C9.1229 4.57697 9.1229 3.36003 9.13912 2.18202C9.13588 1.03647 10.064 0.101855 11.2096 0.0986103H11.2355C12.4784 0.0888747 13.7181 0.0888747 15.0162 0.0986103C16.0903 0.0823843 17.0574 1.05919 17.0444 2.13335C17.0509 2.85702 17.0444 3.56772 17.0444 4.28491C17.0087 5.32337 17.2683 6.61171 16.4376 7.39705C15.5906 8.28298 14.1854 7.94873 13.0885 8.01688C12.4654 8.01688 11.8424 8.01363 11.2388 8.0039C10.0835 8.00714 9.14237 7.07577 9.13912 5.91724C9.13912 5.91399 9.13912 5.9075 9.13912 5.89777Z" fill="#C7222A"/>
</g>
<defs>
<clipPath id="clip0_1422_16235">
<rect width="16.6154" height="16.6154" fill="white" transform="translate(0.441406 0.0922852)"/>
</clipPath>
</defs>
</svg>
