<svg width="24" height="24" viewBox="0 0 15 18" fill="none" xmlns="http://www.w3.org/2000/svg" transform="rotate(0) scale(1, 1)">
<path d="M13.9623 5.15587L10.3232 1.57816C9.87939 1.15225 9.25813 0.896701 8.54808 0.896701H3.31138C1.98001 0.811514 0.826172 1.9189 0.826172 3.19665V15.1223C0.826172 16.4001 1.89126 17.5075 3.31138 17.5075H12.1871C13.5185 17.5075 14.6723 16.4853 14.6723 15.1223V6.77436C14.6723 6.17808 14.406 5.58179 13.9623 5.15587ZM5.08653 7.62622H7.74925C8.10432 7.62622 8.4593 7.88177 8.4593 8.3077C8.4593 8.73356 8.19302 8.9891 7.74925 8.9891H5.08653C4.7315 8.9891 4.37646 8.73356 4.37646 8.3077C4.37646 7.88177 4.7315 7.62622 5.08653 7.62622ZM10.4119 12.3965H5.08653C4.7315 12.3965 4.37646 12.141 4.37646 11.715C4.37646 11.2891 4.64274 11.0335 5.08653 11.0335H10.4119C10.767 11.0335 11.122 11.2891 11.122 11.715C11.122 12.141 10.767 12.3965 10.4119 12.3965Z" fill="#c7222a"/>
</svg>