<svg width="14" height="17" viewBox="0 0 14 17" fill="none" xmlns="http://www.w3.org/2000/svg">
<path d="M13.2142 4.35616L9.5752 0.778452C9.13134 0.352541 8.51009 0.0969881 7.80004 0.0969881H2.56334C1.23197 0.0118011 0.078125 1.11919 0.078125 2.39694V14.3226C0.078125 15.6003 1.14321 16.7078 2.56334 16.7078H11.4391C12.7705 16.7078 13.9243 15.6856 13.9243 14.3226V5.97465C13.9243 5.37836 13.658 4.78208 13.2142 4.35616ZM4.33848 6.82651H7.0012C7.35627 6.82651 7.71125 7.08205 7.71125 7.50799C7.71125 7.93384 7.44497 8.18939 7.0012 8.18939H4.33848C3.98345 8.18939 3.62842 7.93384 3.62842 7.50799C3.62842 7.08205 3.98345 6.82651 4.33848 6.82651ZM9.6639 11.5968H4.33848C3.98345 11.5968 3.62842 11.3412 3.62842 10.9153C3.62842 10.4894 3.8947 10.2338 4.33848 10.2338H9.6639C10.019 10.2338 10.374 10.4894 10.374 10.9153C10.374 11.3412 10.019 11.5968 9.6639 11.5968Z" fill="#797979"/>
</svg>
