<svg width="24" height="24" viewBox="0 0 17 18" fill="none" xmlns="http://www.w3.org/2000/svg" transform="rotate(0) scale(1, 1)">
<path d="M0.125 5.44964C0.125249 5.34018 0.154246 5.23269 0.209089 5.13795C0.263932 5.04321 0.342697 4.96454 0.4375 4.9098L7.9375 0.534801C8.03307 0.479072 8.14171 0.449707 8.25234 0.449707C8.36297 0.449707 8.47162 0.479072 8.56719 0.534801L16.0672 4.9098C16.1615 4.96484 16.2398 5.04365 16.2942 5.13837C16.3486 5.23309 16.3772 5.34041 16.3772 5.44964C16.3772 5.55887 16.3486 5.6662 16.2942 5.76092C16.2398 5.85564 16.1615 5.93445 16.0672 5.98949L8.56719 10.3645C8.47162 10.4202 8.36297 10.4496 8.25234 10.4496C8.14171 10.4496 8.03307 10.4202 7.9375 10.3645L0.4375 5.98949C0.342697 5.93475 0.263932 5.85608 0.209089 5.76134C0.154246 5.6666 0.125249 5.55911 0.125 5.44964ZM15.4375 8.6598L8.25 12.8512L1.0625 8.6598C0.920191 8.58895 0.75623 8.57498 0.603988 8.62075C0.451747 8.66652 0.322669 8.76859 0.243026 8.90617C0.163382 9.04375 0.139161 9.20652 0.17529 9.36133C0.211419 9.51614 0.305184 9.65137 0.4375 9.73949L7.9375 14.1145C8.03307 14.1702 8.14171 14.1996 8.25234 14.1996C8.36297 14.1996 8.47162 14.1702 8.56719 14.1145L16.0672 9.73949C16.1392 9.69873 16.2024 9.64407 16.2532 9.57869C16.3039 9.5133 16.3412 9.43849 16.3628 9.35859C16.3844 9.27869 16.3899 9.1953 16.379 9.11325C16.3681 9.03121 16.341 8.95214 16.2993 8.88065C16.2576 8.80915 16.2021 8.74665 16.1361 8.69677C16.07 8.64689 15.9947 8.61062 15.9146 8.59008C15.8344 8.56953 15.7509 8.56512 15.669 8.57709C15.5871 8.58905 15.5084 8.61717 15.4375 8.6598ZM16.375 14.1996H15.125V12.9496C15.125 12.7839 15.0592 12.6249 14.9419 12.5077C14.8247 12.3905 14.6658 12.3246 14.5 12.3246C14.3342 12.3246 14.1753 12.3905 14.0581 12.5077C13.9408 12.6249 13.875 12.7839 13.875 12.9496V14.1996H12.625C12.4592 14.1996 12.3003 14.2655 12.1831 14.3827C12.0658 14.4999 12 14.6589 12 14.8246C12 14.9904 12.0658 15.1494 12.1831 15.2666C12.3003 15.3838 12.4592 15.4496 12.625 15.4496H13.875V16.6996C13.875 16.8654 13.9408 17.0244 14.0581 17.1416C14.1753 17.2588 14.3342 17.3246 14.5 17.3246C14.6658 17.3246 14.8247 17.2588 14.9419 17.1416C15.0592 17.0244 15.125 16.8654 15.125 16.6996V15.4496H16.375C16.5408 15.4496 16.6997 15.3838 16.8169 15.2666C16.9342 15.1494 17 14.9904 17 14.8246C17 14.6589 16.9342 14.4999 16.8169 14.3827C16.6997 14.2655 16.5408 14.1996 16.375 14.1996ZM9.1875 16.0559L8.25 16.6028L1.0625 12.4098C0.920191 12.3389 0.75623 12.325 0.603988 12.3708C0.451747 12.4165 0.322669 12.5186 0.243026 12.6562C0.163382 12.7938 0.139161 12.9565 0.17529 13.1113C0.211419 13.2661 0.305184 13.4014 0.4375 13.4895L7.9375 17.8645C8.03307 17.9202 8.14171 17.9496 8.25234 17.9496C8.36297 17.9496 8.47162 17.9202 8.56719 17.8645L9.81719 17.1356C9.88922 17.0948 9.95245 17.0402 10.0032 16.9748C10.0539 16.9094 10.0912 16.8346 10.1128 16.7547C10.1344 16.6748 10.1399 16.5914 10.129 16.5093C10.1181 16.4273 10.091 16.3482 10.0493 16.2767C10.0076 16.2052 9.95213 16.1427 9.88609 16.0929C9.82004 16.043 9.74474 16.0067 9.66457 15.9862C9.58439 15.9656 9.50094 15.9612 9.41904 15.9732C9.33715 15.9851 9.25844 16.0133 9.1875 16.0559Z" fill="#c7222a"/>
</svg>