<svg width="18" height="19" viewBox="0 0 18 19" fill="none" xmlns="http://www.w3.org/2000/svg">
<path d="M0.875 5.64993C0.875249 5.54046 0.904246 5.43298 0.959089 5.33824C1.01393 5.2435 1.0927 5.16482 1.1875 5.11009L8.6875 0.735088C8.78307 0.679358 8.89172 0.649994 9.00234 0.649994C9.11297 0.649994 9.22162 0.679358 9.31719 0.735088L16.8172 5.11009C16.9115 5.16513 16.9898 5.24394 17.0442 5.33866C17.0986 5.43338 17.1272 5.5407 17.1272 5.64993C17.1272 5.75916 17.0986 5.86648 17.0442 5.9612C16.9898 6.05592 16.9115 6.13473 16.8172 6.18978L9.31719 10.5648C9.22162 10.6205 9.11297 10.6499 9.00234 10.6499C8.89172 10.6499 8.78307 10.6205 8.6875 10.5648L1.1875 6.18978C1.0927 6.13504 1.01393 6.05637 0.959089 5.96163C0.904246 5.86688 0.875249 5.7594 0.875 5.64993ZM16.1875 8.86009L9 13.0515L1.8125 8.86009C1.67019 8.78923 1.50623 8.77527 1.35399 8.82104C1.20175 8.86681 1.07267 8.96887 0.993026 9.10646C0.913382 9.24404 0.889161 9.4068 0.92529 9.56162C0.961419 9.71643 1.05518 9.85166 1.1875 9.93978L8.6875 14.3148C8.78307 14.3705 8.89172 14.3999 9.00234 14.3999C9.11297 14.3999 9.22162 14.3705 9.31719 14.3148L16.8172 9.93978C16.8892 9.89902 16.9524 9.84436 17.0032 9.77897C17.0539 9.71359 17.0912 9.63877 17.1128 9.55887C17.1344 9.47898 17.1399 9.39558 17.129 9.31354C17.1181 9.23149 17.091 9.15243 17.0493 9.08093C17.0076 9.00944 16.9521 8.94694 16.8861 8.89706C16.82 8.84718 16.7447 8.81091 16.6646 8.79037C16.5844 8.76982 16.5009 8.7654 16.419 8.77737C16.3371 8.78934 16.2584 8.81746 16.1875 8.86009ZM17.125 14.3999H15.875V13.1499C15.875 12.9842 15.8092 12.8252 15.6919 12.708C15.5747 12.5908 15.4158 12.5249 15.25 12.5249C15.0842 12.5249 14.9253 12.5908 14.8081 12.708C14.6908 12.8252 14.625 12.9842 14.625 13.1499V14.3999H13.375C13.2092 14.3999 13.0503 14.4658 12.9331 14.583C12.8158 14.7002 12.75 14.8592 12.75 15.0249C12.75 15.1907 12.8158 15.3497 12.9331 15.4669C13.0503 15.5841 13.2092 15.6499 13.375 15.6499H14.625V16.8999C14.625 17.0657 14.6908 17.2247 14.8081 17.3419C14.9253 17.4591 15.0842 17.5249 15.25 17.5249C15.4158 17.5249 15.5747 17.4591 15.6919 17.3419C15.8092 17.2247 15.875 17.0657 15.875 16.8999V15.6499H17.125C17.2908 15.6499 17.4497 15.5841 17.5669 15.4669C17.6842 15.3497 17.75 15.1907 17.75 15.0249C17.75 14.8592 17.6842 14.7002 17.5669 14.583C17.4497 14.4658 17.2908 14.3999 17.125 14.3999ZM9.9375 16.2562L9 16.8031L1.8125 12.6101C1.67019 12.5392 1.50623 12.5253 1.35399 12.571C1.20175 12.6168 1.07267 12.7189 0.993026 12.8565C0.913382 12.994 0.889161 13.1568 0.92529 13.3116C0.961419 13.4664 1.05518 13.6017 1.1875 13.6898L8.6875 18.0648C8.78307 18.1205 8.89172 18.1499 9.00234 18.1499C9.11297 18.1499 9.22162 18.1205 9.31719 18.0648L10.5672 17.3359C10.6392 17.2951 10.7024 17.2405 10.7532 17.1751C10.8039 17.1097 10.8412 17.0349 10.8628 16.955C10.8844 16.8751 10.8899 16.7917 10.879 16.7096C10.8681 16.6276 10.841 16.5485 10.7993 16.477C10.7576 16.4055 10.7021 16.343 10.6361 16.2931C10.57 16.2433 10.4947 16.207 10.4146 16.1865C10.3344 16.1659 10.2509 16.1615 10.169 16.1735C10.0871 16.1854 10.0084 16.2135 9.9375 16.2562Z" fill="#797979"/>
</svg>
