<svg width="24" height="24" viewBox="0 0 18 18" fill="none" xmlns="http://www.w3.org/2000/svg">
<path d="M8.55679 9.49219H3.01833C1.87118 9.49219 0.941406 10.422 0.941406 11.5691V15.0306C0.941406 16.1778 1.87118 17.1076 3.01833 17.1076H8.55679V9.49219ZM3.36448 12.2614C3.36448 11.8793 3.67464 11.5691 4.05679 11.5691H5.44141C5.82356 11.5691 6.13371 11.8793 6.13371 12.2614C6.13371 12.6436 5.82356 12.9537 5.44141 12.9537H4.05679C3.67464 12.9537 3.36448 12.6436 3.36448 12.2614ZM15.4799 9.49219H9.94141V17.1076H15.4799C16.627 17.1076 17.5568 16.1778 17.5568 15.0306V11.5691C17.5568 10.422 16.627 9.49219 15.4799 9.49219ZM14.4414 12.9537H13.0568C12.6746 12.9537 12.3645 12.6436 12.3645 12.2614C12.3645 11.8793 12.6746 11.5691 13.0568 11.5691H14.4414C14.8236 11.5691 15.1337 11.8793 15.1337 12.2614C15.1337 12.6436 14.8236 12.9537 14.4414 12.9537ZM11.326 0.492188H7.17218C6.02502 0.492188 5.09525 1.42196 5.09525 2.56911V8.10757H13.4029V2.56911C13.4029 1.42196 12.4732 0.492188 11.326 0.492188ZM9.94141 3.95373H8.55679C8.17464 3.95373 7.86448 3.64357 7.86448 3.26142C7.86448 2.87926 8.17464 2.56911 8.55679 2.56911H9.94141C10.3236 2.56911 10.6337 2.87926 10.6337 3.26142C10.6337 3.64357 10.3236 3.95373 9.94141 3.95373Z" fill="#C7222A"/>
</svg>
