<svg width="24" height="24" viewBox="0 0 18 18" fill="none" xmlns="http://www.w3.org/2000/svg">
<g clip-path="url(#clip0_1422_19774)">
<path d="M8.55679 9.89209H3.01833C1.87118 9.89209 0.941406 10.8219 0.941406 11.969V15.4306C0.941406 16.5777 1.87118 17.5075 3.01833 17.5075H8.55679V9.89209ZM3.36448 12.6613C3.36448 12.2792 3.67464 11.969 4.05679 11.969H5.44141C5.82356 11.969 6.13371 12.2792 6.13371 12.6613C6.13371 13.0435 5.82356 13.3536 5.44141 13.3536H4.05679C3.67464 13.3536 3.36448 13.0435 3.36448 12.6613ZM15.4799 9.89209H9.94141V17.5075H15.4799C16.627 17.5075 17.5568 16.5777 17.5568 15.4306V11.969C17.5568 10.8219 16.627 9.89209 15.4799 9.89209ZM14.4414 13.3536H13.0568C12.6746 13.3536 12.3645 13.0435 12.3645 12.6613C12.3645 12.2792 12.6746 11.969 13.0568 11.969H14.4414C14.8236 11.969 15.1337 12.2792 15.1337 12.6613C15.1337 13.0435 14.8236 13.3536 14.4414 13.3536ZM11.326 0.89209H7.17218C6.02502 0.89209 5.09525 1.82186 5.09525 2.96901V8.50747H13.4029V2.96901C13.4029 1.82186 12.4732 0.89209 11.326 0.89209ZM9.94141 4.35363H8.55679C8.17464 4.35363 7.86448 4.04347 7.86448 3.66132C7.86448 3.27917 8.17464 2.96901 8.55679 2.96901H9.94141C10.3236 2.96901 10.6337 3.27917 10.6337 3.66132C10.6337 4.04347 10.3236 4.35363 9.94141 4.35363Z" fill="#797979"/>
</g>
<defs>
<clipPath id="clip0_1422_19774">
<rect width="16.6154" height="16.6154" fill="white" transform="translate(0.941406 0.89209)"/>
</clipPath>
</defs>
</svg>
