<svg width="18" height="17" viewBox="0 0 18 17" fill="none" xmlns="http://www.w3.org/2000/svg">
<path d="M8.30765 9.09232H2.76918C1.62203 9.09232 0.692261 10.0221 0.692261 11.1692V14.6308C0.692261 15.7779 1.62203 16.7077 2.76918 16.7077H8.30765V9.09232ZM3.11534 11.8615C3.11534 11.4794 3.42549 11.1692 3.80765 11.1692H5.19226C5.57441 11.1692 5.88457 11.4794 5.88457 11.8615C5.88457 12.2437 5.57441 12.5539 5.19226 12.5539H3.80765C3.42549 12.5539 3.11534 12.2437 3.11534 11.8615ZM15.2307 9.09232H9.69226V16.7077H15.2307C16.3779 16.7077 17.3076 15.7779 17.3076 14.6308V11.1692C17.3076 10.0221 16.3779 9.09232 15.2307 9.09232ZM14.1923 12.5539H12.8076C12.4255 12.5539 12.1153 12.2437 12.1153 11.8615C12.1153 11.4794 12.4255 11.1692 12.8076 11.1692H14.1923C14.5744 11.1692 14.8846 11.4794 14.8846 11.8615C14.8846 12.2437 14.5744 12.5539 14.1923 12.5539ZM11.0769 0.0923157H6.92303C5.77588 0.0923157 4.84611 1.02208 4.84611 2.16924V7.7077H13.1538V2.16924C13.1538 1.02208 12.224 0.0923157 11.0769 0.0923157ZM9.69226 3.55385H8.30765C7.92549 3.55385 7.61534 3.2437 7.61534 2.86155C7.61534 2.47939 7.92549 2.16924 8.30765 2.16924H9.69226C10.0744 2.16924 10.3846 2.47939 10.3846 2.86155C10.3846 3.2437 10.0744 3.55385 9.69226 3.55385Z" fill="#797979"/>
</svg>
