<svg width="34" height="34" viewBox="0 0 34 34" fill="none" xmlns="http://www.w3.org/2000/svg">
<rect width="34" height="34" rx="17" fill="#4374D0"/>
<path d="M24.8736 13.6235C24.9214 11.2073 22.7868 9.07796 20.3738 9.12579C16.3943 9.11734 14.3694 14.006 17.193 16.8048C19.9942 19.6316 24.882 17.6036 24.8736 13.6235ZM18.7933 13.2634C18.4241 13.2583 18.4226 12.7064 18.7933 12.7009C18.7933 12.7009 20.5707 12.7009 20.5707 12.7009C20.4526 12.3408 20.1151 12.0764 19.7157 12.0764H18.7933C18.6358 12.0764 18.512 11.9499 18.512 11.7951C18.512 11.6404 18.6358 11.5139 18.7933 11.5139H21.9544C22.3237 11.5199 22.3251 12.0704 21.9543 12.0764H20.8603C21.0038 12.2565 21.1078 12.4674 21.1528 12.7009H21.9544C22.3235 12.7063 22.3251 13.2577 21.9543 13.2634H21.1528C21.0173 14.0081 20.3063 14.5178 19.5413 14.4504C19.5414 14.4504 21.0854 15.8034 21.0854 15.8034C21.3629 16.042 20.9935 16.4697 20.7169 16.2253C20.7169 16.2253 18.6076 14.3801 18.6076 14.3801C18.4091 14.222 18.542 13.8794 18.7933 13.8879C18.7933 13.8879 19.7157 13.8879 19.7157 13.8879C20.1151 13.8879 20.4526 13.6235 20.5707 13.2634L18.7933 13.2634Z" fill="white"/>
<path d="M11.7264 17.2803H9.40624C9.25156 17.2803 9.125 17.4069 9.125 17.5616V23.446C9.125 23.6007 9.25156 23.7272 9.40624 23.7272H11.7264C11.8839 23.7272 12.0077 23.6007 12.0077 23.446V17.5616C12.0077 17.4069 11.8839 17.2803 11.7264 17.2803ZM10.5677 19.373C10.1965 19.3674 10.1993 18.8161 10.5677 18.8104C10.9362 18.8189 10.9362 19.3674 10.5677 19.373Z" fill="white"/>
<path d="M23.4588 19.832L21.0685 20.5267C20.9858 21.3534 20.2344 22.0276 19.4037 22.0146C19.4037 22.0146 16.6338 22.0146 16.6338 22.0146C16.2653 22.0075 16.2636 21.4594 16.6338 21.4521H19.4037C20.9495 21.3567 20.8455 19.2272 19.2743 19.2216C19.2744 19.2216 17.23 19.2216 17.23 19.2216C17.0612 19.2216 16.8953 19.1738 16.7547 19.0838C16.0673 18.6531 15.2057 17.981 14.3447 18.0375C14.3447 18.0375 12.5703 18.0375 12.5703 18.0375V22.9766C12.649 22.985 12.725 23.0103 12.7953 23.0525L14.9662 24.3182C15.6018 24.6895 16.3132 24.8751 17.0247 24.8751C17.6209 24.8751 18.217 24.7458 18.7738 24.4814L24.2406 21.8937C25.4529 21.296 24.7606 19.4771 23.4588 19.832Z" fill="white"/>
</svg>
