<svg width="34" height="34" viewBox="0 0 34 34" fill="none" xmlns="http://www.w3.org/2000/svg">
<rect width="34" height="34" rx="17" fill="#4374D0"/>
<g clip-path="url(#clip0_3739_71141)">
<path d="M24.0734 13.0441L22.7966 14.3209C23.1477 15.1417 23.3438 16.0491 23.3438 16.9976C23.3438 20.7687 20.2749 23.8376 16.5038 23.8376C12.7327 23.8376 9.66378 20.7687 9.66378 16.9976C9.66378 13.2265 12.7327 10.1576 16.5038 10.1576C17.4523 10.1576 18.3551 10.3537 19.1805 10.7048L20.4573 9.42799C19.2717 8.80783 17.9311 8.45215 16.5038 8.45215C11.7842 8.44759 7.94922 12.2826 7.94922 16.9976C7.94922 21.7126 11.7842 25.5476 16.4992 25.5476C21.2143 25.5476 25.0492 21.7126 25.0492 16.9976C25.0492 15.5703 24.6935 14.2251 24.0734 13.0441Z" fill="white"/>
<path d="M16.4991 13.5782C16.8047 13.5782 17.0919 13.6329 17.3747 13.7058L18.7062 12.3743C18.0359 12.0551 17.288 11.8682 16.4991 11.8682C13.6719 11.8682 11.3691 14.171 11.3691 16.9982C11.3691 19.8254 13.6719 22.1282 16.4991 22.1282C19.3263 22.1282 21.6291 19.8254 21.6291 16.9982C21.6291 16.2093 21.4422 15.4614 21.123 14.7911L19.7915 16.1226C19.8644 16.4054 19.9191 16.6926 19.9191 16.9982C19.9191 18.886 18.3824 20.4182 16.4991 20.4182C14.6113 20.4182 13.0791 18.8814 13.0791 16.9982C13.0791 15.1103 14.6113 13.5782 16.4991 13.5782Z" fill="white"/>
<path d="M19.8963 12.3921L16.9368 15.3516C16.7955 15.3151 16.6495 15.2877 16.4991 15.2877C15.5389 15.2877 14.7628 16.0804 14.7897 17.0465C14.8146 17.9386 15.5582 18.6822 16.4503 18.7071C17.4164 18.734 18.2091 17.9579 18.2091 16.9977C18.2091 16.8473 18.1817 16.7013 18.1452 16.56L21.1047 13.6005L21.8761 13.8577C21.9567 13.8845 22.0455 13.8636 22.1055 13.8035L24.7741 11.1349C24.892 11.017 24.8445 10.8163 24.6863 10.7637L23.2205 10.2763L22.7332 8.81078C22.6806 8.65249 22.4797 8.60507 22.3618 8.72311L19.6972 11.3918C19.6375 11.4516 19.6165 11.5398 19.6428 11.6201L19.8963 12.3921Z" fill="white"/>
</g>
<defs>
<clipPath id="clip0_3739_71141">
<rect width="18" height="18" fill="white" transform="translate(7.5 8)"/>
</clipPath>
</defs>
</svg>
