<svg width="24" height="24" viewBox="0 0 24 24" fill="none" xmlns="http://www.w3.org/2000/svg">
<rect width="24" height="24" rx="12" fill="#4374D0"/>
<path d="M12.0014 5.82422C11.6065 5.82422 11.3229 6.07473 11.0811 6.28694C10.8394 6.49915 10.6276 6.67834 10.4241 6.70916C10.2228 6.73962 9.82918 6.53442 9.45083 6.3339C9.26165 6.23364 9.07564 6.13843 8.87135 6.10814C8.66707 6.07785 8.4145 6.16086 8.28455 6.36923C8.09641 6.67091 8.1788 7.02908 8.3509 7.32525C8.523 7.62142 8.78875 7.89922 9.06695 8.14901C9.62332 8.6486 10.2397 9.03093 10.2397 9.03093C10.2746 9.05277 10.3149 9.06441 10.356 9.06454H13.6463C13.6876 9.06449 13.7281 9.05284 13.7631 9.03093C13.7631 9.03093 14.379 8.6486 14.9354 8.14901C15.2136 7.89922 15.4793 7.62142 15.6514 7.32525C15.8235 7.02908 15.9059 6.67091 15.7178 6.36923C15.5878 6.16086 15.3353 6.07785 15.131 6.10814C14.9267 6.13843 14.7407 6.23364 14.5515 6.3339C14.1732 6.53442 13.7795 6.73962 13.5782 6.70916C13.3747 6.67834 13.163 6.49915 12.9212 6.28694C12.6795 6.07473 12.3962 5.82422 12.0014 5.82422ZM10.3586 9.50572C10.331 9.50567 10.3037 9.51078 10.278 9.5208C9.32926 9.89202 8.55827 10.7804 8.01313 11.8189C7.46799 12.8574 7.14844 14.053 7.14844 15.0889C7.14844 16.4277 7.73206 17.2557 8.63138 17.6817C9.53069 18.1077 10.7133 18.1772 12.0014 18.1772C13.2895 18.1772 14.4721 18.1077 15.3714 17.6817C16.2707 17.2557 16.8543 16.4277 16.8543 15.0889C16.8543 14.053 16.5343 12.8574 15.9892 11.8189C15.4441 10.7804 14.6731 9.89202 13.7243 9.5208C13.6988 9.51083 13.6716 9.50572 13.6442 9.50572L10.3586 9.50572ZM11.1875 12.2971H12.8152C12.877 12.2971 12.9301 12.3193 12.9742 12.3635C13.0183 12.4046 13.0401 12.4577 13.0401 12.5224C13.0401 12.5842 13.0183 12.6355 12.9742 12.6767C12.9301 12.7178 12.877 12.7383 12.8152 12.7383H12.4305C12.4944 12.7866 12.5498 12.8433 12.5946 12.9106C12.6135 12.9389 12.6295 12.9686 12.6433 12.9989H12.8152C12.877 12.9989 12.9301 13.0207 12.9742 13.0649C13.0183 13.106 13.0401 13.1578 13.0401 13.2195C13.0401 13.2813 13.0183 13.334 12.9742 13.3781C12.9301 13.4192 12.877 13.4401 12.8152 13.4401H12.6774C12.6658 13.483 12.6505 13.5258 12.63 13.5681C12.5859 13.6622 12.5273 13.7475 12.4538 13.824C12.3895 13.8908 12.3169 13.9442 12.2392 13.9886C12.2817 14.0155 12.3231 14.0462 12.3611 14.0842C12.4258 14.146 12.4785 14.2163 12.5197 14.2958C12.5609 14.3752 12.5845 14.4619 12.5903 14.556C12.5992 14.6472 12.6064 14.7239 12.6123 14.7856C12.6182 14.8444 12.6286 14.893 12.6433 14.9312C12.661 14.9695 12.6873 14.999 12.7226 15.0196C12.7579 15.0401 12.7847 15.0665 12.8023 15.0988C12.8199 15.1282 12.8286 15.1605 12.8286 15.1958C12.8286 15.2517 12.8082 15.2975 12.767 15.3328C12.7287 15.3681 12.677 15.3853 12.6123 15.3853C12.5652 15.3853 12.5139 15.374 12.4581 15.3504C12.4051 15.324 12.3552 15.2813 12.3081 15.2225C12.264 15.1607 12.2273 15.0813 12.1978 14.9842C12.1684 14.8842 12.1535 14.7603 12.1535 14.6133C12.1535 14.5398 12.1417 14.4767 12.1181 14.4237C12.0946 14.3708 12.0624 14.3281 12.0212 14.2958C11.98 14.2605 11.9315 14.2355 11.8756 14.2208C11.8197 14.2031 11.7593 14.1945 11.6946 14.1945H11.1961C11.1344 14.1945 11.0817 14.1768 11.0376 14.1415C10.9964 14.1033 10.9756 14.0516 10.9756 13.9868C10.9756 13.9251 10.9964 13.8783 11.0376 13.846C11.0817 13.8107 11.1344 13.793 11.1961 13.793H11.814C11.8816 13.79 11.9461 13.7651 12.0078 13.718C12.0725 13.668 12.1243 13.6004 12.1625 13.5151C12.174 13.4913 12.1831 13.4659 12.1914 13.4401H11.1875C11.1228 13.4401 11.0684 13.4193 11.0242 13.3781C10.9831 13.334 10.9622 13.2795 10.9622 13.2148C10.9622 13.1501 10.9831 13.0988 11.0242 13.0605C11.0684 13.0194 11.1228 12.9989 11.1875 12.9989H12.178C12.1574 12.9536 12.1313 12.9116 12.0962 12.8753C12.0138 12.7841 11.9153 12.7383 11.8006 12.7383H11.1875C11.1228 12.7383 11.0684 12.7178 11.0242 12.6767C10.9831 12.6326 10.9622 12.5781 10.9622 12.5134C10.9622 12.4516 10.9831 12.4003 11.0242 12.3591C11.0684 12.318 11.1228 12.2971 11.1875 12.2971Z" fill="white"/>
</svg>
