<svg width="14" height="14" viewBox="0 0 13 13" fill="none" xmlns="http://www.w3.org/2000/svg">
<path d="M7.60832 12.5608C7.85813 12.8079 8.19535 12.9465 8.54675 12.9465C8.89816 12.9465 9.23537 12.8079 9.48519 12.5608L12.5477 9.49828C12.7948 9.24846 12.9334 8.91124 12.9334 8.55984C12.9334 8.20844 12.7948 7.87122 12.5477 7.6214L6.08582 1.13765C5.93743 0.987293 5.75495 0.874972 5.55387 0.81023C5.35279 0.745488 5.13905 0.730239 4.93082 0.765777L2.30582 1.20328C2.03274 1.25001 1.78089 1.38031 1.58499 1.5762C1.3891 1.7721 1.2588 2.02395 1.21207 2.29703L0.774566 4.92203C0.739028 5.13026 0.754277 5.344 0.819019 5.54508C0.883761 5.74616 0.996082 5.92864 1.14644 6.07703L7.60832 12.5608ZM3.72769 4.6114C3.72769 4.43834 3.77901 4.26917 3.87515 4.12528C3.9713 3.98138 4.10796 3.86923 4.26784 3.80301C4.42773 3.73678 4.60366 3.71945 4.7734 3.75321C4.94313 3.78698 5.09904 3.87031 5.22141 3.99268C5.34378 4.11505 5.42712 4.27096 5.46088 4.4407C5.49464 4.61043 5.47731 4.78636 5.41109 4.94625C5.34486 5.10613 5.23271 5.24279 5.08881 5.33894C4.94492 5.43508 4.77575 5.4864 4.60269 5.4864C4.37063 5.4864 4.14807 5.39421 3.98397 5.23012C3.81988 5.06603 3.72769 4.84347 3.72769 4.6114Z" fill="#F7A500"/>
</svg>
