<svg width="24" height="24" viewBox="0 0 24 24" fill="none" xmlns="http://www.w3.org/2000/svg">
<rect width="24" height="24" rx="12" fill="#4374D0"/>
<path d="M17.8052 8.06194C17.7825 7.81489 17.6209 7.60201 17.3886 7.51485L12.2972 5.60428C12.2392 5.57523 12.1773 5.55569 12.1129 5.54495C11.9727 5.51654 11.8257 5.54055 11.6969 5.60745L6.61381 7.51485C6.38151 7.60201 6.21988 7.81489 6.19723 8.06194C6.19031 8.13713 5.58873 15.579 11.6371 18.3645C11.6434 18.3689 11.6503 18.3734 11.6572 18.3772C11.7595 18.4397 11.8756 18.4707 11.9918 18.4707C12.0094 18.4707 12.0271 18.4701 12.0448 18.4688C12.1496 18.4619 12.2538 18.4297 12.3466 18.3734C18.415 15.5948 17.8122 8.13778 17.8052 8.06194ZM15.0571 10.5063L12.2881 13.4017C12.1678 13.5274 12.0019 13.5995 11.8278 13.6013C11.8253 13.6013 11.8231 13.6013 11.8206 13.6013C11.649 13.6013 11.4844 13.5331 11.3631 13.4118L10.069 12.1176C9.81623 11.8649 9.81623 11.4554 10.069 11.2026C10.3217 10.9498 10.7312 10.9499 10.984 11.2026L11.8102 12.0291L14.122 9.61152C14.3687 9.35308 14.7795 9.34422 15.0367 9.59133C15.2949 9.83844 15.3041 10.2479 15.0571 10.5063Z" fill="white"/>
</svg>
