<svg width="10" height="14" viewBox="0 0 10 14" fill="none" xmlns="http://www.w3.org/2000/svg">
<path d="M4.9995 0.666992C4.77849 0.666992 4.56653 0.75479 4.41025 0.91107C4.25397 1.06735 4.16617 1.27931 4.16617 1.50033V10.3253L1.4245 7.57533C1.26758 7.41841 1.05475 7.33025 0.832837 7.33025C0.610919 7.33025 0.39809 7.41841 0.24117 7.57533C0.0842504 7.73225 -0.00390625 7.94507 -0.00390625 8.16699C-0.00390625 8.38891 0.0842504 8.60174 0.24117 8.75866L4.40784 12.9253C4.48531 13.0034 4.57747 13.0654 4.67902 13.1077C4.78057 13.15 4.88949 13.1718 4.9995 13.1718C5.10951 13.1718 5.21843 13.15 5.31998 13.1077C5.42153 13.0654 5.5137 13.0034 5.59117 12.9253L9.75784 8.75866C9.83553 8.68096 9.89717 8.58872 9.93922 8.4872C9.98127 8.38568 10.0029 8.27688 10.0029 8.16699C10.0029 8.05711 9.98127 7.9483 9.93922 7.84678C9.89717 7.74527 9.83553 7.65302 9.75784 7.57533C9.68014 7.49763 9.5879 7.43599 9.48638 7.39394C9.38486 7.35189 9.27605 7.33025 9.16617 7.33025C9.05629 7.33025 8.94748 7.35189 8.84596 7.39394C8.74444 7.43599 8.6522 7.49763 8.5745 7.57533L5.83284 10.3253V1.50033C5.83284 1.27931 5.74504 1.06735 5.58876 0.91107C5.43248 0.75479 5.22052 0.666992 4.9995 0.666992Z" fill="#767D93"/>
</svg>
